G04 EAGLE Gerber RS-274X export*
G75*
%MOMM*%
%FSLAX34Y34*%
%LPD*%
%INBottom Copper*%
%IPPOS*%
%AMOC8*
5,1,8,0,0,1.08239X$1,22.5*%
G01*
%ADD10C,1.524000*%
%ADD11C,1.473200*%
%ADD12R,2.500000X2.500000*%
%ADD13C,1.879600*%
%ADD14P,1.632244X8X112.500000*%
%ADD15P,1.632244X8X292.500000*%
%ADD16C,1.879600*%
%ADD17R,1.333500X1.333500*%
%ADD18P,0.818720X8X22.500000*%
%ADD19C,0.914400*%
%ADD20C,0.756400*%
%ADD21C,0.152400*%
%ADD22C,1.333500*%

G36*
X980022Y2290D02*
X980022Y2290D01*
X980060Y2289D01*
X982712Y2498D01*
X982717Y2499D01*
X982723Y2499D01*
X982887Y2533D01*
X987931Y4172D01*
X987963Y4188D01*
X987998Y4197D01*
X988143Y4280D01*
X992434Y7397D01*
X992460Y7423D01*
X992490Y7442D01*
X992603Y7566D01*
X995720Y11857D01*
X995736Y11888D01*
X995759Y11916D01*
X995828Y12069D01*
X997467Y17113D01*
X997468Y17119D01*
X997471Y17124D01*
X997502Y17288D01*
X997711Y19940D01*
X997709Y19962D01*
X997713Y20000D01*
X997713Y600000D01*
X997710Y600022D01*
X997711Y600060D01*
X997502Y602712D01*
X997501Y602717D01*
X997501Y602723D01*
X997467Y602887D01*
X995828Y607931D01*
X995812Y607963D01*
X995803Y607998D01*
X995720Y608143D01*
X992603Y612434D01*
X992577Y612460D01*
X992558Y612490D01*
X992434Y612603D01*
X988143Y615720D01*
X988121Y615732D01*
X988107Y615744D01*
X988099Y615747D01*
X988084Y615759D01*
X987931Y615828D01*
X982887Y617467D01*
X982881Y617468D01*
X982876Y617471D01*
X982712Y617502D01*
X980060Y617711D01*
X980038Y617709D01*
X980000Y617713D01*
X30000Y617713D01*
X29978Y617710D01*
X29940Y617711D01*
X25724Y617379D01*
X25719Y617378D01*
X25713Y617378D01*
X25549Y617344D01*
X17529Y614738D01*
X17497Y614722D01*
X17462Y614713D01*
X17317Y614630D01*
X10495Y609674D01*
X10469Y609648D01*
X10439Y609629D01*
X10326Y609505D01*
X5370Y602683D01*
X5354Y602651D01*
X5331Y602624D01*
X5262Y602471D01*
X2656Y594451D01*
X2655Y594446D01*
X2652Y594441D01*
X2621Y594276D01*
X2289Y590060D01*
X2291Y590038D01*
X2287Y590000D01*
X2287Y315580D01*
X2298Y315510D01*
X2300Y315438D01*
X2318Y315389D01*
X2326Y315337D01*
X2360Y315274D01*
X2385Y315207D01*
X2417Y315166D01*
X2442Y315120D01*
X2494Y315071D01*
X2538Y315015D01*
X2582Y314987D01*
X2620Y314951D01*
X2685Y314921D01*
X2745Y314882D01*
X2796Y314869D01*
X2843Y314847D01*
X2914Y314839D01*
X2984Y314822D01*
X3036Y314826D01*
X3087Y314820D01*
X3158Y314835D01*
X3229Y314841D01*
X3277Y314861D01*
X3328Y314872D01*
X3389Y314909D01*
X3455Y314937D01*
X3511Y314982D01*
X3539Y314998D01*
X3554Y315016D01*
X3586Y315042D01*
X4800Y316256D01*
X7124Y317219D01*
X9640Y317219D01*
X11964Y316256D01*
X12416Y315804D01*
X12432Y315792D01*
X12444Y315777D01*
X12531Y315721D01*
X12615Y315660D01*
X12634Y315655D01*
X12651Y315644D01*
X12752Y315619D01*
X12851Y315588D01*
X12870Y315589D01*
X12890Y315584D01*
X12993Y315592D01*
X13096Y315594D01*
X13115Y315601D01*
X13135Y315603D01*
X13230Y315643D01*
X13327Y315679D01*
X13343Y315691D01*
X13361Y315699D01*
X13492Y315804D01*
X13944Y316256D01*
X16268Y317219D01*
X18784Y317219D01*
X21108Y316256D01*
X22886Y314478D01*
X23849Y312154D01*
X23849Y309638D01*
X22886Y307314D01*
X21052Y305480D01*
X20999Y305406D01*
X20939Y305337D01*
X20927Y305306D01*
X20908Y305280D01*
X20881Y305193D01*
X20847Y305108D01*
X20843Y305067D01*
X20836Y305045D01*
X20837Y305013D01*
X20829Y304942D01*
X20829Y260763D01*
X20843Y260673D01*
X20851Y260582D01*
X20863Y260553D01*
X20868Y260521D01*
X20911Y260440D01*
X20947Y260356D01*
X20973Y260324D01*
X20984Y260303D01*
X21007Y260281D01*
X21052Y260225D01*
X29997Y251280D01*
X30093Y251211D01*
X30186Y251142D01*
X30192Y251140D01*
X30197Y251136D01*
X30308Y251102D01*
X30420Y251065D01*
X30426Y251065D01*
X30432Y251064D01*
X30549Y251067D01*
X30666Y251068D01*
X30673Y251070D01*
X30678Y251070D01*
X30695Y251076D01*
X30827Y251115D01*
X31049Y251207D01*
X34991Y251207D01*
X38632Y249699D01*
X41419Y246912D01*
X42927Y243271D01*
X42927Y239329D01*
X41419Y235688D01*
X38632Y232901D01*
X34991Y231393D01*
X31049Y231393D01*
X27408Y232901D01*
X24621Y235688D01*
X23113Y239329D01*
X23113Y243271D01*
X24545Y246726D01*
X24571Y246840D01*
X24600Y246953D01*
X24599Y246959D01*
X24601Y246966D01*
X24590Y247082D01*
X24581Y247198D01*
X24578Y247204D01*
X24578Y247210D01*
X24530Y247318D01*
X24484Y247425D01*
X24480Y247431D01*
X24478Y247435D01*
X24465Y247449D01*
X24380Y247556D01*
X16381Y255554D01*
X14223Y257712D01*
X14223Y304942D01*
X14209Y305032D01*
X14201Y305123D01*
X14189Y305153D01*
X14184Y305184D01*
X14141Y305265D01*
X14105Y305349D01*
X14079Y305381D01*
X14068Y305402D01*
X14045Y305424D01*
X14000Y305480D01*
X13492Y305988D01*
X13476Y306000D01*
X13464Y306015D01*
X13377Y306071D01*
X13293Y306132D01*
X13274Y306137D01*
X13257Y306148D01*
X13156Y306173D01*
X13058Y306204D01*
X13038Y306203D01*
X13018Y306208D01*
X12915Y306200D01*
X12812Y306198D01*
X12793Y306191D01*
X12773Y306189D01*
X12678Y306149D01*
X12581Y306113D01*
X12565Y306101D01*
X12547Y306093D01*
X12416Y305988D01*
X11908Y305480D01*
X11855Y305406D01*
X11795Y305337D01*
X11783Y305306D01*
X11764Y305280D01*
X11737Y305193D01*
X11703Y305108D01*
X11699Y305067D01*
X11692Y305045D01*
X11693Y305013D01*
X11685Y304942D01*
X11685Y242221D01*
X11699Y242131D01*
X11707Y242040D01*
X11719Y242011D01*
X11724Y241979D01*
X11767Y241898D01*
X11803Y241814D01*
X11829Y241782D01*
X11840Y241761D01*
X11863Y241739D01*
X11908Y241683D01*
X28381Y225210D01*
X28475Y225142D01*
X28569Y225072D01*
X28575Y225070D01*
X28581Y225066D01*
X28691Y225032D01*
X28803Y224996D01*
X28810Y224996D01*
X28816Y224994D01*
X28932Y224997D01*
X29049Y224998D01*
X29056Y225000D01*
X29061Y225000D01*
X29079Y225007D01*
X29210Y225045D01*
X31049Y225807D01*
X34991Y225807D01*
X38632Y224299D01*
X41419Y221512D01*
X42927Y217871D01*
X42927Y213929D01*
X41419Y210288D01*
X38632Y207501D01*
X34991Y205993D01*
X31049Y205993D01*
X27408Y207501D01*
X24621Y210288D01*
X23113Y213929D01*
X23113Y217871D01*
X23875Y219710D01*
X23890Y219775D01*
X23902Y219799D01*
X23906Y219841D01*
X23930Y219937D01*
X23930Y219943D01*
X23931Y219949D01*
X23925Y220013D01*
X23929Y220044D01*
X23918Y220092D01*
X23911Y220182D01*
X23909Y220188D01*
X23908Y220194D01*
X23884Y220247D01*
X23876Y220284D01*
X23846Y220335D01*
X23815Y220408D01*
X23810Y220414D01*
X23808Y220419D01*
X23796Y220432D01*
X23765Y220471D01*
X23750Y220495D01*
X23735Y220509D01*
X23710Y220539D01*
X7237Y237012D01*
X5079Y239170D01*
X5079Y304942D01*
X5065Y305032D01*
X5057Y305123D01*
X5045Y305152D01*
X5040Y305184D01*
X4997Y305265D01*
X4961Y305349D01*
X4935Y305381D01*
X4924Y305402D01*
X4901Y305424D01*
X4856Y305480D01*
X3586Y306750D01*
X3528Y306792D01*
X3476Y306841D01*
X3429Y306863D01*
X3387Y306894D01*
X3318Y306915D01*
X3253Y306945D01*
X3201Y306951D01*
X3151Y306966D01*
X3080Y306964D01*
X3009Y306972D01*
X2958Y306961D01*
X2906Y306960D01*
X2838Y306935D01*
X2768Y306920D01*
X2723Y306893D01*
X2675Y306875D01*
X2619Y306830D01*
X2557Y306794D01*
X2523Y306754D01*
X2483Y306721D01*
X2444Y306661D01*
X2397Y306607D01*
X2378Y306558D01*
X2350Y306515D01*
X2332Y306445D01*
X2305Y306378D01*
X2297Y306307D01*
X2289Y306276D01*
X2291Y306253D01*
X2287Y306212D01*
X2287Y20000D01*
X2290Y19978D01*
X2289Y19940D01*
X2498Y17288D01*
X2499Y17283D01*
X2499Y17277D01*
X2533Y17113D01*
X4172Y12069D01*
X4188Y12037D01*
X4197Y12002D01*
X4280Y11857D01*
X7397Y7566D01*
X7423Y7540D01*
X7442Y7510D01*
X7566Y7397D01*
X11857Y4280D01*
X11888Y4264D01*
X11916Y4241D01*
X12069Y4172D01*
X17113Y2533D01*
X17118Y2532D01*
X17124Y2529D01*
X17136Y2527D01*
X17143Y2524D01*
X17168Y2521D01*
X17288Y2498D01*
X19940Y2289D01*
X19962Y2291D01*
X20000Y2287D01*
X980000Y2287D01*
X980022Y2290D01*
G37*
%LPC*%
G36*
X589939Y490219D02*
X589939Y490219D01*
X586204Y491766D01*
X583346Y494624D01*
X581799Y498359D01*
X581799Y517641D01*
X583346Y521376D01*
X586204Y524234D01*
X589939Y525781D01*
X593981Y525781D01*
X597716Y524234D01*
X600574Y521376D01*
X602124Y517634D01*
X602124Y517633D01*
X602122Y517614D01*
X602122Y517613D01*
X602144Y517511D01*
X602160Y517409D01*
X602170Y517392D01*
X602174Y517372D01*
X602227Y517283D01*
X602276Y517192D01*
X602290Y517178D01*
X602300Y517161D01*
X602379Y517094D01*
X602454Y517022D01*
X602472Y517014D01*
X602487Y517001D01*
X602583Y516962D01*
X602677Y516919D01*
X602697Y516917D01*
X602715Y516909D01*
X602882Y516891D01*
X655106Y516891D01*
X655197Y516905D01*
X655287Y516913D01*
X655317Y516925D01*
X655349Y516930D01*
X655430Y516973D01*
X655514Y517009D01*
X655546Y517035D01*
X655567Y517046D01*
X655568Y517046D01*
X655568Y517047D01*
X655589Y517069D01*
X655645Y517114D01*
X721358Y582827D01*
X721411Y582901D01*
X721471Y582971D01*
X721483Y583001D01*
X721502Y583027D01*
X721529Y583114D01*
X721563Y583199D01*
X721567Y583240D01*
X721574Y583262D01*
X721573Y583294D01*
X721581Y583366D01*
X721581Y585255D01*
X723399Y589643D01*
X726757Y593001D01*
X731145Y594819D01*
X735895Y594819D01*
X740283Y593001D01*
X743641Y589643D01*
X745459Y585255D01*
X745459Y580505D01*
X743641Y576117D01*
X740283Y572759D01*
X735895Y570941D01*
X731145Y570941D01*
X730516Y571202D01*
X730403Y571229D01*
X730288Y571257D01*
X730282Y571257D01*
X730276Y571258D01*
X730160Y571247D01*
X730043Y571238D01*
X730038Y571236D01*
X730031Y571235D01*
X729924Y571187D01*
X729817Y571142D01*
X729811Y571137D01*
X729807Y571135D01*
X729793Y571122D01*
X729686Y571037D01*
X664505Y505856D01*
X662397Y503748D01*
X659783Y502665D01*
X602882Y502665D01*
X602862Y502662D01*
X602843Y502664D01*
X602741Y502642D01*
X602639Y502626D01*
X602622Y502616D01*
X602602Y502612D01*
X602513Y502559D01*
X602422Y502510D01*
X602408Y502496D01*
X602391Y502486D01*
X602324Y502407D01*
X602252Y502332D01*
X602244Y502314D01*
X602231Y502299D01*
X602192Y502203D01*
X602149Y502109D01*
X602147Y502089D01*
X602139Y502071D01*
X602121Y501904D01*
X602121Y498359D01*
X600574Y494624D01*
X597716Y491766D01*
X593981Y490219D01*
X589939Y490219D01*
G37*
%LPD*%
%LPC*%
G36*
X89874Y424109D02*
X89874Y424109D01*
X83969Y430014D01*
X83969Y438366D01*
X89881Y444278D01*
X89954Y444290D01*
X90070Y444307D01*
X90076Y444309D01*
X90082Y444310D01*
X90185Y444365D01*
X90290Y444418D01*
X90294Y444423D01*
X90299Y444426D01*
X90379Y444509D01*
X90462Y444594D01*
X90465Y444600D01*
X90469Y444604D01*
X90477Y444621D01*
X90543Y444741D01*
X90744Y445227D01*
X90860Y445343D01*
X90898Y445396D01*
X90944Y445443D01*
X90984Y445516D01*
X91004Y445543D01*
X91010Y445561D01*
X91025Y445590D01*
X91506Y446751D01*
X104175Y459420D01*
X106789Y460503D01*
X246674Y460503D01*
X246765Y460517D01*
X246855Y460525D01*
X246885Y460537D01*
X246917Y460542D01*
X246998Y460585D01*
X247082Y460621D01*
X247114Y460647D01*
X247135Y460658D01*
X247157Y460681D01*
X247213Y460726D01*
X255051Y468564D01*
X257665Y469647D01*
X260495Y469647D01*
X263109Y468564D01*
X265110Y466563D01*
X266193Y463949D01*
X266193Y461119D01*
X265110Y458505D01*
X253965Y447360D01*
X251351Y446277D01*
X111466Y446277D01*
X111375Y446263D01*
X111285Y446255D01*
X111255Y446243D01*
X111223Y446238D01*
X111142Y446195D01*
X111058Y446159D01*
X111026Y446133D01*
X111005Y446122D01*
X110983Y446099D01*
X110927Y446054D01*
X104223Y439350D01*
X104211Y439334D01*
X104196Y439321D01*
X104140Y439234D01*
X104079Y439150D01*
X104074Y439131D01*
X104063Y439114D01*
X104037Y439014D01*
X104007Y438915D01*
X104008Y438895D01*
X104003Y438876D01*
X104011Y438773D01*
X104013Y438669D01*
X104020Y438650D01*
X104022Y438631D01*
X104062Y438535D01*
X104098Y438438D01*
X104110Y438423D01*
X104118Y438404D01*
X104131Y438388D01*
X104131Y430014D01*
X98226Y424109D01*
X89874Y424109D01*
G37*
%LPD*%
%LPC*%
G36*
X976489Y539749D02*
X976489Y539749D01*
X972754Y541296D01*
X969896Y544154D01*
X968349Y547889D01*
X968349Y567171D01*
X969896Y570906D01*
X970166Y571176D01*
X970208Y571234D01*
X970258Y571286D01*
X970279Y571333D01*
X970310Y571375D01*
X970331Y571444D01*
X970361Y571509D01*
X970367Y571561D01*
X970382Y571611D01*
X970380Y571682D01*
X970388Y571753D01*
X970377Y571804D01*
X970376Y571856D01*
X970351Y571924D01*
X970336Y571994D01*
X970309Y572039D01*
X970291Y572087D01*
X970247Y572143D01*
X970210Y572205D01*
X970170Y572239D01*
X970138Y572279D01*
X970077Y572318D01*
X970023Y572365D01*
X969975Y572384D01*
X969931Y572412D01*
X969861Y572430D01*
X969795Y572457D01*
X969723Y572465D01*
X969692Y572473D01*
X969669Y572471D01*
X969628Y572475D01*
X966514Y572475D01*
X960073Y575143D01*
X955143Y580073D01*
X952475Y586514D01*
X952475Y593486D01*
X955143Y599927D01*
X960073Y604857D01*
X966514Y607525D01*
X973486Y607525D01*
X979927Y604857D01*
X984857Y599927D01*
X987525Y593486D01*
X987525Y586514D01*
X984857Y580073D01*
X981028Y576244D01*
X981001Y576207D01*
X980967Y576176D01*
X980930Y576108D01*
X980884Y576044D01*
X980871Y576001D01*
X980849Y575960D01*
X980835Y575884D01*
X980812Y575809D01*
X980813Y575764D01*
X980805Y575718D01*
X980816Y575641D01*
X980818Y575564D01*
X980834Y575520D01*
X980841Y575475D01*
X980876Y575406D01*
X980903Y575332D01*
X980932Y575297D01*
X980952Y575256D01*
X981008Y575201D01*
X981057Y575140D01*
X981095Y575116D01*
X981128Y575083D01*
X981248Y575018D01*
X981263Y575007D01*
X981268Y575006D01*
X981275Y575003D01*
X984266Y573764D01*
X987124Y570906D01*
X988671Y567171D01*
X988671Y547889D01*
X987124Y544154D01*
X984266Y541296D01*
X980531Y539749D01*
X976489Y539749D01*
G37*
%LPD*%
%LPC*%
G36*
X31049Y104393D02*
X31049Y104393D01*
X27408Y105901D01*
X24621Y108688D01*
X23113Y112329D01*
X23113Y116271D01*
X24621Y119912D01*
X27408Y122699D01*
X31049Y124207D01*
X34991Y124207D01*
X35534Y123982D01*
X35648Y123955D01*
X35761Y123926D01*
X35767Y123927D01*
X35774Y123925D01*
X35890Y123936D01*
X36006Y123945D01*
X36012Y123948D01*
X36018Y123949D01*
X36126Y123997D01*
X36233Y124042D01*
X36238Y124046D01*
X36243Y124048D01*
X36257Y124061D01*
X36364Y124147D01*
X61244Y149027D01*
X61297Y149101D01*
X61357Y149171D01*
X61369Y149201D01*
X61388Y149227D01*
X61415Y149314D01*
X61449Y149399D01*
X61453Y149440D01*
X61460Y149462D01*
X61459Y149494D01*
X61467Y149566D01*
X61467Y150005D01*
X62550Y152619D01*
X64551Y154620D01*
X67165Y155703D01*
X69995Y155703D01*
X72609Y154620D01*
X74610Y152619D01*
X75693Y150005D01*
X75693Y144889D01*
X74610Y142275D01*
X72502Y140167D01*
X41805Y109470D01*
X41767Y109417D01*
X41721Y109370D01*
X41681Y109297D01*
X41662Y109270D01*
X41656Y109252D01*
X41640Y109223D01*
X41419Y108688D01*
X38632Y105901D01*
X34991Y104393D01*
X31049Y104393D01*
G37*
%LPD*%
%LPC*%
G36*
X26514Y572475D02*
X26514Y572475D01*
X20073Y575143D01*
X15143Y580073D01*
X12475Y586514D01*
X12475Y593486D01*
X15143Y599927D01*
X20073Y604857D01*
X26514Y607525D01*
X33486Y607525D01*
X39927Y604857D01*
X44857Y599927D01*
X47525Y593486D01*
X47525Y586514D01*
X44857Y580073D01*
X39927Y575143D01*
X33486Y572475D01*
X26514Y572475D01*
G37*
%LPD*%
%LPC*%
G36*
X936514Y12475D02*
X936514Y12475D01*
X930073Y15143D01*
X925143Y20073D01*
X922475Y26514D01*
X922475Y33486D01*
X925143Y39927D01*
X930073Y44857D01*
X936514Y47525D01*
X943486Y47525D01*
X949927Y44857D01*
X954857Y39927D01*
X957525Y33486D01*
X957525Y26514D01*
X954857Y20073D01*
X949927Y15143D01*
X943486Y12475D01*
X936514Y12475D01*
G37*
%LPD*%
%LPC*%
G36*
X26514Y12475D02*
X26514Y12475D01*
X20073Y15143D01*
X15143Y20073D01*
X12475Y26514D01*
X12475Y33486D01*
X15143Y39927D01*
X20073Y44857D01*
X26514Y47525D01*
X33486Y47525D01*
X39927Y44857D01*
X44857Y39927D01*
X47525Y33486D01*
X47525Y26514D01*
X44857Y20073D01*
X39927Y15143D01*
X33486Y12475D01*
X26514Y12475D01*
G37*
%LPD*%
%LPC*%
G36*
X948469Y306901D02*
X948469Y306901D01*
X944081Y308719D01*
X940723Y312077D01*
X938905Y316465D01*
X938905Y321215D01*
X940723Y325603D01*
X944081Y328961D01*
X948469Y330779D01*
X972015Y330779D01*
X976403Y328961D01*
X979761Y325603D01*
X981579Y321215D01*
X981579Y316465D01*
X979761Y312077D01*
X976403Y308719D01*
X972015Y306901D01*
X948469Y306901D01*
G37*
%LPD*%
%LPC*%
G36*
X948469Y358971D02*
X948469Y358971D01*
X944081Y360789D01*
X940723Y364147D01*
X938905Y368535D01*
X938905Y373285D01*
X940723Y377673D01*
X944081Y381031D01*
X948469Y382849D01*
X972015Y382849D01*
X976403Y381031D01*
X979761Y377673D01*
X981579Y373285D01*
X981579Y368535D01*
X979761Y364147D01*
X976403Y360789D01*
X972015Y358971D01*
X948469Y358971D01*
G37*
%LPD*%
%LPC*%
G36*
X931588Y241089D02*
X931588Y241089D01*
X930099Y242578D01*
X930099Y269682D01*
X931588Y271171D01*
X958692Y271171D01*
X960181Y269682D01*
X960181Y242578D01*
X958692Y241089D01*
X931588Y241089D01*
G37*
%LPD*%
%LPC*%
G36*
X855388Y241089D02*
X855388Y241089D01*
X853899Y242578D01*
X853899Y269682D01*
X855388Y271171D01*
X882492Y271171D01*
X883981Y269682D01*
X883981Y242578D01*
X882492Y241089D01*
X855388Y241089D01*
G37*
%LPD*%
%LPC*%
G36*
X823638Y241089D02*
X823638Y241089D01*
X822149Y242578D01*
X822149Y269682D01*
X823638Y271171D01*
X850742Y271171D01*
X852231Y269682D01*
X852231Y242578D01*
X850742Y241089D01*
X823638Y241089D01*
G37*
%LPD*%
%LPC*%
G36*
X823638Y12489D02*
X823638Y12489D01*
X822149Y13978D01*
X822149Y41082D01*
X823638Y42571D01*
X850742Y42571D01*
X852231Y41082D01*
X852231Y13978D01*
X850742Y12489D01*
X823638Y12489D01*
G37*
%LPD*%
%LPC*%
G36*
X564539Y490219D02*
X564539Y490219D01*
X560804Y491766D01*
X557946Y494624D01*
X556399Y498359D01*
X556399Y517641D01*
X557946Y521376D01*
X560804Y524234D01*
X564539Y525781D01*
X568581Y525781D01*
X572316Y524234D01*
X575174Y521376D01*
X576721Y517641D01*
X576721Y498359D01*
X575174Y494624D01*
X572316Y491766D01*
X568581Y490219D01*
X564539Y490219D01*
G37*
%LPD*%
%LPC*%
G36*
X951089Y539749D02*
X951089Y539749D01*
X947354Y541296D01*
X944496Y544154D01*
X942949Y547889D01*
X942949Y567171D01*
X944496Y570906D01*
X947354Y573764D01*
X951089Y575311D01*
X955131Y575311D01*
X958866Y573764D01*
X961724Y570906D01*
X963271Y567171D01*
X963271Y547889D01*
X961724Y544154D01*
X958866Y541296D01*
X955131Y539749D01*
X951089Y539749D01*
G37*
%LPD*%
%LPC*%
G36*
X589939Y449579D02*
X589939Y449579D01*
X586204Y451126D01*
X583346Y453984D01*
X581799Y457719D01*
X581799Y477001D01*
X583346Y480736D01*
X586204Y483594D01*
X589939Y485141D01*
X593981Y485141D01*
X597716Y483594D01*
X600574Y480736D01*
X602121Y477001D01*
X602121Y457719D01*
X600574Y453984D01*
X597716Y451126D01*
X593981Y449579D01*
X589939Y449579D01*
G37*
%LPD*%
%LPC*%
G36*
X564539Y449579D02*
X564539Y449579D01*
X560804Y451126D01*
X557946Y453984D01*
X556399Y457719D01*
X556399Y477001D01*
X557946Y480736D01*
X560804Y483594D01*
X564539Y485141D01*
X568581Y485141D01*
X572316Y483594D01*
X575174Y480736D01*
X576721Y477001D01*
X576721Y457719D01*
X575174Y453984D01*
X572316Y451126D01*
X568581Y449579D01*
X564539Y449579D01*
G37*
%LPD*%
%LPC*%
G36*
X31049Y282193D02*
X31049Y282193D01*
X27408Y283701D01*
X24621Y286488D01*
X23113Y290129D01*
X23113Y294071D01*
X24621Y297712D01*
X27408Y300499D01*
X31049Y302007D01*
X34991Y302007D01*
X35752Y301691D01*
X35866Y301665D01*
X35979Y301636D01*
X35985Y301637D01*
X35991Y301635D01*
X36108Y301646D01*
X36224Y301655D01*
X36230Y301658D01*
X36236Y301658D01*
X36344Y301706D01*
X36451Y301752D01*
X36456Y301756D01*
X36461Y301758D01*
X36475Y301771D01*
X36582Y301856D01*
X43746Y309021D01*
X43799Y309095D01*
X43859Y309164D01*
X43871Y309195D01*
X43890Y309221D01*
X43917Y309308D01*
X43951Y309393D01*
X43955Y309434D01*
X43962Y309456D01*
X43961Y309488D01*
X43969Y309559D01*
X43969Y312154D01*
X44932Y314478D01*
X46710Y316256D01*
X49034Y317219D01*
X51550Y317219D01*
X53874Y316256D01*
X55652Y314478D01*
X56615Y312154D01*
X56615Y309638D01*
X55652Y307314D01*
X53874Y305536D01*
X51550Y304573D01*
X48955Y304573D01*
X48865Y304559D01*
X48774Y304551D01*
X48745Y304539D01*
X48713Y304534D01*
X48632Y304491D01*
X48548Y304455D01*
X48516Y304429D01*
X48495Y304418D01*
X48473Y304395D01*
X48417Y304350D01*
X41884Y297817D01*
X41816Y297722D01*
X41746Y297628D01*
X41744Y297622D01*
X41740Y297617D01*
X41706Y297506D01*
X41669Y297394D01*
X41670Y297388D01*
X41668Y297382D01*
X41671Y297265D01*
X41672Y297148D01*
X41674Y297141D01*
X41674Y297136D01*
X41680Y297119D01*
X41719Y296987D01*
X42927Y294071D01*
X42927Y290129D01*
X41419Y286488D01*
X38632Y283701D01*
X34991Y282193D01*
X31049Y282193D01*
G37*
%LPD*%
%LPC*%
G36*
X960425Y467761D02*
X960425Y467761D01*
X956037Y469579D01*
X952679Y472937D01*
X950861Y477325D01*
X950861Y482075D01*
X952679Y486463D01*
X956037Y489821D01*
X960425Y491639D01*
X965175Y491639D01*
X969563Y489821D01*
X972921Y486463D01*
X974739Y482075D01*
X974739Y477325D01*
X972921Y472937D01*
X969563Y469579D01*
X965175Y467761D01*
X960425Y467761D01*
G37*
%LPD*%
%LPC*%
G36*
X781945Y570941D02*
X781945Y570941D01*
X777557Y572759D01*
X774199Y576117D01*
X772381Y580505D01*
X772381Y585255D01*
X774199Y589643D01*
X777557Y593001D01*
X781945Y594819D01*
X786695Y594819D01*
X791083Y593001D01*
X794441Y589643D01*
X796259Y585255D01*
X796259Y580505D01*
X794441Y576117D01*
X791083Y572759D01*
X786695Y570941D01*
X781945Y570941D01*
G37*
%LPD*%
%LPC*%
G36*
X807345Y570941D02*
X807345Y570941D01*
X802957Y572759D01*
X799599Y576117D01*
X797781Y580505D01*
X797781Y585255D01*
X799599Y589643D01*
X802957Y593001D01*
X807345Y594819D01*
X812095Y594819D01*
X816483Y593001D01*
X819841Y589643D01*
X821659Y585255D01*
X821659Y580505D01*
X819841Y576117D01*
X816483Y572759D01*
X812095Y570941D01*
X807345Y570941D01*
G37*
%LPD*%
%LPC*%
G36*
X960425Y493161D02*
X960425Y493161D01*
X956037Y494979D01*
X952679Y498337D01*
X950861Y502725D01*
X950861Y507475D01*
X952679Y511863D01*
X956037Y515221D01*
X960425Y517039D01*
X965175Y517039D01*
X969563Y515221D01*
X972921Y511863D01*
X974739Y507475D01*
X974739Y502725D01*
X972921Y498337D01*
X969563Y494979D01*
X965175Y493161D01*
X960425Y493161D01*
G37*
%LPD*%
%LPC*%
G36*
X960425Y442361D02*
X960425Y442361D01*
X956037Y444179D01*
X952679Y447537D01*
X950861Y451925D01*
X950861Y456675D01*
X952679Y461063D01*
X956037Y464421D01*
X960425Y466239D01*
X965175Y466239D01*
X969563Y464421D01*
X972921Y461063D01*
X974739Y456675D01*
X974739Y451925D01*
X972921Y447537D01*
X969563Y444179D01*
X965175Y442361D01*
X960425Y442361D01*
G37*
%LPD*%
%LPC*%
G36*
X191474Y577525D02*
X191474Y577525D01*
X185569Y583430D01*
X185569Y591782D01*
X191474Y597687D01*
X199826Y597687D01*
X205731Y591782D01*
X205731Y583430D01*
X199826Y577525D01*
X191474Y577525D01*
G37*
%LPD*%
%LPC*%
G36*
X166074Y577525D02*
X166074Y577525D01*
X160169Y583430D01*
X160169Y591782D01*
X166074Y597687D01*
X174426Y597687D01*
X180331Y591782D01*
X180331Y583430D01*
X174426Y577525D01*
X166074Y577525D01*
G37*
%LPD*%
%LPC*%
G36*
X216874Y424109D02*
X216874Y424109D01*
X210969Y430014D01*
X210969Y438366D01*
X216874Y444271D01*
X225226Y444271D01*
X231131Y438366D01*
X231131Y430014D01*
X225226Y424109D01*
X216874Y424109D01*
G37*
%LPD*%
%LPC*%
G36*
X242274Y424109D02*
X242274Y424109D01*
X236369Y430014D01*
X236369Y438366D01*
X242274Y444271D01*
X250626Y444271D01*
X256531Y438366D01*
X256531Y430014D01*
X250626Y424109D01*
X242274Y424109D01*
G37*
%LPD*%
%LPC*%
G36*
X267674Y424109D02*
X267674Y424109D01*
X261769Y430014D01*
X261769Y438366D01*
X267674Y444271D01*
X276026Y444271D01*
X281931Y438366D01*
X281931Y430014D01*
X276026Y424109D01*
X267674Y424109D01*
G37*
%LPD*%
%LPC*%
G36*
X293074Y424109D02*
X293074Y424109D01*
X287169Y430014D01*
X287169Y438366D01*
X293074Y444271D01*
X301426Y444271D01*
X307331Y438366D01*
X307331Y430014D01*
X301426Y424109D01*
X293074Y424109D01*
G37*
%LPD*%
%LPC*%
G36*
X64474Y577525D02*
X64474Y577525D01*
X58569Y583430D01*
X58569Y591782D01*
X64474Y597687D01*
X72826Y597687D01*
X78731Y591782D01*
X78731Y583430D01*
X72826Y577525D01*
X64474Y577525D01*
G37*
%LPD*%
%LPC*%
G36*
X115274Y577525D02*
X115274Y577525D01*
X109369Y583430D01*
X109369Y591782D01*
X115274Y597687D01*
X123626Y597687D01*
X129531Y591782D01*
X129531Y583430D01*
X123626Y577525D01*
X115274Y577525D01*
G37*
%LPD*%
%LPC*%
G36*
X140674Y577525D02*
X140674Y577525D01*
X134769Y583430D01*
X134769Y591782D01*
X140674Y597687D01*
X149026Y597687D01*
X154931Y591782D01*
X154931Y583430D01*
X149026Y577525D01*
X140674Y577525D01*
G37*
%LPD*%
%LPC*%
G36*
X369274Y577525D02*
X369274Y577525D01*
X363369Y583430D01*
X363369Y591782D01*
X369274Y597687D01*
X377626Y597687D01*
X383531Y591782D01*
X383531Y583430D01*
X377626Y577525D01*
X369274Y577525D01*
G37*
%LPD*%
%LPC*%
G36*
X89874Y577525D02*
X89874Y577525D01*
X83969Y583430D01*
X83969Y591782D01*
X89874Y597687D01*
X98226Y597687D01*
X104131Y591782D01*
X104131Y583430D01*
X98226Y577525D01*
X89874Y577525D01*
G37*
%LPD*%
%LPC*%
G36*
X420074Y577525D02*
X420074Y577525D01*
X414169Y583430D01*
X414169Y591782D01*
X420074Y597687D01*
X428426Y597687D01*
X434331Y591782D01*
X434331Y583430D01*
X428426Y577525D01*
X420074Y577525D01*
G37*
%LPD*%
%LPC*%
G36*
X318474Y424109D02*
X318474Y424109D01*
X312569Y430014D01*
X312569Y438366D01*
X318474Y444271D01*
X326826Y444271D01*
X332731Y438366D01*
X332731Y430014D01*
X326826Y424109D01*
X318474Y424109D01*
G37*
%LPD*%
%LPC*%
G36*
X343874Y424109D02*
X343874Y424109D01*
X337969Y430014D01*
X337969Y438366D01*
X343874Y444271D01*
X352226Y444271D01*
X358131Y438366D01*
X358131Y430014D01*
X352226Y424109D01*
X343874Y424109D01*
G37*
%LPD*%
%LPC*%
G36*
X369274Y424109D02*
X369274Y424109D01*
X363369Y430014D01*
X363369Y438366D01*
X369274Y444271D01*
X377626Y444271D01*
X383531Y438366D01*
X383531Y430014D01*
X377626Y424109D01*
X369274Y424109D01*
G37*
%LPD*%
%LPC*%
G36*
X420074Y424109D02*
X420074Y424109D01*
X414169Y430014D01*
X414169Y438366D01*
X420074Y444271D01*
X428426Y444271D01*
X434331Y438366D01*
X434331Y430014D01*
X428426Y424109D01*
X420074Y424109D01*
G37*
%LPD*%
%LPC*%
G36*
X191474Y424109D02*
X191474Y424109D01*
X185569Y430014D01*
X185569Y438366D01*
X191474Y444271D01*
X199826Y444271D01*
X205731Y438366D01*
X205731Y430014D01*
X199826Y424109D01*
X191474Y424109D01*
G37*
%LPD*%
%LPC*%
G36*
X166074Y424109D02*
X166074Y424109D01*
X160169Y430014D01*
X160169Y438366D01*
X166074Y444271D01*
X174426Y444271D01*
X180331Y438366D01*
X180331Y430014D01*
X174426Y424109D01*
X166074Y424109D01*
G37*
%LPD*%
%LPC*%
G36*
X140674Y424109D02*
X140674Y424109D01*
X134769Y430014D01*
X134769Y438366D01*
X140674Y444271D01*
X149026Y444271D01*
X154931Y438366D01*
X154931Y430014D01*
X149026Y424109D01*
X140674Y424109D01*
G37*
%LPD*%
%LPC*%
G36*
X394674Y577525D02*
X394674Y577525D01*
X388769Y583430D01*
X388769Y591782D01*
X394674Y597687D01*
X403026Y597687D01*
X408931Y591782D01*
X408931Y583430D01*
X403026Y577525D01*
X394674Y577525D01*
G37*
%LPD*%
%LPC*%
G36*
X267674Y577525D02*
X267674Y577525D01*
X261769Y583430D01*
X261769Y591782D01*
X267674Y597687D01*
X276026Y597687D01*
X281931Y591782D01*
X281931Y583430D01*
X276026Y577525D01*
X267674Y577525D01*
G37*
%LPD*%
%LPC*%
G36*
X64474Y424109D02*
X64474Y424109D01*
X58569Y430014D01*
X58569Y438366D01*
X64474Y444271D01*
X72826Y444271D01*
X78731Y438366D01*
X78731Y430014D01*
X72826Y424109D01*
X64474Y424109D01*
G37*
%LPD*%
%LPC*%
G36*
X318474Y577525D02*
X318474Y577525D01*
X312569Y583430D01*
X312569Y591782D01*
X318474Y597687D01*
X326826Y597687D01*
X332731Y591782D01*
X332731Y583430D01*
X326826Y577525D01*
X318474Y577525D01*
G37*
%LPD*%
%LPC*%
G36*
X115274Y424109D02*
X115274Y424109D01*
X109369Y430014D01*
X109369Y438366D01*
X115274Y444271D01*
X123626Y444271D01*
X129531Y438366D01*
X129531Y430014D01*
X123626Y424109D01*
X115274Y424109D01*
G37*
%LPD*%
%LPC*%
G36*
X242274Y577525D02*
X242274Y577525D01*
X236369Y583430D01*
X236369Y591782D01*
X242274Y597687D01*
X250626Y597687D01*
X256531Y591782D01*
X256531Y583430D01*
X250626Y577525D01*
X242274Y577525D01*
G37*
%LPD*%
%LPC*%
G36*
X293074Y577525D02*
X293074Y577525D01*
X287169Y583430D01*
X287169Y591782D01*
X293074Y597687D01*
X301426Y597687D01*
X307331Y591782D01*
X307331Y583430D01*
X301426Y577525D01*
X293074Y577525D01*
G37*
%LPD*%
%LPC*%
G36*
X216874Y577525D02*
X216874Y577525D01*
X210969Y583430D01*
X210969Y591782D01*
X216874Y597687D01*
X225226Y597687D01*
X231131Y591782D01*
X231131Y583430D01*
X225226Y577525D01*
X216874Y577525D01*
G37*
%LPD*%
%LPC*%
G36*
X31049Y180593D02*
X31049Y180593D01*
X27408Y182101D01*
X24621Y184888D01*
X23113Y188529D01*
X23113Y192471D01*
X24621Y196112D01*
X27408Y198899D01*
X31049Y200407D01*
X34991Y200407D01*
X38632Y198899D01*
X41419Y196112D01*
X42927Y192471D01*
X42927Y188529D01*
X41419Y184888D01*
X38632Y182101D01*
X34991Y180593D01*
X31049Y180593D01*
G37*
%LPD*%
%LPC*%
G36*
X31049Y129793D02*
X31049Y129793D01*
X27408Y131301D01*
X24621Y134088D01*
X23113Y137729D01*
X23113Y141671D01*
X24621Y145312D01*
X27408Y148099D01*
X31049Y149607D01*
X34991Y149607D01*
X38632Y148099D01*
X41419Y145312D01*
X42927Y141671D01*
X42927Y137729D01*
X41419Y134088D01*
X38632Y131301D01*
X34991Y129793D01*
X31049Y129793D01*
G37*
%LPD*%
%LPC*%
G36*
X31049Y256793D02*
X31049Y256793D01*
X27408Y258301D01*
X24621Y261088D01*
X23113Y264729D01*
X23113Y268671D01*
X24621Y272312D01*
X27408Y275099D01*
X31049Y276607D01*
X34991Y276607D01*
X38632Y275099D01*
X41419Y272312D01*
X42927Y268671D01*
X42927Y264729D01*
X41419Y261088D01*
X38632Y258301D01*
X34991Y256793D01*
X31049Y256793D01*
G37*
%LPD*%
%LPC*%
G36*
X494028Y557972D02*
X494028Y557972D01*
X490644Y559374D01*
X488054Y561964D01*
X486652Y565348D01*
X486652Y569012D01*
X488054Y572396D01*
X490644Y574986D01*
X494028Y576388D01*
X497692Y576388D01*
X501076Y574986D01*
X503666Y572396D01*
X505068Y569012D01*
X505068Y565348D01*
X503666Y561964D01*
X501076Y559374D01*
X497692Y557972D01*
X494028Y557972D01*
G37*
%LPD*%
%LPC*%
G36*
X978413Y257653D02*
X978413Y257653D01*
X978413Y271171D01*
X989724Y271171D01*
X990371Y270998D01*
X990950Y270663D01*
X991423Y270190D01*
X991758Y269611D01*
X991931Y268964D01*
X991931Y257653D01*
X978413Y257653D01*
G37*
%LPD*%
%LPC*%
G36*
X978413Y29053D02*
X978413Y29053D01*
X978413Y42571D01*
X989724Y42571D01*
X990371Y42398D01*
X990950Y42063D01*
X991423Y41590D01*
X991758Y41011D01*
X991931Y40364D01*
X991931Y29053D01*
X978413Y29053D01*
G37*
%LPD*%
%LPC*%
G36*
X961849Y257653D02*
X961849Y257653D01*
X961849Y268964D01*
X962022Y269611D01*
X962357Y270190D01*
X962830Y270663D01*
X963409Y270998D01*
X964056Y271171D01*
X975367Y271171D01*
X975367Y257653D01*
X961849Y257653D01*
G37*
%LPD*%
%LPC*%
G36*
X961849Y29053D02*
X961849Y29053D01*
X961849Y40364D01*
X962022Y41011D01*
X962357Y41590D01*
X962830Y42063D01*
X963409Y42398D01*
X964056Y42571D01*
X975367Y42571D01*
X975367Y29053D01*
X961849Y29053D01*
G37*
%LPD*%
%LPC*%
G36*
X978413Y241089D02*
X978413Y241089D01*
X978413Y254607D01*
X991931Y254607D01*
X991931Y243296D01*
X991758Y242649D01*
X991423Y242070D01*
X990950Y241597D01*
X990371Y241262D01*
X989724Y241089D01*
X978413Y241089D01*
G37*
%LPD*%
%LPC*%
G36*
X978413Y12489D02*
X978413Y12489D01*
X978413Y26007D01*
X991931Y26007D01*
X991931Y14696D01*
X991758Y14049D01*
X991423Y13470D01*
X990950Y12997D01*
X990371Y12662D01*
X989724Y12489D01*
X978413Y12489D01*
G37*
%LPD*%
%LPC*%
G36*
X964056Y241089D02*
X964056Y241089D01*
X963409Y241262D01*
X962830Y241597D01*
X962357Y242070D01*
X962022Y242649D01*
X961849Y243296D01*
X961849Y254607D01*
X975367Y254607D01*
X975367Y241089D01*
X964056Y241089D01*
G37*
%LPD*%
%LPC*%
G36*
X964056Y12489D02*
X964056Y12489D01*
X963409Y12662D01*
X962830Y12997D01*
X962357Y13470D01*
X962022Y14049D01*
X961849Y14696D01*
X961849Y26007D01*
X975367Y26007D01*
X975367Y12489D01*
X964056Y12489D01*
G37*
%LPD*%
%LPC*%
G36*
X568083Y428243D02*
X568083Y428243D01*
X568083Y444386D01*
X568939Y444251D01*
X570460Y443756D01*
X571885Y443030D01*
X573179Y442090D01*
X574310Y440959D01*
X575250Y439665D01*
X575976Y438240D01*
X576471Y436719D01*
X576721Y435140D01*
X576721Y428243D01*
X568083Y428243D01*
G37*
%LPD*%
%LPC*%
G36*
X593483Y428243D02*
X593483Y428243D01*
X593483Y444386D01*
X594339Y444251D01*
X595860Y443756D01*
X597285Y443030D01*
X598579Y442090D01*
X599710Y440959D01*
X600650Y439665D01*
X601376Y438240D01*
X601871Y436719D01*
X602121Y435140D01*
X602121Y428243D01*
X593483Y428243D01*
G37*
%LPD*%
%LPC*%
G36*
X593483Y425197D02*
X593483Y425197D01*
X602121Y425197D01*
X602121Y418300D01*
X601871Y416721D01*
X601376Y415200D01*
X600650Y413775D01*
X599710Y412481D01*
X598579Y411350D01*
X597285Y410410D01*
X595860Y409684D01*
X594339Y409189D01*
X593483Y409054D01*
X593483Y425197D01*
G37*
%LPD*%
%LPC*%
G36*
X568083Y425197D02*
X568083Y425197D01*
X576721Y425197D01*
X576721Y418300D01*
X576471Y416721D01*
X575976Y415200D01*
X575250Y413775D01*
X574310Y412481D01*
X573179Y411350D01*
X571885Y410410D01*
X570460Y409684D01*
X568939Y409189D01*
X568083Y409054D01*
X568083Y425197D01*
G37*
%LPD*%
%LPC*%
G36*
X581799Y428243D02*
X581799Y428243D01*
X581799Y435140D01*
X582049Y436719D01*
X582544Y438240D01*
X583270Y439665D01*
X584210Y440959D01*
X585341Y442090D01*
X586635Y443030D01*
X588060Y443756D01*
X589581Y444251D01*
X590437Y444386D01*
X590437Y428243D01*
X581799Y428243D01*
G37*
%LPD*%
%LPC*%
G36*
X556399Y428243D02*
X556399Y428243D01*
X556399Y435140D01*
X556649Y436719D01*
X557144Y438240D01*
X557870Y439665D01*
X558810Y440959D01*
X559941Y442090D01*
X561235Y443030D01*
X562660Y443756D01*
X564181Y444251D01*
X565037Y444386D01*
X565037Y428243D01*
X556399Y428243D01*
G37*
%LPD*%
%LPC*%
G36*
X589581Y409189D02*
X589581Y409189D01*
X588060Y409684D01*
X586635Y410410D01*
X585341Y411350D01*
X584210Y412481D01*
X583270Y413775D01*
X582544Y415200D01*
X582049Y416721D01*
X581799Y418300D01*
X581799Y425197D01*
X590437Y425197D01*
X590437Y409054D01*
X589581Y409189D01*
G37*
%LPD*%
%LPC*%
G36*
X564181Y409189D02*
X564181Y409189D01*
X562660Y409684D01*
X561235Y410410D01*
X559941Y411350D01*
X558810Y412481D01*
X557870Y413775D01*
X557144Y415200D01*
X556649Y416721D01*
X556399Y418300D01*
X556399Y425197D01*
X565037Y425197D01*
X565037Y409054D01*
X564181Y409189D01*
G37*
%LPD*%
%LPC*%
G36*
X760443Y584403D02*
X760443Y584403D01*
X760443Y594726D01*
X761716Y594525D01*
X763503Y593944D01*
X765177Y593091D01*
X766698Y591986D01*
X768026Y590658D01*
X769131Y589137D01*
X769984Y587463D01*
X770565Y585676D01*
X770766Y584403D01*
X760443Y584403D01*
G37*
%LPD*%
%LPC*%
G36*
X747074Y584403D02*
X747074Y584403D01*
X747275Y585676D01*
X747856Y587463D01*
X748709Y589137D01*
X749814Y590658D01*
X751142Y591986D01*
X752663Y593091D01*
X754337Y593944D01*
X756124Y594525D01*
X757397Y594726D01*
X757397Y584403D01*
X747074Y584403D01*
G37*
%LPD*%
%LPC*%
G36*
X760443Y581357D02*
X760443Y581357D01*
X770766Y581357D01*
X770565Y580084D01*
X769984Y578297D01*
X769131Y576623D01*
X768026Y575102D01*
X766698Y573774D01*
X765177Y572669D01*
X763503Y571816D01*
X761716Y571235D01*
X760443Y571034D01*
X760443Y581357D01*
G37*
%LPD*%
%LPC*%
G36*
X756124Y571235D02*
X756124Y571235D01*
X754337Y571816D01*
X752663Y572669D01*
X751142Y573774D01*
X749814Y575102D01*
X748709Y576623D01*
X747856Y578297D01*
X747275Y580084D01*
X747074Y581357D01*
X757397Y581357D01*
X757397Y571034D01*
X756124Y571235D01*
G37*
%LPD*%
%LPC*%
G36*
X349573Y589129D02*
X349573Y589129D01*
X349573Y597687D01*
X352226Y597687D01*
X358131Y591782D01*
X358131Y589129D01*
X349573Y589129D01*
G37*
%LPD*%
%LPC*%
G36*
X400373Y435713D02*
X400373Y435713D01*
X400373Y444271D01*
X403026Y444271D01*
X408931Y438366D01*
X408931Y435713D01*
X400373Y435713D01*
G37*
%LPD*%
%LPC*%
G36*
X400373Y432667D02*
X400373Y432667D01*
X408931Y432667D01*
X408931Y430014D01*
X403026Y424109D01*
X400373Y424109D01*
X400373Y432667D01*
G37*
%LPD*%
%LPC*%
G36*
X349573Y577525D02*
X349573Y577525D01*
X349573Y586083D01*
X358131Y586083D01*
X358131Y583430D01*
X352226Y577525D01*
X349573Y577525D01*
G37*
%LPD*%
%LPC*%
G36*
X337969Y589129D02*
X337969Y589129D01*
X337969Y591782D01*
X343874Y597687D01*
X346527Y597687D01*
X346527Y589129D01*
X337969Y589129D01*
G37*
%LPD*%
%LPC*%
G36*
X388769Y435713D02*
X388769Y435713D01*
X388769Y438366D01*
X394674Y444271D01*
X397327Y444271D01*
X397327Y435713D01*
X388769Y435713D01*
G37*
%LPD*%
%LPC*%
G36*
X343874Y577525D02*
X343874Y577525D01*
X337969Y583430D01*
X337969Y586083D01*
X346527Y586083D01*
X346527Y577525D01*
X343874Y577525D01*
G37*
%LPD*%
%LPC*%
G36*
X394674Y424109D02*
X394674Y424109D01*
X388769Y430014D01*
X388769Y432667D01*
X397327Y432667D01*
X397327Y424109D01*
X394674Y424109D01*
G37*
%LPD*%
%LPC*%
G36*
X34543Y166623D02*
X34543Y166623D01*
X34543Y174889D01*
X35340Y174763D01*
X36823Y174281D01*
X38212Y173573D01*
X39474Y172656D01*
X40576Y171554D01*
X41493Y170292D01*
X42201Y168903D01*
X42683Y167420D01*
X42809Y166623D01*
X34543Y166623D01*
G37*
%LPD*%
%LPC*%
G36*
X23231Y166623D02*
X23231Y166623D01*
X23357Y167420D01*
X23839Y168903D01*
X24547Y170292D01*
X25464Y171554D01*
X26566Y172656D01*
X27828Y173573D01*
X29217Y174281D01*
X30700Y174763D01*
X31497Y174889D01*
X31497Y166623D01*
X23231Y166623D01*
G37*
%LPD*%
%LPC*%
G36*
X34543Y163577D02*
X34543Y163577D01*
X42809Y163577D01*
X42683Y162780D01*
X42201Y161297D01*
X41493Y159908D01*
X40576Y158646D01*
X39474Y157544D01*
X38212Y156627D01*
X36823Y155919D01*
X35340Y155437D01*
X34543Y155311D01*
X34543Y163577D01*
G37*
%LPD*%
%LPC*%
G36*
X30700Y155437D02*
X30700Y155437D01*
X29217Y155919D01*
X27828Y156627D01*
X26566Y157544D01*
X25464Y158646D01*
X24547Y159908D01*
X23839Y161297D01*
X23357Y162780D01*
X23231Y163577D01*
X31497Y163577D01*
X31497Y155311D01*
X30700Y155437D01*
G37*
%LPD*%
%LPC*%
G36*
X348049Y587605D02*
X348049Y587605D01*
X348049Y587607D01*
X348051Y587607D01*
X348051Y587605D01*
X348049Y587605D01*
G37*
%LPD*%
%LPC*%
G36*
X976889Y256129D02*
X976889Y256129D01*
X976889Y256131D01*
X976891Y256131D01*
X976891Y256129D01*
X976889Y256129D01*
G37*
%LPD*%
%LPC*%
G36*
X33019Y165099D02*
X33019Y165099D01*
X33019Y165101D01*
X33021Y165101D01*
X33021Y165099D01*
X33019Y165099D01*
G37*
%LPD*%
%LPC*%
G36*
X758919Y582879D02*
X758919Y582879D01*
X758919Y582881D01*
X758921Y582881D01*
X758921Y582879D01*
X758919Y582879D01*
G37*
%LPD*%
%LPC*%
G36*
X398849Y434189D02*
X398849Y434189D01*
X398849Y434191D01*
X398851Y434191D01*
X398851Y434189D01*
X398849Y434189D01*
G37*
%LPD*%
%LPC*%
G36*
X591959Y426719D02*
X591959Y426719D01*
X591959Y426721D01*
X591961Y426721D01*
X591961Y426719D01*
X591959Y426719D01*
G37*
%LPD*%
%LPC*%
G36*
X976889Y27529D02*
X976889Y27529D01*
X976889Y27531D01*
X976891Y27531D01*
X976891Y27529D01*
X976889Y27529D01*
G37*
%LPD*%
%LPC*%
G36*
X566559Y426719D02*
X566559Y426719D01*
X566559Y426721D01*
X566561Y426721D01*
X566561Y426719D01*
X566559Y426719D01*
G37*
%LPD*%
D10*
X591960Y515620D02*
X591960Y500380D01*
X566560Y500380D02*
X566560Y515620D01*
X978510Y549910D02*
X978510Y565150D01*
X953110Y565150D02*
X953110Y549910D01*
X591960Y434340D02*
X591960Y419100D01*
X566560Y419100D02*
X566560Y434340D01*
X591960Y459740D02*
X591960Y474980D01*
X566560Y474980D02*
X566560Y459740D01*
D11*
X33020Y114300D03*
X33020Y139700D03*
X33020Y165100D03*
X33020Y190500D03*
X33020Y215900D03*
X33020Y241300D03*
X33020Y266700D03*
X33020Y292100D03*
D12*
X837190Y27530D03*
X976890Y27530D03*
X868940Y256130D03*
X945140Y256130D03*
X837190Y256130D03*
X976890Y256130D03*
D13*
X962800Y454300D03*
X962800Y479700D03*
X962800Y505100D03*
D14*
X424250Y587606D03*
X398850Y587606D03*
X373450Y587606D03*
X348050Y587606D03*
X322650Y587606D03*
X297250Y587606D03*
X271850Y587606D03*
X246450Y587606D03*
X221050Y587606D03*
X195650Y587606D03*
X170250Y587606D03*
X144850Y587606D03*
X424250Y434190D03*
X398850Y434190D03*
X373450Y434190D03*
X221050Y434190D03*
X195650Y434190D03*
X170250Y434190D03*
X144850Y434190D03*
X68650Y434190D03*
X68650Y587606D03*
X94050Y587606D03*
X119450Y587606D03*
D15*
X94050Y434190D03*
X119450Y434190D03*
D14*
X348050Y434190D03*
D15*
X246450Y434190D03*
X271850Y434190D03*
X297250Y434190D03*
X322650Y434190D03*
D13*
X809720Y582880D03*
X784320Y582880D03*
X758920Y582880D03*
X733520Y582880D03*
D16*
X950844Y370910D02*
X969640Y370910D01*
X969640Y318840D02*
X950844Y318840D01*
D17*
X552622Y567180D03*
D18*
X396240Y533400D03*
X55880Y553720D03*
X25400Y563880D03*
X86360Y121920D03*
X985520Y50800D03*
X970280Y50800D03*
X985520Y233680D03*
X982980Y281940D03*
X721360Y452120D03*
X640080Y421640D03*
X731520Y530860D03*
X690880Y568960D03*
X208280Y508000D03*
D19*
X730758Y582168D02*
X733044Y582168D01*
X730758Y582168D02*
X658368Y509778D01*
X593598Y509778D01*
X592074Y508254D01*
X733044Y582168D02*
X733520Y582880D01*
X592074Y508254D02*
X591960Y508000D01*
X36576Y114300D02*
X33020Y114300D01*
X36576Y114300D02*
X68580Y146304D01*
X68580Y148590D01*
X249936Y453390D02*
X259080Y462534D01*
X249936Y453390D02*
X108204Y453390D01*
X97536Y442722D01*
X97536Y441960D01*
X96774Y441198D01*
X96774Y439674D01*
X94488Y437388D01*
X94488Y434340D01*
X94050Y434190D01*
D20*
X68580Y148590D03*
X259080Y462534D03*
D21*
X32766Y243840D02*
X32766Y241554D01*
X32766Y243840D02*
X17526Y259080D01*
X17526Y310896D01*
X32766Y241554D02*
X33020Y241300D01*
D20*
X17526Y310896D03*
X8382Y310896D03*
D21*
X8382Y240538D02*
X33020Y215900D01*
X8382Y240538D02*
X8382Y310896D01*
X33528Y294132D02*
X33528Y292608D01*
X33528Y294132D02*
X50292Y310896D01*
X33528Y292608D02*
X33020Y292100D01*
D20*
X50292Y310896D03*
D22*
X495860Y567180D03*
M02*
