G04 EAGLE Gerber RS-274X export*
G75*
%MOMM*%
%FSLAX34Y34*%
%LPD*%
%INTop Copper*%
%IPPOS*%
%AMOC8*
5,1,8,0,0,1.08239X$1,22.5*%
G01*
%ADD10C,1.524000*%
%ADD11C,1.473200*%
%ADD12R,2.500000X2.500000*%
%ADD13C,1.879600*%
%ADD14P,1.632244X8X112.500000*%
%ADD15P,1.632244X8X292.500000*%
%ADD16R,1.300000X0.550000*%
%ADD17R,1.500000X1.300000*%
%ADD18R,1.000000X2.500000*%
%ADD19C,0.406400*%
%ADD20R,2.000000X1.000000*%
%ADD21R,1.000000X2.000000*%
%ADD22C,1.879600*%
%ADD23R,1.333500X1.333500*%
%ADD24P,0.818720X8X22.500000*%
%ADD25C,0.914400*%
%ADD26C,0.756400*%
%ADD27C,0.152400*%
%ADD28C,0.508000*%
%ADD29C,1.333500*%

G36*
X980022Y2290D02*
X980022Y2290D01*
X980060Y2289D01*
X982712Y2498D01*
X982717Y2499D01*
X982723Y2499D01*
X982887Y2533D01*
X987931Y4172D01*
X987963Y4188D01*
X987998Y4197D01*
X988143Y4280D01*
X992434Y7397D01*
X992460Y7423D01*
X992490Y7442D01*
X992603Y7566D01*
X995720Y11857D01*
X995736Y11888D01*
X995759Y11916D01*
X995828Y12069D01*
X997467Y17113D01*
X997468Y17119D01*
X997471Y17124D01*
X997502Y17288D01*
X997711Y19940D01*
X997709Y19962D01*
X997713Y20000D01*
X997713Y600000D01*
X997710Y600022D01*
X997711Y600060D01*
X997502Y602712D01*
X997501Y602717D01*
X997501Y602723D01*
X997467Y602887D01*
X995828Y607931D01*
X995812Y607963D01*
X995803Y607998D01*
X995720Y608143D01*
X992603Y612434D01*
X992577Y612460D01*
X992558Y612490D01*
X992434Y612603D01*
X988143Y615720D01*
X988121Y615732D01*
X988107Y615744D01*
X988099Y615747D01*
X988084Y615759D01*
X987931Y615828D01*
X982887Y617467D01*
X982881Y617468D01*
X982876Y617471D01*
X982712Y617502D01*
X980060Y617711D01*
X980038Y617709D01*
X980000Y617713D01*
X432288Y617713D01*
X432217Y617702D01*
X432145Y617700D01*
X432096Y617682D01*
X432045Y617674D01*
X431982Y617640D01*
X431914Y617615D01*
X431873Y617583D01*
X431828Y617558D01*
X431778Y617507D01*
X431722Y617462D01*
X431694Y617418D01*
X431658Y617380D01*
X431628Y617315D01*
X431589Y617255D01*
X431576Y617204D01*
X431555Y617157D01*
X431547Y617086D01*
X431529Y617016D01*
X431533Y616964D01*
X431527Y616913D01*
X431543Y616842D01*
X431548Y616771D01*
X431569Y616723D01*
X431580Y616672D01*
X431617Y616611D01*
X431645Y616545D01*
X431689Y616489D01*
X431706Y616461D01*
X431721Y616448D01*
X431721Y594707D01*
X431735Y594617D01*
X431743Y594526D01*
X431755Y594496D01*
X431760Y594464D01*
X431803Y594383D01*
X431839Y594300D01*
X431865Y594267D01*
X431876Y594247D01*
X431899Y594225D01*
X431944Y594169D01*
X434331Y591782D01*
X434331Y583430D01*
X428426Y577525D01*
X420074Y577525D01*
X414169Y583430D01*
X414169Y591782D01*
X416416Y594029D01*
X416462Y594093D01*
X416480Y594111D01*
X416484Y594119D01*
X416529Y594172D01*
X416541Y594202D01*
X416560Y594228D01*
X416587Y594315D01*
X416621Y594400D01*
X416625Y594441D01*
X416632Y594463D01*
X416631Y594496D01*
X416639Y594567D01*
X416639Y616454D01*
X416653Y616472D01*
X416702Y616524D01*
X416724Y616571D01*
X416754Y616613D01*
X416775Y616682D01*
X416805Y616747D01*
X416811Y616799D01*
X416827Y616848D01*
X416825Y616920D01*
X416833Y616991D01*
X416821Y617042D01*
X416820Y617094D01*
X416796Y617162D01*
X416780Y617232D01*
X416754Y617277D01*
X416736Y617325D01*
X416691Y617381D01*
X416654Y617443D01*
X416615Y617477D01*
X416582Y617517D01*
X416522Y617556D01*
X416467Y617603D01*
X416419Y617622D01*
X416375Y617650D01*
X416306Y617668D01*
X416239Y617695D01*
X416168Y617703D01*
X416137Y617711D01*
X416113Y617709D01*
X416072Y617713D01*
X381488Y617713D01*
X381417Y617702D01*
X381345Y617700D01*
X381296Y617682D01*
X381245Y617674D01*
X381182Y617640D01*
X381114Y617615D01*
X381073Y617583D01*
X381028Y617558D01*
X380978Y617507D01*
X380922Y617462D01*
X380894Y617418D01*
X380858Y617380D01*
X380828Y617315D01*
X380789Y617255D01*
X380776Y617204D01*
X380755Y617157D01*
X380747Y617086D01*
X380729Y617016D01*
X380733Y616964D01*
X380727Y616913D01*
X380743Y616842D01*
X380748Y616771D01*
X380769Y616723D01*
X380780Y616672D01*
X380817Y616611D01*
X380845Y616545D01*
X380889Y616489D01*
X380906Y616461D01*
X380921Y616448D01*
X380921Y594707D01*
X380935Y594617D01*
X380943Y594526D01*
X380955Y594496D01*
X380960Y594464D01*
X381003Y594383D01*
X381039Y594300D01*
X381065Y594267D01*
X381076Y594247D01*
X381099Y594225D01*
X381144Y594169D01*
X383531Y591782D01*
X383531Y583430D01*
X377626Y577525D01*
X369274Y577525D01*
X363369Y583430D01*
X363369Y591782D01*
X365616Y594029D01*
X365662Y594093D01*
X365680Y594111D01*
X365684Y594119D01*
X365729Y594172D01*
X365741Y594202D01*
X365760Y594228D01*
X365787Y594315D01*
X365821Y594400D01*
X365825Y594441D01*
X365832Y594463D01*
X365831Y594496D01*
X365839Y594567D01*
X365839Y616454D01*
X365853Y616472D01*
X365902Y616524D01*
X365924Y616571D01*
X365954Y616613D01*
X365975Y616682D01*
X366005Y616747D01*
X366011Y616799D01*
X366027Y616848D01*
X366025Y616920D01*
X366033Y616991D01*
X366021Y617042D01*
X366020Y617094D01*
X365996Y617162D01*
X365980Y617232D01*
X365954Y617277D01*
X365936Y617325D01*
X365891Y617381D01*
X365854Y617443D01*
X365815Y617477D01*
X365782Y617517D01*
X365722Y617556D01*
X365667Y617603D01*
X365619Y617622D01*
X365575Y617650D01*
X365506Y617668D01*
X365439Y617695D01*
X365368Y617703D01*
X365337Y617711D01*
X365313Y617709D01*
X365272Y617713D01*
X330688Y617713D01*
X330617Y617702D01*
X330545Y617700D01*
X330496Y617682D01*
X330445Y617674D01*
X330382Y617640D01*
X330314Y617615D01*
X330273Y617583D01*
X330228Y617558D01*
X330178Y617507D01*
X330122Y617462D01*
X330094Y617418D01*
X330058Y617380D01*
X330028Y617315D01*
X329989Y617255D01*
X329976Y617204D01*
X329955Y617157D01*
X329947Y617086D01*
X329929Y617016D01*
X329933Y616964D01*
X329927Y616913D01*
X329943Y616842D01*
X329948Y616771D01*
X329969Y616723D01*
X329980Y616672D01*
X330017Y616611D01*
X330045Y616545D01*
X330089Y616489D01*
X330106Y616461D01*
X330121Y616448D01*
X330121Y594707D01*
X330135Y594617D01*
X330143Y594526D01*
X330155Y594496D01*
X330160Y594464D01*
X330203Y594383D01*
X330239Y594300D01*
X330265Y594267D01*
X330276Y594247D01*
X330299Y594225D01*
X330344Y594169D01*
X332731Y591782D01*
X332731Y583430D01*
X326826Y577525D01*
X318474Y577525D01*
X312569Y583430D01*
X312569Y591782D01*
X314816Y594029D01*
X314862Y594093D01*
X314880Y594111D01*
X314883Y594119D01*
X314929Y594172D01*
X314941Y594202D01*
X314960Y594228D01*
X314987Y594315D01*
X315021Y594400D01*
X315025Y594441D01*
X315032Y594463D01*
X315031Y594496D01*
X315039Y594567D01*
X315039Y616454D01*
X315053Y616472D01*
X315102Y616524D01*
X315124Y616571D01*
X315154Y616613D01*
X315175Y616682D01*
X315205Y616747D01*
X315211Y616799D01*
X315227Y616848D01*
X315225Y616920D01*
X315233Y616991D01*
X315221Y617042D01*
X315220Y617094D01*
X315196Y617162D01*
X315180Y617232D01*
X315154Y617277D01*
X315136Y617325D01*
X315091Y617381D01*
X315054Y617443D01*
X315015Y617477D01*
X314982Y617517D01*
X314922Y617556D01*
X314867Y617603D01*
X314819Y617622D01*
X314775Y617650D01*
X314706Y617668D01*
X314639Y617695D01*
X314568Y617703D01*
X314537Y617711D01*
X314513Y617709D01*
X314472Y617713D01*
X279888Y617713D01*
X279817Y617702D01*
X279745Y617700D01*
X279696Y617682D01*
X279645Y617674D01*
X279582Y617640D01*
X279514Y617615D01*
X279473Y617583D01*
X279428Y617558D01*
X279378Y617507D01*
X279322Y617462D01*
X279294Y617418D01*
X279258Y617380D01*
X279228Y617315D01*
X279189Y617255D01*
X279176Y617204D01*
X279155Y617157D01*
X279147Y617086D01*
X279129Y617016D01*
X279133Y616964D01*
X279127Y616913D01*
X279143Y616842D01*
X279148Y616771D01*
X279169Y616723D01*
X279180Y616672D01*
X279217Y616611D01*
X279245Y616545D01*
X279289Y616489D01*
X279306Y616461D01*
X279321Y616448D01*
X279321Y594707D01*
X279335Y594617D01*
X279343Y594526D01*
X279355Y594496D01*
X279360Y594464D01*
X279403Y594383D01*
X279439Y594300D01*
X279465Y594267D01*
X279476Y594247D01*
X279499Y594225D01*
X279544Y594169D01*
X281931Y591782D01*
X281931Y583430D01*
X276026Y577525D01*
X267674Y577525D01*
X261769Y583430D01*
X261769Y591782D01*
X264016Y594029D01*
X264062Y594093D01*
X264080Y594111D01*
X264083Y594119D01*
X264129Y594172D01*
X264141Y594202D01*
X264160Y594228D01*
X264187Y594315D01*
X264221Y594400D01*
X264225Y594441D01*
X264232Y594463D01*
X264231Y594496D01*
X264239Y594567D01*
X264239Y616454D01*
X264253Y616472D01*
X264302Y616524D01*
X264324Y616571D01*
X264354Y616613D01*
X264375Y616682D01*
X264405Y616747D01*
X264411Y616799D01*
X264427Y616848D01*
X264425Y616920D01*
X264433Y616991D01*
X264421Y617042D01*
X264420Y617094D01*
X264396Y617162D01*
X264380Y617232D01*
X264354Y617277D01*
X264336Y617325D01*
X264291Y617381D01*
X264254Y617443D01*
X264215Y617477D01*
X264182Y617517D01*
X264122Y617556D01*
X264067Y617603D01*
X264019Y617622D01*
X263975Y617650D01*
X263906Y617668D01*
X263839Y617695D01*
X263768Y617703D01*
X263737Y617711D01*
X263713Y617709D01*
X263672Y617713D01*
X229088Y617713D01*
X229017Y617702D01*
X228945Y617700D01*
X228896Y617682D01*
X228845Y617674D01*
X228782Y617640D01*
X228714Y617615D01*
X228673Y617583D01*
X228628Y617558D01*
X228578Y617507D01*
X228522Y617462D01*
X228494Y617418D01*
X228458Y617380D01*
X228428Y617315D01*
X228389Y617255D01*
X228376Y617204D01*
X228355Y617157D01*
X228347Y617086D01*
X228329Y617016D01*
X228333Y616964D01*
X228327Y616913D01*
X228343Y616842D01*
X228348Y616771D01*
X228369Y616723D01*
X228380Y616672D01*
X228417Y616611D01*
X228445Y616545D01*
X228489Y616489D01*
X228506Y616461D01*
X228521Y616448D01*
X228521Y594707D01*
X228535Y594617D01*
X228543Y594526D01*
X228555Y594496D01*
X228560Y594464D01*
X228603Y594383D01*
X228639Y594300D01*
X228665Y594267D01*
X228676Y594247D01*
X228699Y594225D01*
X228744Y594169D01*
X231131Y591782D01*
X231131Y583430D01*
X225226Y577525D01*
X216874Y577525D01*
X210969Y583430D01*
X210969Y591782D01*
X213216Y594029D01*
X213262Y594093D01*
X213280Y594111D01*
X213283Y594119D01*
X213329Y594172D01*
X213341Y594202D01*
X213360Y594228D01*
X213387Y594315D01*
X213421Y594400D01*
X213425Y594441D01*
X213432Y594463D01*
X213431Y594496D01*
X213439Y594567D01*
X213439Y616454D01*
X213453Y616472D01*
X213502Y616524D01*
X213524Y616571D01*
X213554Y616613D01*
X213575Y616682D01*
X213605Y616747D01*
X213611Y616799D01*
X213627Y616848D01*
X213625Y616920D01*
X213633Y616991D01*
X213621Y617042D01*
X213620Y617094D01*
X213596Y617162D01*
X213580Y617232D01*
X213554Y617277D01*
X213536Y617325D01*
X213491Y617381D01*
X213454Y617443D01*
X213415Y617477D01*
X213382Y617517D01*
X213322Y617556D01*
X213267Y617603D01*
X213219Y617622D01*
X213175Y617650D01*
X213106Y617668D01*
X213039Y617695D01*
X212968Y617703D01*
X212937Y617711D01*
X212913Y617709D01*
X212872Y617713D01*
X178288Y617713D01*
X178217Y617702D01*
X178145Y617700D01*
X178096Y617682D01*
X178045Y617674D01*
X177982Y617640D01*
X177914Y617615D01*
X177873Y617583D01*
X177828Y617558D01*
X177778Y617507D01*
X177722Y617462D01*
X177694Y617418D01*
X177658Y617380D01*
X177628Y617315D01*
X177589Y617255D01*
X177576Y617204D01*
X177555Y617157D01*
X177547Y617086D01*
X177529Y617016D01*
X177533Y616964D01*
X177527Y616913D01*
X177543Y616842D01*
X177548Y616771D01*
X177569Y616723D01*
X177580Y616672D01*
X177617Y616611D01*
X177645Y616545D01*
X177689Y616489D01*
X177706Y616461D01*
X177721Y616448D01*
X177721Y594707D01*
X177735Y594617D01*
X177743Y594526D01*
X177755Y594496D01*
X177760Y594464D01*
X177803Y594383D01*
X177839Y594300D01*
X177865Y594267D01*
X177876Y594247D01*
X177899Y594225D01*
X177944Y594169D01*
X180331Y591782D01*
X180331Y583430D01*
X174704Y577804D01*
X174692Y577787D01*
X174677Y577775D01*
X174621Y577688D01*
X174560Y577604D01*
X174554Y577585D01*
X174544Y577568D01*
X174518Y577468D01*
X174488Y577369D01*
X174488Y577349D01*
X174484Y577329D01*
X174492Y577226D01*
X174494Y577123D01*
X174501Y577104D01*
X174503Y577084D01*
X174543Y576989D01*
X174579Y576892D01*
X174591Y576876D01*
X174599Y576858D01*
X174704Y576727D01*
X186740Y564691D01*
X186798Y564649D01*
X186850Y564600D01*
X186897Y564578D01*
X186939Y564547D01*
X187008Y564526D01*
X187073Y564496D01*
X187125Y564490D01*
X187175Y564475D01*
X187246Y564477D01*
X187317Y564469D01*
X187368Y564480D01*
X187420Y564481D01*
X187488Y564506D01*
X187558Y564521D01*
X187602Y564548D01*
X187651Y564566D01*
X187707Y564611D01*
X187769Y564648D01*
X187803Y564687D01*
X187843Y564720D01*
X187882Y564780D01*
X187929Y564834D01*
X187948Y564883D01*
X187976Y564927D01*
X187994Y564996D01*
X188021Y565063D01*
X188029Y565134D01*
X188037Y565165D01*
X188035Y565188D01*
X188039Y565229D01*
X188039Y580645D01*
X188025Y580735D01*
X188017Y580826D01*
X188005Y580856D01*
X188000Y580888D01*
X187957Y580969D01*
X187921Y581052D01*
X187895Y581085D01*
X187884Y581105D01*
X187861Y581127D01*
X187816Y581183D01*
X185569Y583430D01*
X185569Y591782D01*
X191474Y597687D01*
X199826Y597687D01*
X205731Y591782D01*
X205731Y583430D01*
X203344Y581043D01*
X203291Y580969D01*
X203231Y580900D01*
X203219Y580870D01*
X203200Y580844D01*
X203173Y580757D01*
X203139Y580672D01*
X203135Y580631D01*
X203128Y580609D01*
X203129Y580576D01*
X203121Y580505D01*
X203121Y560324D01*
X203124Y560304D01*
X203122Y560285D01*
X203144Y560183D01*
X203160Y560081D01*
X203170Y560064D01*
X203174Y560044D01*
X203227Y559955D01*
X203276Y559864D01*
X203290Y559850D01*
X203300Y559833D01*
X203379Y559766D01*
X203454Y559694D01*
X203472Y559686D01*
X203487Y559673D01*
X203583Y559634D01*
X203677Y559591D01*
X203697Y559589D01*
X203715Y559581D01*
X203882Y559563D01*
X238078Y559563D01*
X238098Y559566D01*
X238117Y559564D01*
X238219Y559586D01*
X238321Y559602D01*
X238338Y559612D01*
X238358Y559616D01*
X238447Y559669D01*
X238538Y559718D01*
X238552Y559732D01*
X238569Y559742D01*
X238636Y559821D01*
X238708Y559896D01*
X238716Y559914D01*
X238729Y559929D01*
X238768Y560025D01*
X238811Y560119D01*
X238813Y560139D01*
X238821Y560157D01*
X238839Y560324D01*
X238839Y580645D01*
X238825Y580735D01*
X238817Y580826D01*
X238805Y580856D01*
X238800Y580888D01*
X238757Y580969D01*
X238721Y581052D01*
X238695Y581085D01*
X238684Y581105D01*
X238661Y581127D01*
X238616Y581183D01*
X236369Y583430D01*
X236369Y591782D01*
X242274Y597687D01*
X250626Y597687D01*
X256531Y591782D01*
X256531Y583430D01*
X254144Y581043D01*
X254091Y580969D01*
X254031Y580900D01*
X254019Y580870D01*
X254000Y580844D01*
X253973Y580757D01*
X253939Y580672D01*
X253935Y580631D01*
X253928Y580609D01*
X253929Y580576D01*
X253921Y580505D01*
X253921Y560324D01*
X253924Y560304D01*
X253922Y560285D01*
X253944Y560183D01*
X253960Y560081D01*
X253970Y560064D01*
X253974Y560044D01*
X254027Y559955D01*
X254076Y559864D01*
X254090Y559850D01*
X254100Y559833D01*
X254179Y559766D01*
X254254Y559694D01*
X254272Y559686D01*
X254287Y559673D01*
X254383Y559634D01*
X254477Y559591D01*
X254497Y559589D01*
X254515Y559581D01*
X254682Y559563D01*
X288878Y559563D01*
X288898Y559566D01*
X288917Y559564D01*
X289019Y559586D01*
X289121Y559602D01*
X289138Y559612D01*
X289158Y559616D01*
X289247Y559669D01*
X289338Y559718D01*
X289352Y559732D01*
X289369Y559742D01*
X289436Y559821D01*
X289508Y559896D01*
X289516Y559914D01*
X289529Y559929D01*
X289568Y560025D01*
X289611Y560119D01*
X289613Y560139D01*
X289621Y560157D01*
X289639Y560324D01*
X289639Y580645D01*
X289625Y580735D01*
X289617Y580826D01*
X289605Y580856D01*
X289600Y580888D01*
X289557Y580969D01*
X289521Y581052D01*
X289495Y581085D01*
X289484Y581105D01*
X289461Y581127D01*
X289416Y581183D01*
X287169Y583430D01*
X287169Y591782D01*
X293074Y597687D01*
X301426Y597687D01*
X307331Y591782D01*
X307331Y583430D01*
X304944Y581043D01*
X304891Y580969D01*
X304831Y580900D01*
X304819Y580870D01*
X304800Y580844D01*
X304773Y580757D01*
X304739Y580672D01*
X304735Y580631D01*
X304728Y580609D01*
X304729Y580576D01*
X304721Y580505D01*
X304721Y560324D01*
X304724Y560304D01*
X304722Y560285D01*
X304744Y560183D01*
X304760Y560081D01*
X304770Y560064D01*
X304774Y560044D01*
X304827Y559955D01*
X304876Y559864D01*
X304890Y559850D01*
X304900Y559833D01*
X304979Y559766D01*
X305054Y559694D01*
X305072Y559686D01*
X305087Y559673D01*
X305183Y559634D01*
X305277Y559591D01*
X305297Y559589D01*
X305315Y559581D01*
X305482Y559563D01*
X339678Y559563D01*
X339698Y559566D01*
X339717Y559564D01*
X339819Y559586D01*
X339921Y559602D01*
X339938Y559612D01*
X339958Y559616D01*
X340047Y559669D01*
X340138Y559718D01*
X340152Y559732D01*
X340169Y559742D01*
X340236Y559821D01*
X340308Y559896D01*
X340316Y559914D01*
X340329Y559929D01*
X340368Y560025D01*
X340411Y560119D01*
X340413Y560139D01*
X340421Y560157D01*
X340439Y560324D01*
X340439Y570967D01*
X347218Y570967D01*
X347238Y570970D01*
X347257Y570968D01*
X347359Y570990D01*
X347461Y571007D01*
X347478Y571016D01*
X347498Y571020D01*
X347587Y571073D01*
X347678Y571122D01*
X347692Y571136D01*
X347709Y571146D01*
X347776Y571225D01*
X347847Y571300D01*
X347856Y571318D01*
X347869Y571333D01*
X347908Y571429D01*
X347951Y571523D01*
X347953Y571543D01*
X347961Y571561D01*
X347979Y571728D01*
X347979Y572491D01*
X347981Y572491D01*
X347981Y571728D01*
X347984Y571708D01*
X347982Y571689D01*
X348004Y571587D01*
X348021Y571485D01*
X348030Y571468D01*
X348034Y571448D01*
X348087Y571359D01*
X348136Y571268D01*
X348150Y571254D01*
X348160Y571237D01*
X348239Y571170D01*
X348314Y571099D01*
X348332Y571090D01*
X348347Y571077D01*
X348443Y571038D01*
X348537Y570995D01*
X348557Y570993D01*
X348575Y570985D01*
X348742Y570967D01*
X355521Y570967D01*
X355521Y560324D01*
X355524Y560304D01*
X355522Y560285D01*
X355544Y560183D01*
X355560Y560081D01*
X355570Y560064D01*
X355574Y560044D01*
X355627Y559955D01*
X355676Y559864D01*
X355690Y559850D01*
X355700Y559833D01*
X355779Y559766D01*
X355854Y559694D01*
X355872Y559686D01*
X355887Y559673D01*
X355983Y559634D01*
X356077Y559591D01*
X356097Y559589D01*
X356115Y559581D01*
X356282Y559563D01*
X390478Y559563D01*
X390498Y559566D01*
X390517Y559564D01*
X390619Y559586D01*
X390721Y559602D01*
X390738Y559612D01*
X390758Y559616D01*
X390847Y559669D01*
X390938Y559718D01*
X390952Y559732D01*
X390969Y559742D01*
X391036Y559821D01*
X391108Y559896D01*
X391116Y559914D01*
X391129Y559929D01*
X391168Y560025D01*
X391211Y560119D01*
X391213Y560139D01*
X391221Y560157D01*
X391239Y560324D01*
X391239Y580645D01*
X391225Y580735D01*
X391217Y580826D01*
X391205Y580856D01*
X391200Y580888D01*
X391157Y580969D01*
X391121Y581052D01*
X391095Y581085D01*
X391084Y581105D01*
X391061Y581127D01*
X391016Y581183D01*
X388769Y583430D01*
X388769Y591782D01*
X394674Y597687D01*
X403026Y597687D01*
X408931Y591782D01*
X408931Y583430D01*
X406544Y581043D01*
X406491Y580969D01*
X406431Y580900D01*
X406419Y580870D01*
X406400Y580844D01*
X406373Y580757D01*
X406339Y580672D01*
X406335Y580631D01*
X406328Y580609D01*
X406329Y580576D01*
X406321Y580505D01*
X406321Y565229D01*
X406332Y565159D01*
X406334Y565087D01*
X406352Y565038D01*
X406360Y564987D01*
X406394Y564923D01*
X406419Y564856D01*
X406451Y564815D01*
X406476Y564769D01*
X406528Y564720D01*
X406572Y564664D01*
X406616Y564636D01*
X406654Y564600D01*
X406719Y564570D01*
X406779Y564531D01*
X406830Y564518D01*
X406877Y564496D01*
X406948Y564488D01*
X407018Y564471D01*
X407070Y564475D01*
X407121Y564469D01*
X407192Y564484D01*
X407263Y564490D01*
X407311Y564510D01*
X407362Y564521D01*
X407423Y564558D01*
X407489Y564586D01*
X407545Y564631D01*
X407573Y564648D01*
X407588Y564665D01*
X407620Y564691D01*
X413160Y570231D01*
X486648Y570231D01*
X486763Y570250D01*
X486879Y570267D01*
X486885Y570269D01*
X486891Y570270D01*
X486993Y570325D01*
X487098Y570378D01*
X487103Y570383D01*
X487108Y570386D01*
X487188Y570470D01*
X487271Y570554D01*
X487274Y570560D01*
X487278Y570564D01*
X487285Y570581D01*
X487351Y570701D01*
X488054Y572396D01*
X490644Y574986D01*
X494028Y576388D01*
X497692Y576388D01*
X501076Y574986D01*
X503666Y572396D01*
X505068Y569012D01*
X505068Y565348D01*
X503666Y561964D01*
X501076Y559374D01*
X497710Y557979D01*
X497627Y557928D01*
X497541Y557882D01*
X497523Y557864D01*
X497501Y557850D01*
X497438Y557774D01*
X497372Y557704D01*
X497361Y557680D01*
X497344Y557660D01*
X497309Y557569D01*
X497268Y557481D01*
X497265Y557455D01*
X497256Y557431D01*
X497252Y557333D01*
X497241Y557237D01*
X497246Y557211D01*
X497245Y557185D01*
X497272Y557091D01*
X497293Y556996D01*
X497307Y556974D01*
X497314Y556949D01*
X497369Y556869D01*
X497419Y556785D01*
X497439Y556768D01*
X497454Y556747D01*
X497532Y556688D01*
X497606Y556625D01*
X497630Y556615D01*
X497651Y556600D01*
X497744Y556570D01*
X497834Y556533D01*
X497867Y556530D01*
X497885Y556524D01*
X497918Y556524D01*
X498001Y556515D01*
X662019Y556515D01*
X662109Y556529D01*
X662200Y556537D01*
X662229Y556549D01*
X662261Y556554D01*
X662342Y556597D01*
X662426Y556633D01*
X662458Y556659D01*
X662479Y556670D01*
X662501Y556693D01*
X662557Y556738D01*
X721770Y615951D01*
X798070Y615951D01*
X802611Y611410D01*
X802627Y611399D01*
X802639Y611383D01*
X802726Y611327D01*
X802810Y611267D01*
X802829Y611261D01*
X802846Y611250D01*
X802947Y611225D01*
X803045Y611194D01*
X803065Y611195D01*
X803085Y611190D01*
X803188Y611198D01*
X803291Y611201D01*
X803310Y611208D01*
X803330Y611209D01*
X803425Y611250D01*
X803522Y611285D01*
X803538Y611298D01*
X803556Y611305D01*
X803687Y611410D01*
X804058Y611781D01*
X816162Y611781D01*
X817651Y610292D01*
X817651Y592149D01*
X817665Y592058D01*
X817673Y591968D01*
X817685Y591938D01*
X817690Y591906D01*
X817733Y591825D01*
X817769Y591741D01*
X817795Y591709D01*
X817806Y591688D01*
X817829Y591666D01*
X817874Y591610D01*
X819841Y589643D01*
X821659Y585255D01*
X821659Y580505D01*
X819841Y576117D01*
X817874Y574150D01*
X817821Y574076D01*
X817761Y574006D01*
X817749Y573976D01*
X817730Y573950D01*
X817703Y573863D01*
X817669Y573778D01*
X817665Y573737D01*
X817658Y573715D01*
X817659Y573683D01*
X817651Y573611D01*
X817651Y555188D01*
X816162Y553699D01*
X804058Y553699D01*
X802569Y555188D01*
X802569Y572831D01*
X802555Y572922D01*
X802547Y573012D01*
X802535Y573042D01*
X802530Y573074D01*
X802487Y573155D01*
X802451Y573239D01*
X802425Y573271D01*
X802414Y573292D01*
X802391Y573314D01*
X802346Y573370D01*
X799599Y576117D01*
X797781Y580505D01*
X797781Y585255D01*
X799599Y589643D01*
X802346Y592390D01*
X802399Y592464D01*
X802459Y592534D01*
X802471Y592564D01*
X802490Y592590D01*
X802517Y592677D01*
X802551Y592762D01*
X802555Y592803D01*
X802562Y592825D01*
X802561Y592857D01*
X802569Y592929D01*
X802569Y601795D01*
X802555Y601885D01*
X802547Y601976D01*
X802535Y602005D01*
X802530Y602037D01*
X802487Y602118D01*
X802451Y602202D01*
X802425Y602234D01*
X802414Y602255D01*
X802391Y602277D01*
X802346Y602333D01*
X795557Y609122D01*
X795483Y609175D01*
X795414Y609235D01*
X795383Y609247D01*
X795357Y609266D01*
X795270Y609293D01*
X795185Y609327D01*
X795144Y609331D01*
X795122Y609338D01*
X795090Y609337D01*
X795019Y609345D01*
X793012Y609345D01*
X792992Y609342D01*
X792973Y609344D01*
X792871Y609322D01*
X792769Y609306D01*
X792752Y609296D01*
X792732Y609292D01*
X792643Y609239D01*
X792552Y609190D01*
X792538Y609176D01*
X792521Y609166D01*
X792454Y609087D01*
X792382Y609012D01*
X792374Y608994D01*
X792361Y608979D01*
X792322Y608883D01*
X792279Y608789D01*
X792277Y608769D01*
X792269Y608751D01*
X792251Y608584D01*
X792251Y592149D01*
X792265Y592058D01*
X792273Y591968D01*
X792285Y591938D01*
X792290Y591906D01*
X792333Y591825D01*
X792369Y591741D01*
X792395Y591709D01*
X792406Y591688D01*
X792429Y591666D01*
X792474Y591610D01*
X794441Y589643D01*
X796259Y585255D01*
X796259Y580505D01*
X794441Y576117D01*
X792474Y574150D01*
X792421Y574076D01*
X792361Y574006D01*
X792349Y573976D01*
X792330Y573950D01*
X792303Y573863D01*
X792269Y573778D01*
X792265Y573737D01*
X792258Y573715D01*
X792259Y573683D01*
X792251Y573611D01*
X792251Y555188D01*
X790762Y553699D01*
X778658Y553699D01*
X778287Y554070D01*
X778271Y554081D01*
X778258Y554097D01*
X778171Y554153D01*
X778087Y554213D01*
X778068Y554219D01*
X778052Y554230D01*
X777951Y554255D01*
X777852Y554286D01*
X777832Y554285D01*
X777813Y554290D01*
X777710Y554282D01*
X777606Y554279D01*
X777588Y554272D01*
X777568Y554271D01*
X777473Y554230D01*
X777375Y554195D01*
X777360Y554182D01*
X777342Y554175D01*
X777211Y554070D01*
X772288Y549147D01*
X669195Y549147D01*
X669105Y549133D01*
X669014Y549125D01*
X668985Y549113D01*
X668953Y549108D01*
X668872Y549065D01*
X668788Y549029D01*
X668756Y549003D01*
X668735Y548992D01*
X668713Y548969D01*
X668657Y548924D01*
X605634Y485901D01*
X595972Y485901D01*
X595876Y485886D01*
X595779Y485876D01*
X595755Y485866D01*
X595729Y485862D01*
X595643Y485816D01*
X595554Y485776D01*
X595535Y485759D01*
X595512Y485746D01*
X595445Y485676D01*
X595373Y485610D01*
X595361Y485587D01*
X595343Y485568D01*
X595302Y485480D01*
X595255Y485394D01*
X595250Y485369D01*
X595239Y485345D01*
X595228Y485248D01*
X595211Y485152D01*
X595215Y485126D01*
X595212Y485101D01*
X595232Y485005D01*
X595247Y484909D01*
X595258Y484886D01*
X595264Y484860D01*
X595314Y484777D01*
X595358Y484690D01*
X595377Y484671D01*
X595390Y484649D01*
X595464Y484586D01*
X595534Y484518D01*
X595562Y484502D01*
X595577Y484489D01*
X595608Y484477D01*
X595681Y484437D01*
X597716Y483594D01*
X600574Y480736D01*
X602121Y477001D01*
X602121Y475234D01*
X602124Y475214D01*
X602122Y475195D01*
X602144Y475093D01*
X602160Y474991D01*
X602170Y474974D01*
X602174Y474954D01*
X602227Y474865D01*
X602276Y474774D01*
X602290Y474760D01*
X602300Y474743D01*
X602379Y474676D01*
X602454Y474604D01*
X602472Y474596D01*
X602487Y474583D01*
X602583Y474544D01*
X602677Y474501D01*
X602697Y474499D01*
X602715Y474491D01*
X602882Y474473D01*
X611418Y474473D01*
X611509Y474487D01*
X611599Y474495D01*
X611629Y474507D01*
X611661Y474512D01*
X611742Y474555D01*
X611826Y474591D01*
X611858Y474617D01*
X611879Y474628D01*
X611901Y474651D01*
X611957Y474696D01*
X630311Y493050D01*
X632925Y494133D01*
X652284Y494133D01*
X652374Y494147D01*
X652465Y494155D01*
X652495Y494167D01*
X652527Y494172D01*
X652608Y494215D01*
X652692Y494251D01*
X652724Y494277D01*
X652744Y494288D01*
X652767Y494311D01*
X652823Y494356D01*
X654528Y496061D01*
X671632Y496061D01*
X673121Y494572D01*
X673121Y493674D01*
X673124Y493654D01*
X673122Y493635D01*
X673144Y493533D01*
X673160Y493431D01*
X673170Y493414D01*
X673174Y493394D01*
X673227Y493305D01*
X673276Y493214D01*
X673290Y493200D01*
X673300Y493183D01*
X673379Y493116D01*
X673454Y493044D01*
X673472Y493036D01*
X673487Y493023D01*
X673583Y492984D01*
X673677Y492941D01*
X673697Y492939D01*
X673715Y492931D01*
X673882Y492913D01*
X715495Y492913D01*
X718109Y491830D01*
X718625Y491314D01*
X718699Y491260D01*
X718769Y491201D01*
X718799Y491189D01*
X718825Y491170D01*
X718912Y491143D01*
X718997Y491109D01*
X719038Y491105D01*
X719060Y491098D01*
X719092Y491099D01*
X719163Y491091D01*
X721632Y491091D01*
X723121Y489602D01*
X723121Y481998D01*
X721632Y480509D01*
X719163Y480509D01*
X719073Y480495D01*
X718982Y480487D01*
X718953Y480475D01*
X718921Y480470D01*
X718840Y480427D01*
X718756Y480391D01*
X718724Y480365D01*
X718703Y480354D01*
X718681Y480331D01*
X718625Y480286D01*
X718109Y479770D01*
X715495Y478687D01*
X672656Y478687D01*
X672566Y478673D01*
X672475Y478665D01*
X672445Y478653D01*
X672413Y478648D01*
X672332Y478605D01*
X672248Y478569D01*
X672216Y478543D01*
X672196Y478532D01*
X672173Y478509D01*
X672117Y478464D01*
X671616Y477962D01*
X671546Y477866D01*
X671476Y477770D01*
X671474Y477766D01*
X671472Y477763D01*
X671437Y477649D01*
X671401Y477536D01*
X671401Y477532D01*
X671400Y477528D01*
X671403Y477409D01*
X671405Y477290D01*
X671406Y477286D01*
X671406Y477282D01*
X671447Y477169D01*
X671486Y477058D01*
X671489Y477055D01*
X671490Y477051D01*
X671566Y476957D01*
X671638Y476864D01*
X671642Y476861D01*
X671644Y476859D01*
X671656Y476851D01*
X671773Y476765D01*
X672140Y476553D01*
X672613Y476080D01*
X672948Y475501D01*
X673121Y474854D01*
X673121Y469543D01*
X663842Y469543D01*
X663822Y469540D01*
X663803Y469542D01*
X663701Y469520D01*
X663599Y469503D01*
X663582Y469494D01*
X663562Y469490D01*
X663473Y469437D01*
X663382Y469388D01*
X663368Y469374D01*
X663351Y469364D01*
X663284Y469285D01*
X663213Y469210D01*
X663204Y469192D01*
X663191Y469177D01*
X663152Y469081D01*
X663109Y468987D01*
X663107Y468967D01*
X663099Y468949D01*
X663081Y468782D01*
X663081Y468019D01*
X663079Y468019D01*
X663079Y468782D01*
X663076Y468802D01*
X663078Y468821D01*
X663056Y468923D01*
X663039Y469025D01*
X663030Y469042D01*
X663026Y469062D01*
X662973Y469151D01*
X662924Y469242D01*
X662910Y469256D01*
X662900Y469273D01*
X662821Y469340D01*
X662746Y469411D01*
X662728Y469420D01*
X662713Y469433D01*
X662617Y469472D01*
X662523Y469515D01*
X662503Y469517D01*
X662485Y469525D01*
X662318Y469543D01*
X653039Y469543D01*
X653039Y474854D01*
X653212Y475501D01*
X653547Y476080D01*
X654020Y476553D01*
X654387Y476765D01*
X654478Y476840D01*
X654572Y476914D01*
X654574Y476918D01*
X654577Y476921D01*
X654640Y477021D01*
X654705Y477121D01*
X654706Y477125D01*
X654708Y477129D01*
X654736Y477245D01*
X654765Y477360D01*
X654764Y477364D01*
X654765Y477368D01*
X654755Y477488D01*
X654746Y477605D01*
X654744Y477609D01*
X654744Y477613D01*
X654695Y477724D01*
X654649Y477831D01*
X654646Y477835D01*
X654645Y477838D01*
X654635Y477849D01*
X654544Y477962D01*
X652823Y479684D01*
X652749Y479737D01*
X652679Y479797D01*
X652649Y479809D01*
X652623Y479828D01*
X652536Y479855D01*
X652451Y479889D01*
X652410Y479893D01*
X652388Y479900D01*
X652356Y479899D01*
X652284Y479907D01*
X637602Y479907D01*
X637511Y479893D01*
X637421Y479885D01*
X637391Y479873D01*
X637359Y479868D01*
X637278Y479825D01*
X637194Y479789D01*
X637162Y479763D01*
X637141Y479752D01*
X637119Y479729D01*
X637063Y479684D01*
X618709Y461330D01*
X616095Y460247D01*
X602882Y460247D01*
X602862Y460244D01*
X602843Y460246D01*
X602741Y460224D01*
X602639Y460208D01*
X602622Y460198D01*
X602602Y460194D01*
X602513Y460141D01*
X602422Y460092D01*
X602408Y460078D01*
X602391Y460068D01*
X602324Y459989D01*
X602252Y459914D01*
X602244Y459896D01*
X602231Y459881D01*
X602192Y459785D01*
X602149Y459691D01*
X602147Y459671D01*
X602139Y459653D01*
X602121Y459486D01*
X602121Y457719D01*
X600574Y453984D01*
X597716Y451126D01*
X593981Y449579D01*
X589939Y449579D01*
X586204Y451126D01*
X583346Y453984D01*
X581799Y457719D01*
X581799Y459486D01*
X581796Y459506D01*
X581798Y459525D01*
X581776Y459627D01*
X581760Y459729D01*
X581750Y459746D01*
X581746Y459766D01*
X581693Y459855D01*
X581644Y459946D01*
X581630Y459960D01*
X581620Y459977D01*
X581541Y460044D01*
X581466Y460116D01*
X581448Y460124D01*
X581433Y460137D01*
X581337Y460176D01*
X581243Y460219D01*
X581223Y460221D01*
X581205Y460229D01*
X581038Y460247D01*
X577482Y460247D01*
X577462Y460244D01*
X577443Y460246D01*
X577341Y460224D01*
X577239Y460208D01*
X577222Y460198D01*
X577202Y460194D01*
X577113Y460141D01*
X577022Y460092D01*
X577008Y460078D01*
X576991Y460068D01*
X576924Y459989D01*
X576852Y459914D01*
X576844Y459896D01*
X576831Y459881D01*
X576792Y459785D01*
X576749Y459691D01*
X576747Y459671D01*
X576739Y459653D01*
X576721Y459486D01*
X576721Y457719D01*
X575174Y453984D01*
X572316Y451126D01*
X568581Y449579D01*
X564539Y449579D01*
X560804Y451126D01*
X557946Y453984D01*
X556399Y457719D01*
X556399Y459486D01*
X556396Y459506D01*
X556398Y459525D01*
X556376Y459627D01*
X556360Y459729D01*
X556350Y459746D01*
X556346Y459766D01*
X556293Y459855D01*
X556244Y459946D01*
X556230Y459960D01*
X556220Y459977D01*
X556141Y460044D01*
X556066Y460116D01*
X556048Y460124D01*
X556033Y460137D01*
X555937Y460176D01*
X555843Y460219D01*
X555823Y460221D01*
X555805Y460229D01*
X555638Y460247D01*
X407082Y460247D01*
X407062Y460244D01*
X407043Y460246D01*
X406941Y460224D01*
X406839Y460208D01*
X406822Y460198D01*
X406802Y460194D01*
X406713Y460141D01*
X406622Y460092D01*
X406608Y460078D01*
X406591Y460068D01*
X406524Y459989D01*
X406452Y459914D01*
X406444Y459896D01*
X406431Y459881D01*
X406392Y459785D01*
X406349Y459691D01*
X406347Y459671D01*
X406339Y459653D01*
X406321Y459486D01*
X406321Y450997D01*
X399542Y450997D01*
X399522Y450994D01*
X399503Y450996D01*
X399401Y450974D01*
X399299Y450957D01*
X399282Y450948D01*
X399262Y450944D01*
X399173Y450891D01*
X399082Y450842D01*
X399068Y450828D01*
X399051Y450818D01*
X398984Y450739D01*
X398913Y450664D01*
X398904Y450646D01*
X398891Y450631D01*
X398852Y450535D01*
X398809Y450441D01*
X398807Y450421D01*
X398799Y450403D01*
X398781Y450236D01*
X398781Y449473D01*
X398779Y449473D01*
X398779Y450236D01*
X398776Y450256D01*
X398778Y450275D01*
X398756Y450377D01*
X398739Y450479D01*
X398730Y450496D01*
X398726Y450516D01*
X398673Y450605D01*
X398624Y450696D01*
X398610Y450710D01*
X398600Y450727D01*
X398521Y450794D01*
X398446Y450865D01*
X398428Y450874D01*
X398413Y450887D01*
X398317Y450926D01*
X398223Y450969D01*
X398203Y450971D01*
X398185Y450979D01*
X398018Y450997D01*
X391239Y450997D01*
X391239Y461212D01*
X391236Y461232D01*
X391238Y461251D01*
X391216Y461353D01*
X391200Y461455D01*
X391190Y461472D01*
X391186Y461492D01*
X391133Y461581D01*
X391084Y461672D01*
X391070Y461686D01*
X391060Y461703D01*
X390981Y461770D01*
X390906Y461842D01*
X390888Y461850D01*
X390873Y461863D01*
X390777Y461902D01*
X390683Y461945D01*
X390663Y461947D01*
X390645Y461955D01*
X390478Y461973D01*
X370854Y461973D01*
X370763Y461959D01*
X370673Y461951D01*
X370643Y461939D01*
X370611Y461934D01*
X370530Y461891D01*
X370446Y461855D01*
X370414Y461829D01*
X370393Y461818D01*
X370371Y461795D01*
X370315Y461750D01*
X355744Y447179D01*
X355691Y447105D01*
X355631Y447035D01*
X355619Y447005D01*
X355600Y446979D01*
X355573Y446892D01*
X355539Y446807D01*
X355535Y446766D01*
X355528Y446744D01*
X355529Y446712D01*
X355521Y446640D01*
X355521Y441291D01*
X355535Y441201D01*
X355543Y441110D01*
X355555Y441080D01*
X355560Y441048D01*
X355603Y440967D01*
X355639Y440884D01*
X355665Y440851D01*
X355676Y440831D01*
X355699Y440809D01*
X355744Y440753D01*
X358131Y438366D01*
X358131Y430014D01*
X352226Y424109D01*
X343874Y424109D01*
X337969Y430014D01*
X337969Y438366D01*
X340216Y440613D01*
X340269Y440687D01*
X340329Y440756D01*
X340341Y440786D01*
X340360Y440812D01*
X340387Y440899D01*
X340421Y440984D01*
X340425Y441025D01*
X340432Y441047D01*
X340431Y441080D01*
X340439Y441151D01*
X340439Y463026D01*
X341928Y464515D01*
X352646Y464515D01*
X352737Y464529D01*
X352827Y464537D01*
X352857Y464549D01*
X352889Y464554D01*
X352970Y464597D01*
X353054Y464633D01*
X353086Y464659D01*
X353107Y464670D01*
X353129Y464693D01*
X353185Y464738D01*
X363563Y475116D01*
X366177Y476199D01*
X408141Y476199D01*
X410755Y475116D01*
X411175Y474696D01*
X411249Y474643D01*
X411319Y474583D01*
X411349Y474571D01*
X411375Y474552D01*
X411462Y474525D01*
X411547Y474491D01*
X411588Y474487D01*
X411610Y474480D01*
X411642Y474481D01*
X411713Y474473D01*
X555638Y474473D01*
X555658Y474476D01*
X555677Y474474D01*
X555779Y474496D01*
X555881Y474512D01*
X555898Y474522D01*
X555918Y474526D01*
X556007Y474579D01*
X556098Y474628D01*
X556112Y474642D01*
X556129Y474652D01*
X556196Y474731D01*
X556268Y474806D01*
X556276Y474824D01*
X556289Y474839D01*
X556328Y474935D01*
X556371Y475029D01*
X556373Y475049D01*
X556381Y475067D01*
X556399Y475234D01*
X556399Y477001D01*
X557946Y480736D01*
X560804Y483594D01*
X562839Y484437D01*
X562922Y484488D01*
X563008Y484534D01*
X563026Y484552D01*
X563048Y484566D01*
X563111Y484642D01*
X563177Y484712D01*
X563188Y484736D01*
X563205Y484756D01*
X563240Y484847D01*
X563281Y484935D01*
X563284Y484961D01*
X563293Y484985D01*
X563297Y485083D01*
X563308Y485179D01*
X563303Y485205D01*
X563304Y485231D01*
X563277Y485325D01*
X563256Y485420D01*
X563243Y485442D01*
X563235Y485467D01*
X563180Y485547D01*
X563130Y485631D01*
X563110Y485648D01*
X563095Y485669D01*
X563017Y485728D01*
X562943Y485791D01*
X562919Y485801D01*
X562898Y485816D01*
X562805Y485846D01*
X562715Y485883D01*
X562682Y485886D01*
X562664Y485892D01*
X562631Y485892D01*
X562548Y485901D01*
X317151Y485901D01*
X317061Y485887D01*
X316970Y485879D01*
X316941Y485867D01*
X316909Y485862D01*
X316828Y485819D01*
X316744Y485783D01*
X316712Y485757D01*
X316691Y485746D01*
X316669Y485723D01*
X316613Y485678D01*
X296749Y465814D01*
X296707Y465756D01*
X296658Y465704D01*
X296636Y465657D01*
X296605Y465615D01*
X296584Y465546D01*
X296554Y465481D01*
X296548Y465429D01*
X296533Y465379D01*
X296535Y465308D01*
X296527Y465237D01*
X296538Y465186D01*
X296539Y465134D01*
X296564Y465066D01*
X296579Y464996D01*
X296606Y464951D01*
X296624Y464903D01*
X296669Y464847D01*
X296706Y464785D01*
X296745Y464751D01*
X296778Y464711D01*
X296838Y464672D01*
X296892Y464625D01*
X296941Y464606D01*
X296985Y464578D01*
X297054Y464560D01*
X297121Y464533D01*
X297192Y464525D01*
X297223Y464517D01*
X297246Y464519D01*
X297287Y464515D01*
X303232Y464515D01*
X304721Y463026D01*
X304721Y441291D01*
X304735Y441201D01*
X304743Y441110D01*
X304755Y441080D01*
X304760Y441048D01*
X304803Y440967D01*
X304839Y440884D01*
X304865Y440851D01*
X304876Y440831D01*
X304899Y440809D01*
X304944Y440753D01*
X307331Y438366D01*
X307331Y430014D01*
X301426Y424109D01*
X293074Y424109D01*
X287169Y430014D01*
X287169Y438366D01*
X289416Y440613D01*
X289469Y440687D01*
X289529Y440756D01*
X289541Y440786D01*
X289560Y440812D01*
X289587Y440899D01*
X289621Y440984D01*
X289625Y441025D01*
X289632Y441047D01*
X289631Y441080D01*
X289639Y441151D01*
X289639Y456867D01*
X289628Y456937D01*
X289626Y457009D01*
X289608Y457058D01*
X289600Y457109D01*
X289566Y457173D01*
X289541Y457240D01*
X289509Y457281D01*
X289484Y457327D01*
X289433Y457376D01*
X289388Y457432D01*
X289344Y457460D01*
X289306Y457496D01*
X289241Y457526D01*
X289181Y457565D01*
X289130Y457578D01*
X289083Y457600D01*
X289012Y457608D01*
X288942Y457625D01*
X288890Y457621D01*
X288839Y457627D01*
X288768Y457612D01*
X288697Y457606D01*
X288649Y457586D01*
X288598Y457575D01*
X288537Y457538D01*
X288471Y457510D01*
X288415Y457465D01*
X288387Y457448D01*
X288372Y457431D01*
X288340Y457405D01*
X276154Y445219D01*
X276142Y445203D01*
X276127Y445190D01*
X276070Y445103D01*
X276010Y445019D01*
X276004Y445000D01*
X275994Y444984D01*
X275968Y444883D01*
X275938Y444784D01*
X275938Y444764D01*
X275934Y444745D01*
X275942Y444642D01*
X275944Y444538D01*
X275951Y444520D01*
X275953Y444500D01*
X275993Y444405D01*
X276029Y444307D01*
X276041Y444292D01*
X276049Y444273D01*
X276154Y444142D01*
X281931Y438366D01*
X281931Y430014D01*
X279544Y427627D01*
X279491Y427553D01*
X279431Y427484D01*
X279419Y427454D01*
X279400Y427428D01*
X279373Y427341D01*
X279339Y427256D01*
X279335Y427215D01*
X279328Y427193D01*
X279329Y427160D01*
X279321Y427089D01*
X279321Y405522D01*
X277832Y404033D01*
X265728Y404033D01*
X264239Y405522D01*
X264239Y427229D01*
X264225Y427319D01*
X264217Y427410D01*
X264205Y427440D01*
X264200Y427472D01*
X264157Y427553D01*
X264121Y427636D01*
X264095Y427669D01*
X264084Y427689D01*
X264061Y427711D01*
X264016Y427767D01*
X261769Y430014D01*
X261769Y438366D01*
X267674Y444271D01*
X267970Y444271D01*
X267990Y444274D01*
X268009Y444272D01*
X268111Y444294D01*
X268213Y444310D01*
X268230Y444320D01*
X268250Y444324D01*
X268339Y444377D01*
X268430Y444426D01*
X268444Y444440D01*
X268461Y444450D01*
X268528Y444529D01*
X268600Y444604D01*
X268608Y444622D01*
X268621Y444637D01*
X268660Y444733D01*
X268703Y444827D01*
X268705Y444847D01*
X268713Y444865D01*
X268731Y445032D01*
X268731Y447138D01*
X314100Y492507D01*
X558226Y492507D01*
X558297Y492518D01*
X558368Y492520D01*
X558417Y492538D01*
X558469Y492546D01*
X558532Y492580D01*
X558599Y492605D01*
X558640Y492637D01*
X558686Y492662D01*
X558735Y492714D01*
X558791Y492758D01*
X558820Y492802D01*
X558856Y492840D01*
X558886Y492905D01*
X558924Y492965D01*
X558937Y493016D01*
X558959Y493063D01*
X558967Y493134D01*
X558985Y493204D01*
X558980Y493256D01*
X558986Y493307D01*
X558971Y493378D01*
X558965Y493449D01*
X558945Y493497D01*
X558934Y493548D01*
X558897Y493609D01*
X558869Y493675D01*
X558824Y493731D01*
X558808Y493759D01*
X558790Y493774D01*
X558784Y493781D01*
X558783Y493784D01*
X558781Y493786D01*
X558764Y493806D01*
X557946Y494624D01*
X556399Y498359D01*
X556399Y498856D01*
X556396Y498876D01*
X556398Y498895D01*
X556376Y498997D01*
X556360Y499099D01*
X556350Y499116D01*
X556346Y499136D01*
X556293Y499225D01*
X556244Y499316D01*
X556230Y499330D01*
X556220Y499347D01*
X556141Y499414D01*
X556066Y499486D01*
X556048Y499494D01*
X556033Y499507D01*
X555937Y499546D01*
X555843Y499589D01*
X555823Y499591D01*
X555805Y499599D01*
X555638Y499617D01*
X306538Y499617D01*
X306447Y499603D01*
X306357Y499595D01*
X306327Y499583D01*
X306295Y499578D01*
X306214Y499535D01*
X306130Y499499D01*
X306098Y499473D01*
X306077Y499462D01*
X306055Y499439D01*
X305999Y499394D01*
X263109Y456504D01*
X260495Y455421D01*
X257665Y455421D01*
X254973Y456536D01*
X254929Y456547D01*
X254887Y456566D01*
X254810Y456575D01*
X254734Y456592D01*
X254688Y456588D01*
X254643Y456593D01*
X254566Y456577D01*
X254489Y456569D01*
X254447Y456551D01*
X254402Y456541D01*
X254335Y456501D01*
X254264Y456469D01*
X254230Y456438D01*
X254191Y456415D01*
X254140Y456356D01*
X254083Y456303D01*
X254061Y456263D01*
X254031Y456228D01*
X254002Y456156D01*
X253965Y456087D01*
X253956Y456042D01*
X253939Y456000D01*
X253924Y455864D01*
X253921Y455845D01*
X253922Y455840D01*
X253921Y455833D01*
X253921Y441291D01*
X253935Y441201D01*
X253943Y441110D01*
X253955Y441080D01*
X253960Y441048D01*
X254003Y440967D01*
X254039Y440884D01*
X254065Y440851D01*
X254076Y440831D01*
X254099Y440809D01*
X254144Y440753D01*
X256531Y438366D01*
X256531Y430014D01*
X250626Y424109D01*
X242274Y424109D01*
X236369Y430014D01*
X236369Y438366D01*
X238616Y440613D01*
X238669Y440687D01*
X238729Y440756D01*
X238741Y440786D01*
X238760Y440812D01*
X238787Y440899D01*
X238821Y440984D01*
X238825Y441025D01*
X238832Y441047D01*
X238831Y441080D01*
X238839Y441151D01*
X238839Y463026D01*
X240328Y464515D01*
X244645Y464515D01*
X244735Y464529D01*
X244826Y464537D01*
X244855Y464549D01*
X244887Y464554D01*
X244968Y464597D01*
X245052Y464633D01*
X245084Y464659D01*
X245105Y464670D01*
X245127Y464693D01*
X245183Y464738D01*
X332103Y551658D01*
X332145Y551716D01*
X332194Y551768D01*
X332216Y551815D01*
X332247Y551857D01*
X332268Y551926D01*
X332298Y551991D01*
X332304Y552043D01*
X332319Y552093D01*
X332317Y552164D01*
X332325Y552235D01*
X332314Y552286D01*
X332313Y552338D01*
X332288Y552406D01*
X332273Y552476D01*
X332246Y552520D01*
X332228Y552569D01*
X332183Y552625D01*
X332146Y552687D01*
X332107Y552721D01*
X332074Y552761D01*
X332014Y552800D01*
X331960Y552847D01*
X331911Y552866D01*
X331867Y552894D01*
X331798Y552912D01*
X331731Y552939D01*
X331660Y552947D01*
X331629Y552955D01*
X331606Y552953D01*
X331565Y552957D01*
X189132Y552957D01*
X169543Y572546D01*
X167385Y574704D01*
X167385Y576764D01*
X167382Y576784D01*
X167384Y576803D01*
X167362Y576905D01*
X167346Y577007D01*
X167336Y577024D01*
X167332Y577044D01*
X167279Y577133D01*
X167230Y577224D01*
X167216Y577238D01*
X167206Y577255D01*
X167127Y577322D01*
X167052Y577394D01*
X167034Y577402D01*
X167019Y577415D01*
X166923Y577454D01*
X166829Y577497D01*
X166809Y577499D01*
X166791Y577507D01*
X166624Y577525D01*
X166074Y577525D01*
X160169Y583430D01*
X160169Y591782D01*
X162416Y594029D01*
X162462Y594093D01*
X162480Y594111D01*
X162483Y594119D01*
X162529Y594172D01*
X162541Y594202D01*
X162560Y594228D01*
X162587Y594315D01*
X162621Y594400D01*
X162625Y594441D01*
X162632Y594463D01*
X162631Y594496D01*
X162639Y594567D01*
X162639Y616454D01*
X162653Y616472D01*
X162702Y616524D01*
X162724Y616571D01*
X162754Y616613D01*
X162775Y616682D01*
X162805Y616747D01*
X162811Y616799D01*
X162827Y616848D01*
X162825Y616920D01*
X162833Y616991D01*
X162821Y617042D01*
X162820Y617094D01*
X162796Y617162D01*
X162780Y617232D01*
X162754Y617277D01*
X162736Y617325D01*
X162691Y617381D01*
X162654Y617443D01*
X162615Y617477D01*
X162582Y617517D01*
X162522Y617556D01*
X162467Y617603D01*
X162419Y617622D01*
X162375Y617650D01*
X162306Y617668D01*
X162239Y617695D01*
X162168Y617703D01*
X162137Y617711D01*
X162113Y617709D01*
X162072Y617713D01*
X127488Y617713D01*
X127417Y617702D01*
X127345Y617700D01*
X127296Y617682D01*
X127245Y617674D01*
X127182Y617640D01*
X127114Y617615D01*
X127073Y617583D01*
X127028Y617558D01*
X126978Y617507D01*
X126922Y617462D01*
X126894Y617418D01*
X126858Y617380D01*
X126828Y617315D01*
X126789Y617255D01*
X126776Y617204D01*
X126755Y617157D01*
X126747Y617086D01*
X126729Y617016D01*
X126733Y616964D01*
X126727Y616913D01*
X126743Y616842D01*
X126748Y616771D01*
X126769Y616723D01*
X126780Y616672D01*
X126817Y616611D01*
X126845Y616545D01*
X126889Y616489D01*
X126906Y616461D01*
X126921Y616448D01*
X126921Y594707D01*
X126935Y594617D01*
X126943Y594526D01*
X126955Y594496D01*
X126960Y594464D01*
X127003Y594383D01*
X127039Y594300D01*
X127065Y594267D01*
X127076Y594247D01*
X127099Y594225D01*
X127144Y594169D01*
X129531Y591782D01*
X129531Y583430D01*
X123626Y577525D01*
X122936Y577525D01*
X122916Y577522D01*
X122897Y577524D01*
X122795Y577502D01*
X122693Y577486D01*
X122676Y577476D01*
X122656Y577472D01*
X122567Y577419D01*
X122476Y577370D01*
X122462Y577356D01*
X122445Y577346D01*
X122378Y577267D01*
X122306Y577192D01*
X122298Y577174D01*
X122285Y577159D01*
X122246Y577063D01*
X122203Y576969D01*
X122201Y576949D01*
X122193Y576931D01*
X122175Y576764D01*
X122175Y574704D01*
X53818Y506347D01*
X53765Y506273D01*
X53705Y506204D01*
X53693Y506173D01*
X53674Y506147D01*
X53647Y506060D01*
X53613Y505975D01*
X53609Y505934D01*
X53602Y505912D01*
X53603Y505880D01*
X53595Y505809D01*
X53595Y316850D01*
X53609Y316760D01*
X53617Y316669D01*
X53629Y316640D01*
X53634Y316608D01*
X53677Y316527D01*
X53713Y316443D01*
X53739Y316411D01*
X53750Y316390D01*
X53773Y316368D01*
X53818Y316312D01*
X55652Y314478D01*
X56615Y312154D01*
X56615Y309638D01*
X55652Y307314D01*
X53874Y305536D01*
X51550Y304573D01*
X49034Y304573D01*
X46710Y305536D01*
X44932Y307314D01*
X43969Y309638D01*
X43969Y312154D01*
X44932Y314478D01*
X46766Y316312D01*
X46819Y316386D01*
X46879Y316455D01*
X46891Y316486D01*
X46910Y316512D01*
X46937Y316599D01*
X46971Y316684D01*
X46975Y316725D01*
X46982Y316747D01*
X46981Y316779D01*
X46989Y316850D01*
X46989Y508860D01*
X94279Y556150D01*
X94321Y556208D01*
X94370Y556260D01*
X94392Y556307D01*
X94423Y556349D01*
X94444Y556418D01*
X94474Y556483D01*
X94480Y556535D01*
X94495Y556585D01*
X94493Y556656D01*
X94501Y556727D01*
X94490Y556778D01*
X94489Y556830D01*
X94464Y556898D01*
X94449Y556968D01*
X94422Y557013D01*
X94404Y557061D01*
X94359Y557117D01*
X94322Y557179D01*
X94283Y557213D01*
X94250Y557253D01*
X94190Y557292D01*
X94136Y557339D01*
X94087Y557358D01*
X94043Y557386D01*
X93974Y557404D01*
X93907Y557431D01*
X93836Y557439D01*
X93805Y557447D01*
X93782Y557445D01*
X93741Y557449D01*
X87928Y557449D01*
X86294Y559083D01*
X86278Y559094D01*
X86265Y559110D01*
X86178Y559166D01*
X86094Y559226D01*
X86075Y559232D01*
X86059Y559243D01*
X85958Y559268D01*
X85859Y559299D01*
X85839Y559298D01*
X85820Y559303D01*
X85717Y559295D01*
X85613Y559292D01*
X85595Y559285D01*
X85575Y559284D01*
X85480Y559244D01*
X85382Y559208D01*
X85367Y559195D01*
X85349Y559188D01*
X85218Y559083D01*
X21052Y494917D01*
X20999Y494843D01*
X20939Y494774D01*
X20927Y494743D01*
X20908Y494717D01*
X20881Y494630D01*
X20847Y494545D01*
X20843Y494504D01*
X20836Y494482D01*
X20837Y494450D01*
X20829Y494379D01*
X20829Y316850D01*
X20843Y316760D01*
X20851Y316669D01*
X20863Y316640D01*
X20868Y316608D01*
X20911Y316527D01*
X20947Y316443D01*
X20973Y316411D01*
X20984Y316390D01*
X21007Y316368D01*
X21052Y316312D01*
X22886Y314478D01*
X23849Y312154D01*
X23849Y309638D01*
X22886Y307314D01*
X21108Y305536D01*
X18784Y304573D01*
X16268Y304573D01*
X13944Y305536D01*
X13492Y305988D01*
X13476Y306000D01*
X13464Y306015D01*
X13377Y306071D01*
X13293Y306132D01*
X13274Y306137D01*
X13257Y306148D01*
X13156Y306173D01*
X13057Y306204D01*
X13038Y306203D01*
X13018Y306208D01*
X12915Y306200D01*
X12812Y306198D01*
X12793Y306191D01*
X12773Y306189D01*
X12678Y306149D01*
X12581Y306113D01*
X12565Y306101D01*
X12547Y306093D01*
X12416Y305988D01*
X11964Y305536D01*
X9640Y304573D01*
X7124Y304573D01*
X4800Y305536D01*
X3586Y306750D01*
X3528Y306792D01*
X3476Y306841D01*
X3429Y306863D01*
X3387Y306894D01*
X3318Y306915D01*
X3253Y306945D01*
X3201Y306951D01*
X3151Y306966D01*
X3080Y306964D01*
X3009Y306972D01*
X2958Y306961D01*
X2906Y306960D01*
X2838Y306935D01*
X2768Y306920D01*
X2723Y306893D01*
X2675Y306875D01*
X2619Y306830D01*
X2557Y306794D01*
X2523Y306754D01*
X2483Y306721D01*
X2444Y306661D01*
X2397Y306607D01*
X2378Y306558D01*
X2350Y306515D01*
X2332Y306445D01*
X2305Y306378D01*
X2297Y306307D01*
X2289Y306276D01*
X2291Y306253D01*
X2287Y306212D01*
X2287Y20000D01*
X2290Y19978D01*
X2289Y19940D01*
X2498Y17288D01*
X2499Y17283D01*
X2499Y17277D01*
X2533Y17113D01*
X4172Y12069D01*
X4188Y12037D01*
X4197Y12002D01*
X4280Y11857D01*
X7397Y7566D01*
X7423Y7540D01*
X7442Y7510D01*
X7566Y7397D01*
X11857Y4280D01*
X11888Y4264D01*
X11916Y4241D01*
X12069Y4172D01*
X17113Y2533D01*
X17118Y2532D01*
X17124Y2529D01*
X17136Y2527D01*
X17143Y2524D01*
X17168Y2521D01*
X17288Y2498D01*
X19940Y2289D01*
X19962Y2291D01*
X20000Y2287D01*
X980000Y2287D01*
X980022Y2290D01*
G37*
%LPC*%
G36*
X31049Y129793D02*
X31049Y129793D01*
X27408Y131301D01*
X26773Y131936D01*
X26700Y131989D01*
X26630Y132049D01*
X26600Y132061D01*
X26574Y132080D01*
X26487Y132107D01*
X26402Y132141D01*
X26361Y132145D01*
X26339Y132152D01*
X26306Y132151D01*
X26235Y132159D01*
X5468Y132159D01*
X3979Y133648D01*
X3979Y145752D01*
X5468Y147241D01*
X26235Y147241D01*
X26325Y147255D01*
X26416Y147263D01*
X26446Y147275D01*
X26478Y147280D01*
X26559Y147323D01*
X26642Y147359D01*
X26675Y147385D01*
X26695Y147396D01*
X26717Y147419D01*
X26773Y147464D01*
X27408Y148099D01*
X31049Y149607D01*
X34991Y149607D01*
X38632Y148099D01*
X39267Y147464D01*
X39340Y147411D01*
X39410Y147351D01*
X39440Y147339D01*
X39466Y147320D01*
X39553Y147293D01*
X39638Y147259D01*
X39679Y147255D01*
X39701Y147248D01*
X39734Y147249D01*
X39805Y147241D01*
X60706Y147241D01*
X60726Y147244D01*
X60745Y147242D01*
X60847Y147264D01*
X60949Y147280D01*
X60966Y147290D01*
X60986Y147294D01*
X61075Y147347D01*
X61166Y147396D01*
X61180Y147410D01*
X61197Y147420D01*
X61264Y147499D01*
X61336Y147574D01*
X61344Y147592D01*
X61357Y147607D01*
X61396Y147703D01*
X61439Y147797D01*
X61441Y147817D01*
X61449Y147835D01*
X61467Y148002D01*
X61467Y150005D01*
X62550Y152619D01*
X71404Y161473D01*
X71457Y161547D01*
X71517Y161617D01*
X71529Y161647D01*
X71548Y161673D01*
X71575Y161760D01*
X71609Y161845D01*
X71613Y161886D01*
X71620Y161908D01*
X71619Y161940D01*
X71627Y162011D01*
X71627Y289466D01*
X71616Y289537D01*
X71614Y289608D01*
X71596Y289657D01*
X71588Y289709D01*
X71554Y289772D01*
X71529Y289839D01*
X71497Y289880D01*
X71472Y289926D01*
X71421Y289975D01*
X71376Y290031D01*
X71332Y290059D01*
X71294Y290095D01*
X71229Y290126D01*
X71169Y290164D01*
X71118Y290177D01*
X71071Y290199D01*
X71000Y290207D01*
X70930Y290224D01*
X70878Y290220D01*
X70827Y290226D01*
X70756Y290211D01*
X70685Y290205D01*
X70637Y290185D01*
X70586Y290174D01*
X70525Y290137D01*
X70459Y290109D01*
X70403Y290064D01*
X70375Y290048D01*
X70360Y290030D01*
X70328Y290004D01*
X69725Y289401D01*
X63405Y283081D01*
X63351Y283007D01*
X63292Y282938D01*
X63280Y282907D01*
X63261Y282881D01*
X63234Y282794D01*
X63200Y282709D01*
X63196Y282668D01*
X63189Y282646D01*
X63190Y282614D01*
X63182Y282543D01*
X63182Y280343D01*
X60205Y277367D01*
X51188Y277367D01*
X51098Y277353D01*
X51007Y277345D01*
X50977Y277333D01*
X50945Y277328D01*
X50865Y277285D01*
X50781Y277249D01*
X50748Y277223D01*
X50728Y277212D01*
X50706Y277189D01*
X50650Y277144D01*
X49045Y275540D01*
X49004Y275482D01*
X48954Y275430D01*
X48932Y275383D01*
X48902Y275341D01*
X48881Y275272D01*
X48851Y275207D01*
X48845Y275155D01*
X48830Y275105D01*
X48831Y275034D01*
X48824Y274963D01*
X48835Y274912D01*
X48836Y274860D01*
X48861Y274792D01*
X48876Y274722D01*
X48903Y274677D01*
X48920Y274629D01*
X48965Y274573D01*
X49002Y274511D01*
X49042Y274477D01*
X49074Y274437D01*
X49134Y274398D01*
X49189Y274351D01*
X49237Y274332D01*
X49281Y274304D01*
X49350Y274286D01*
X49417Y274259D01*
X49488Y274251D01*
X49520Y274243D01*
X49543Y274245D01*
X49584Y274241D01*
X60572Y274241D01*
X62061Y272752D01*
X62061Y260648D01*
X60572Y259159D01*
X39805Y259159D01*
X39715Y259145D01*
X39624Y259137D01*
X39594Y259125D01*
X39562Y259120D01*
X39481Y259077D01*
X39398Y259041D01*
X39365Y259015D01*
X39345Y259004D01*
X39323Y258981D01*
X39267Y258936D01*
X38632Y258301D01*
X34991Y256793D01*
X31049Y256793D01*
X27408Y258301D01*
X26773Y258936D01*
X26700Y258989D01*
X26630Y259049D01*
X26600Y259061D01*
X26574Y259080D01*
X26487Y259107D01*
X26402Y259141D01*
X26361Y259145D01*
X26339Y259152D01*
X26306Y259151D01*
X26235Y259159D01*
X5468Y259159D01*
X3979Y260648D01*
X3979Y272752D01*
X5468Y274241D01*
X26235Y274241D01*
X26325Y274255D01*
X26416Y274263D01*
X26446Y274275D01*
X26478Y274280D01*
X26559Y274323D01*
X26642Y274359D01*
X26675Y274385D01*
X26695Y274396D01*
X26717Y274419D01*
X26773Y274464D01*
X27408Y275099D01*
X31049Y276607D01*
X34991Y276607D01*
X35052Y276581D01*
X35165Y276555D01*
X35279Y276526D01*
X35285Y276527D01*
X35291Y276525D01*
X35407Y276536D01*
X35524Y276545D01*
X35530Y276548D01*
X35536Y276548D01*
X35643Y276596D01*
X35750Y276642D01*
X35756Y276646D01*
X35761Y276648D01*
X35775Y276661D01*
X35881Y276746D01*
X42395Y283260D01*
X42436Y283318D01*
X42486Y283370D01*
X42508Y283417D01*
X42538Y283459D01*
X42559Y283528D01*
X42589Y283593D01*
X42595Y283645D01*
X42610Y283695D01*
X42609Y283766D01*
X42616Y283837D01*
X42605Y283888D01*
X42604Y283940D01*
X42579Y284008D01*
X42564Y284078D01*
X42538Y284122D01*
X42520Y284171D01*
X42475Y284227D01*
X42438Y284289D01*
X42398Y284323D01*
X42366Y284363D01*
X42306Y284402D01*
X42251Y284449D01*
X42203Y284468D01*
X42159Y284496D01*
X42090Y284514D01*
X42023Y284541D01*
X41952Y284549D01*
X41920Y284557D01*
X41897Y284555D01*
X41856Y284559D01*
X39805Y284559D01*
X39715Y284545D01*
X39624Y284537D01*
X39594Y284525D01*
X39562Y284520D01*
X39481Y284477D01*
X39398Y284441D01*
X39365Y284415D01*
X39345Y284404D01*
X39323Y284381D01*
X39267Y284336D01*
X38632Y283701D01*
X34991Y282193D01*
X31049Y282193D01*
X27408Y283701D01*
X26773Y284336D01*
X26700Y284389D01*
X26630Y284449D01*
X26600Y284461D01*
X26574Y284480D01*
X26487Y284507D01*
X26402Y284541D01*
X26361Y284545D01*
X26339Y284552D01*
X26306Y284551D01*
X26235Y284559D01*
X5468Y284559D01*
X3979Y286048D01*
X3979Y298152D01*
X5468Y299641D01*
X26235Y299641D01*
X26325Y299655D01*
X26416Y299663D01*
X26446Y299675D01*
X26478Y299680D01*
X26559Y299723D01*
X26642Y299759D01*
X26675Y299785D01*
X26695Y299796D01*
X26717Y299819D01*
X26773Y299864D01*
X27408Y300499D01*
X31049Y302007D01*
X34991Y302007D01*
X38632Y300499D01*
X39267Y299864D01*
X39340Y299811D01*
X39410Y299751D01*
X39440Y299739D01*
X39466Y299720D01*
X39553Y299693D01*
X39638Y299659D01*
X39679Y299655D01*
X39701Y299648D01*
X39734Y299649D01*
X39805Y299641D01*
X60572Y299641D01*
X62061Y298152D01*
X62061Y292916D01*
X62072Y292846D01*
X62074Y292774D01*
X62092Y292725D01*
X62100Y292674D01*
X62134Y292610D01*
X62159Y292543D01*
X62191Y292502D01*
X62216Y292456D01*
X62268Y292407D01*
X62312Y292351D01*
X62356Y292323D01*
X62394Y292287D01*
X62459Y292257D01*
X62519Y292218D01*
X62570Y292205D01*
X62617Y292183D01*
X62688Y292175D01*
X62758Y292158D01*
X62810Y292162D01*
X62861Y292156D01*
X62932Y292171D01*
X63003Y292177D01*
X63051Y292197D01*
X63102Y292208D01*
X63163Y292245D01*
X63229Y292273D01*
X63285Y292318D01*
X63313Y292335D01*
X63328Y292352D01*
X63360Y292378D01*
X65054Y294072D01*
X65097Y294131D01*
X65142Y294179D01*
X65150Y294195D01*
X65167Y294216D01*
X65179Y294246D01*
X65198Y294272D01*
X65223Y294353D01*
X65245Y294402D01*
X65247Y294414D01*
X65259Y294444D01*
X65263Y294485D01*
X65270Y294507D01*
X65269Y294539D01*
X65277Y294610D01*
X65277Y403272D01*
X65274Y403292D01*
X65276Y403311D01*
X65254Y403413D01*
X65238Y403515D01*
X65228Y403532D01*
X65224Y403552D01*
X65171Y403641D01*
X65122Y403732D01*
X65108Y403746D01*
X65098Y403763D01*
X65019Y403830D01*
X64944Y403902D01*
X64926Y403910D01*
X64911Y403923D01*
X64815Y403962D01*
X64721Y404005D01*
X64701Y404007D01*
X64683Y404015D01*
X64516Y404033D01*
X62528Y404033D01*
X61039Y405522D01*
X61039Y427229D01*
X61025Y427319D01*
X61017Y427410D01*
X61005Y427440D01*
X61000Y427472D01*
X60957Y427553D01*
X60921Y427636D01*
X60895Y427669D01*
X60884Y427689D01*
X60861Y427711D01*
X60816Y427767D01*
X58569Y430014D01*
X58569Y438366D01*
X64474Y444271D01*
X72826Y444271D01*
X78731Y438366D01*
X78731Y430014D01*
X76344Y427627D01*
X76291Y427553D01*
X76231Y427484D01*
X76219Y427454D01*
X76200Y427428D01*
X76173Y427341D01*
X76139Y427256D01*
X76135Y427215D01*
X76128Y427193D01*
X76129Y427160D01*
X76121Y427089D01*
X76121Y405522D01*
X74632Y404033D01*
X72644Y404033D01*
X72624Y404030D01*
X72605Y404032D01*
X72503Y404010D01*
X72401Y403994D01*
X72384Y403984D01*
X72364Y403980D01*
X72275Y403927D01*
X72184Y403878D01*
X72170Y403864D01*
X72153Y403854D01*
X72086Y403775D01*
X72014Y403700D01*
X72006Y403682D01*
X71993Y403667D01*
X71954Y403571D01*
X71911Y403477D01*
X71909Y403457D01*
X71901Y403439D01*
X71883Y403272D01*
X71883Y323809D01*
X71894Y323739D01*
X71896Y323667D01*
X71914Y323618D01*
X71922Y323567D01*
X71956Y323503D01*
X71981Y323436D01*
X72013Y323395D01*
X72038Y323349D01*
X72090Y323300D01*
X72134Y323244D01*
X72178Y323216D01*
X72216Y323180D01*
X72281Y323150D01*
X72341Y323111D01*
X72392Y323098D01*
X72439Y323076D01*
X72510Y323068D01*
X72580Y323051D01*
X72632Y323055D01*
X72683Y323049D01*
X72754Y323064D01*
X72825Y323070D01*
X72873Y323090D01*
X72924Y323101D01*
X72985Y323138D01*
X73051Y323166D01*
X73107Y323211D01*
X73135Y323228D01*
X73150Y323245D01*
X73182Y323271D01*
X74818Y324907D01*
X85628Y335717D01*
X85681Y335791D01*
X85741Y335861D01*
X85753Y335891D01*
X85772Y335917D01*
X85799Y336004D01*
X85833Y336089D01*
X85837Y336130D01*
X85844Y336152D01*
X85843Y336184D01*
X85851Y336255D01*
X85851Y427817D01*
X85837Y427907D01*
X85829Y427998D01*
X85817Y428028D01*
X85812Y428060D01*
X85791Y428098D01*
X85790Y428105D01*
X85771Y428137D01*
X85769Y428141D01*
X85733Y428224D01*
X85707Y428257D01*
X85696Y428277D01*
X85674Y428298D01*
X85663Y428316D01*
X85651Y428327D01*
X85628Y428355D01*
X83969Y430014D01*
X83969Y438366D01*
X86216Y440613D01*
X86269Y440687D01*
X86329Y440756D01*
X86341Y440786D01*
X86360Y440812D01*
X86387Y440899D01*
X86421Y440984D01*
X86425Y441025D01*
X86432Y441047D01*
X86431Y441080D01*
X86439Y441151D01*
X86439Y463026D01*
X87928Y464515D01*
X100032Y464515D01*
X101521Y463026D01*
X101521Y441291D01*
X101535Y441201D01*
X101543Y441110D01*
X101555Y441080D01*
X101560Y441048D01*
X101603Y440967D01*
X101639Y440884D01*
X101665Y440851D01*
X101676Y440831D01*
X101699Y440809D01*
X101744Y440753D01*
X104131Y438366D01*
X104131Y430014D01*
X100300Y426183D01*
X100247Y426109D01*
X100187Y426040D01*
X100175Y426010D01*
X100156Y425984D01*
X100129Y425897D01*
X100095Y425812D01*
X100091Y425771D01*
X100084Y425749D01*
X100085Y425716D01*
X100077Y425645D01*
X100077Y331579D01*
X98994Y328965D01*
X96886Y326857D01*
X86076Y316047D01*
X86023Y315973D01*
X85963Y315903D01*
X85951Y315873D01*
X85932Y315847D01*
X85905Y315760D01*
X85871Y315675D01*
X85867Y315634D01*
X85860Y315612D01*
X85861Y315580D01*
X85853Y315509D01*
X85853Y160941D01*
X85864Y160871D01*
X85866Y160799D01*
X85884Y160750D01*
X85892Y160699D01*
X85926Y160635D01*
X85951Y160568D01*
X85983Y160527D01*
X86008Y160481D01*
X86060Y160432D01*
X86104Y160376D01*
X86148Y160348D01*
X86186Y160312D01*
X86251Y160282D01*
X86311Y160243D01*
X86362Y160230D01*
X86409Y160208D01*
X86480Y160200D01*
X86550Y160183D01*
X86602Y160187D01*
X86653Y160181D01*
X86724Y160196D01*
X86795Y160202D01*
X86843Y160222D01*
X86894Y160233D01*
X86955Y160270D01*
X87021Y160298D01*
X87077Y160343D01*
X87105Y160360D01*
X87120Y160377D01*
X87152Y160403D01*
X131348Y204599D01*
X131401Y204673D01*
X131461Y204742D01*
X131473Y204773D01*
X131492Y204799D01*
X131519Y204886D01*
X131553Y204971D01*
X131557Y205012D01*
X131564Y205034D01*
X131563Y205066D01*
X131571Y205137D01*
X131571Y563724D01*
X137016Y569169D01*
X137069Y569243D01*
X137129Y569312D01*
X137141Y569343D01*
X137160Y569369D01*
X137187Y569456D01*
X137221Y569541D01*
X137225Y569582D01*
X137232Y569604D01*
X137231Y569636D01*
X137239Y569707D01*
X137239Y580645D01*
X137225Y580735D01*
X137217Y580826D01*
X137205Y580856D01*
X137200Y580888D01*
X137157Y580969D01*
X137121Y581052D01*
X137095Y581085D01*
X137084Y581105D01*
X137061Y581127D01*
X137016Y581183D01*
X134769Y583430D01*
X134769Y591782D01*
X140674Y597687D01*
X149026Y597687D01*
X154931Y591782D01*
X154931Y583430D01*
X152544Y581043D01*
X152491Y580969D01*
X152431Y580900D01*
X152419Y580870D01*
X152400Y580844D01*
X152373Y580757D01*
X152339Y580672D01*
X152335Y580631D01*
X152328Y580609D01*
X152329Y580576D01*
X152321Y580505D01*
X152321Y558938D01*
X150832Y557449D01*
X138938Y557449D01*
X138918Y557446D01*
X138899Y557448D01*
X138797Y557426D01*
X138695Y557410D01*
X138678Y557400D01*
X138658Y557396D01*
X138569Y557343D01*
X138478Y557294D01*
X138464Y557280D01*
X138447Y557270D01*
X138380Y557191D01*
X138308Y557116D01*
X138300Y557098D01*
X138287Y557083D01*
X138248Y556987D01*
X138205Y556893D01*
X138203Y556873D01*
X138195Y556855D01*
X138177Y556688D01*
X138177Y465276D01*
X138180Y465256D01*
X138178Y465237D01*
X138200Y465135D01*
X138216Y465033D01*
X138226Y465016D01*
X138230Y464996D01*
X138283Y464907D01*
X138332Y464816D01*
X138346Y464802D01*
X138356Y464785D01*
X138435Y464718D01*
X138510Y464646D01*
X138528Y464638D01*
X138543Y464625D01*
X138639Y464586D01*
X138733Y464543D01*
X138753Y464541D01*
X138771Y464533D01*
X138938Y464515D01*
X150832Y464515D01*
X152321Y463026D01*
X152321Y441291D01*
X152335Y441201D01*
X152343Y441110D01*
X152355Y441080D01*
X152360Y441048D01*
X152403Y440967D01*
X152439Y440884D01*
X152465Y440851D01*
X152476Y440831D01*
X152499Y440809D01*
X152544Y440753D01*
X154931Y438366D01*
X154931Y430014D01*
X149026Y424109D01*
X140674Y424109D01*
X139476Y425307D01*
X139418Y425349D01*
X139366Y425399D01*
X139319Y425421D01*
X139277Y425451D01*
X139208Y425472D01*
X139143Y425502D01*
X139091Y425508D01*
X139041Y425523D01*
X138970Y425521D01*
X138899Y425529D01*
X138848Y425518D01*
X138796Y425517D01*
X138728Y425492D01*
X138658Y425477D01*
X138613Y425450D01*
X138565Y425433D01*
X138509Y425388D01*
X138447Y425351D01*
X138413Y425311D01*
X138373Y425279D01*
X138334Y425219D01*
X138287Y425164D01*
X138268Y425116D01*
X138240Y425072D01*
X138222Y425002D01*
X138195Y424936D01*
X138187Y424865D01*
X138179Y424833D01*
X138181Y424810D01*
X138177Y424769D01*
X138177Y202086D01*
X72488Y136397D01*
X62822Y136397D01*
X62802Y136394D01*
X62783Y136396D01*
X62681Y136374D01*
X62579Y136358D01*
X62562Y136348D01*
X62542Y136344D01*
X62453Y136291D01*
X62362Y136242D01*
X62348Y136228D01*
X62331Y136218D01*
X62264Y136139D01*
X62192Y136064D01*
X62184Y136046D01*
X62171Y136031D01*
X62132Y135935D01*
X62089Y135841D01*
X62087Y135821D01*
X62079Y135803D01*
X62061Y135636D01*
X62061Y133648D01*
X60572Y132159D01*
X39805Y132159D01*
X39715Y132145D01*
X39624Y132137D01*
X39594Y132125D01*
X39562Y132120D01*
X39481Y132077D01*
X39398Y132041D01*
X39365Y132015D01*
X39345Y132004D01*
X39323Y131981D01*
X39267Y131936D01*
X38632Y131301D01*
X34991Y129793D01*
X31049Y129793D01*
G37*
%LPD*%
%LPC*%
G36*
X823638Y241089D02*
X823638Y241089D01*
X822149Y242578D01*
X822149Y269682D01*
X823638Y271171D01*
X829564Y271171D01*
X829584Y271174D01*
X829603Y271172D01*
X829705Y271194D01*
X829807Y271210D01*
X829824Y271220D01*
X829844Y271224D01*
X829933Y271277D01*
X830024Y271326D01*
X830038Y271340D01*
X830055Y271350D01*
X830122Y271429D01*
X830194Y271504D01*
X830202Y271522D01*
X830215Y271537D01*
X830254Y271633D01*
X830297Y271727D01*
X830299Y271747D01*
X830307Y271765D01*
X830325Y271932D01*
X830325Y330599D01*
X831408Y333213D01*
X950638Y452443D01*
X950686Y452509D01*
X950695Y452519D01*
X950697Y452524D01*
X950751Y452587D01*
X950763Y452617D01*
X950782Y452643D01*
X950809Y452730D01*
X950843Y452815D01*
X950847Y452856D01*
X950854Y452878D01*
X950853Y452910D01*
X950861Y452982D01*
X950861Y456675D01*
X952679Y461063D01*
X956037Y464421D01*
X960425Y466239D01*
X964118Y466239D01*
X964210Y466254D01*
X964302Y466261D01*
X964339Y466275D01*
X964361Y466278D01*
X964361Y466279D01*
X964390Y466294D01*
X964459Y466319D01*
X964516Y466361D01*
X964579Y466394D01*
X964615Y466432D01*
X964658Y466463D01*
X964699Y466521D01*
X964748Y466572D01*
X964770Y466620D01*
X964801Y466663D01*
X964822Y466731D01*
X964852Y466795D01*
X964858Y466848D01*
X964873Y466899D01*
X964871Y466969D01*
X964879Y467039D01*
X964867Y467091D01*
X964866Y467145D01*
X964842Y467211D01*
X964827Y467280D01*
X964799Y467325D01*
X964781Y467375D01*
X964737Y467430D01*
X964700Y467491D01*
X964660Y467525D01*
X964627Y467567D01*
X964567Y467605D01*
X964513Y467651D01*
X964464Y467671D01*
X964419Y467699D01*
X964351Y467716D01*
X964285Y467743D01*
X964212Y467751D01*
X964181Y467759D01*
X964158Y467757D01*
X964119Y467761D01*
X960425Y467761D01*
X956037Y469579D01*
X952679Y472937D01*
X950861Y477325D01*
X950861Y479044D01*
X950858Y479064D01*
X950860Y479083D01*
X950838Y479185D01*
X950822Y479287D01*
X950812Y479304D01*
X950808Y479324D01*
X950755Y479413D01*
X950706Y479504D01*
X950692Y479518D01*
X950682Y479535D01*
X950603Y479602D01*
X950528Y479674D01*
X950510Y479682D01*
X950495Y479695D01*
X950399Y479734D01*
X950305Y479777D01*
X950285Y479779D01*
X950267Y479787D01*
X950100Y479805D01*
X757635Y479805D01*
X757626Y479804D01*
X757617Y479805D01*
X757451Y479783D01*
X757019Y479674D01*
X756195Y479797D01*
X756162Y479797D01*
X756083Y479805D01*
X755251Y479805D01*
X754840Y479976D01*
X754831Y479978D01*
X754823Y479983D01*
X754660Y480025D01*
X754235Y480089D01*
X754211Y480088D01*
X754187Y480094D01*
X754089Y480087D01*
X753989Y480085D01*
X753966Y480077D01*
X753942Y480075D01*
X753851Y480036D01*
X753757Y480003D01*
X753738Y479988D01*
X753716Y479979D01*
X753585Y479874D01*
X753075Y479364D01*
X750461Y478281D01*
X739719Y478281D01*
X739686Y478276D01*
X739607Y478273D01*
X738780Y478151D01*
X738352Y478258D01*
X738342Y478259D01*
X738333Y478263D01*
X738167Y478281D01*
X737725Y478281D01*
X736953Y478601D01*
X736921Y478609D01*
X736847Y478636D01*
X736036Y478840D01*
X735681Y479103D01*
X735673Y479108D01*
X735666Y479114D01*
X735519Y479195D01*
X735111Y479364D01*
X734520Y479955D01*
X734493Y479975D01*
X734435Y480028D01*
X733989Y480359D01*
X733958Y480376D01*
X733931Y480399D01*
X733849Y480432D01*
X733771Y480472D01*
X733736Y480477D01*
X733702Y480491D01*
X733536Y480509D01*
X731528Y480509D01*
X730039Y481998D01*
X730039Y489602D01*
X730456Y490019D01*
X730482Y490055D01*
X730514Y490084D01*
X730553Y490154D01*
X730599Y490219D01*
X730612Y490261D01*
X730634Y490299D01*
X730648Y490377D01*
X730672Y490454D01*
X730671Y490498D01*
X730679Y490541D01*
X730668Y490620D01*
X730665Y490700D01*
X730650Y490741D01*
X730644Y490784D01*
X730586Y490918D01*
X730581Y490931D01*
X730579Y490933D01*
X730577Y490938D01*
X730212Y491569D01*
X730039Y492216D01*
X730039Y493926D01*
X738467Y493926D01*
X738486Y493929D01*
X738506Y493927D01*
X738608Y493949D01*
X738710Y493965D01*
X738727Y493975D01*
X738747Y493979D01*
X738836Y494032D01*
X738927Y494081D01*
X738941Y494095D01*
X738958Y494105D01*
X739025Y494184D01*
X739096Y494259D01*
X739105Y494277D01*
X739118Y494292D01*
X739156Y494388D01*
X739200Y494482D01*
X739202Y494502D01*
X739210Y494520D01*
X739228Y494687D01*
X739228Y495913D01*
X739225Y495933D01*
X739227Y495952D01*
X739205Y496054D01*
X739188Y496156D01*
X739179Y496173D01*
X739175Y496193D01*
X739122Y496282D01*
X739073Y496373D01*
X739059Y496387D01*
X739049Y496404D01*
X738970Y496471D01*
X738895Y496543D01*
X738877Y496551D01*
X738862Y496564D01*
X738765Y496603D01*
X738672Y496646D01*
X738652Y496648D01*
X738634Y496656D01*
X738467Y496674D01*
X730039Y496674D01*
X730039Y498384D01*
X730212Y499031D01*
X730577Y499662D01*
X730592Y499703D01*
X730616Y499740D01*
X730636Y499817D01*
X730664Y499892D01*
X730666Y499936D01*
X730676Y499978D01*
X730670Y500058D01*
X730673Y500138D01*
X730660Y500180D01*
X730657Y500224D01*
X730626Y500297D01*
X730603Y500374D01*
X730578Y500410D01*
X730561Y500450D01*
X730470Y500564D01*
X730462Y500575D01*
X730459Y500577D01*
X730456Y500581D01*
X730039Y500998D01*
X730039Y508602D01*
X731528Y510091D01*
X733536Y510091D01*
X733571Y510097D01*
X733607Y510094D01*
X733692Y510116D01*
X733778Y510130D01*
X733810Y510147D01*
X733845Y510156D01*
X733989Y510241D01*
X734435Y510572D01*
X734458Y510595D01*
X734520Y510645D01*
X735111Y511236D01*
X735519Y511405D01*
X735527Y511410D01*
X735536Y511412D01*
X735681Y511497D01*
X736036Y511760D01*
X736847Y511964D01*
X736877Y511977D01*
X736953Y511999D01*
X737725Y512319D01*
X738167Y512319D01*
X738176Y512320D01*
X738186Y512319D01*
X738352Y512342D01*
X738780Y512449D01*
X739607Y512327D01*
X739640Y512327D01*
X739719Y512319D01*
X750461Y512319D01*
X753075Y511236D01*
X755183Y509128D01*
X758886Y505425D01*
X759969Y502811D01*
X759969Y494792D01*
X759970Y494782D01*
X759970Y494776D01*
X759971Y494768D01*
X759970Y494753D01*
X759992Y494651D01*
X760008Y494549D01*
X760018Y494532D01*
X760022Y494512D01*
X760075Y494423D01*
X760124Y494332D01*
X760138Y494318D01*
X760148Y494301D01*
X760227Y494234D01*
X760302Y494162D01*
X760320Y494154D01*
X760335Y494141D01*
X760431Y494102D01*
X760525Y494059D01*
X760545Y494057D01*
X760563Y494049D01*
X760730Y494031D01*
X955148Y494031D01*
X955218Y494042D01*
X955290Y494044D01*
X955339Y494062D01*
X955390Y494070D01*
X955454Y494104D01*
X955521Y494129D01*
X955562Y494161D01*
X955608Y494186D01*
X955657Y494238D01*
X955713Y494282D01*
X955741Y494326D01*
X955777Y494364D01*
X955807Y494429D01*
X955846Y494489D01*
X955859Y494540D01*
X955881Y494587D01*
X955889Y494658D01*
X955906Y494728D01*
X955902Y494780D01*
X955908Y494831D01*
X955893Y494902D01*
X955887Y494973D01*
X955867Y495021D01*
X955856Y495072D01*
X955819Y495133D01*
X955791Y495199D01*
X955746Y495255D01*
X955729Y495283D01*
X955712Y495298D01*
X955708Y495302D01*
X955706Y495306D01*
X955703Y495309D01*
X955686Y495330D01*
X952679Y498337D01*
X950861Y502725D01*
X950861Y506376D01*
X950847Y506467D01*
X950839Y506557D01*
X950827Y506587D01*
X950822Y506619D01*
X950779Y506700D01*
X950743Y506784D01*
X950717Y506816D01*
X950706Y506837D01*
X950683Y506859D01*
X950638Y506915D01*
X947232Y510321D01*
X946149Y512935D01*
X946149Y542186D01*
X946135Y542276D01*
X946127Y542367D01*
X946115Y542397D01*
X946110Y542429D01*
X946067Y542509D01*
X946031Y542593D01*
X946005Y542625D01*
X945994Y542646D01*
X945971Y542668D01*
X945926Y542724D01*
X944496Y544154D01*
X942949Y547889D01*
X942949Y567171D01*
X944496Y570906D01*
X947354Y573764D01*
X951089Y575311D01*
X955131Y575311D01*
X958866Y573764D01*
X961724Y570906D01*
X963271Y567171D01*
X963271Y547889D01*
X961724Y544154D01*
X960598Y543028D01*
X960545Y542954D01*
X960485Y542885D01*
X960473Y542855D01*
X960454Y542829D01*
X960427Y542742D01*
X960393Y542657D01*
X960389Y542616D01*
X960382Y542593D01*
X960383Y542561D01*
X960375Y542490D01*
X960375Y517800D01*
X960378Y517780D01*
X960376Y517761D01*
X960398Y517659D01*
X960414Y517557D01*
X960424Y517540D01*
X960428Y517520D01*
X960481Y517431D01*
X960530Y517340D01*
X960544Y517326D01*
X960554Y517309D01*
X960633Y517242D01*
X960708Y517170D01*
X960726Y517162D01*
X960741Y517149D01*
X960837Y517110D01*
X960931Y517067D01*
X960951Y517065D01*
X960969Y517057D01*
X961136Y517039D01*
X965175Y517039D01*
X969563Y515221D01*
X970758Y514026D01*
X970816Y513984D01*
X970868Y513935D01*
X970915Y513913D01*
X970957Y513883D01*
X971026Y513862D01*
X971091Y513831D01*
X971143Y513826D01*
X971193Y513810D01*
X971264Y513812D01*
X971335Y513804D01*
X971386Y513815D01*
X971438Y513817D01*
X971506Y513841D01*
X971576Y513856D01*
X971621Y513883D01*
X971669Y513901D01*
X971725Y513946D01*
X971787Y513983D01*
X971821Y514022D01*
X971861Y514055D01*
X971900Y514115D01*
X971947Y514170D01*
X971966Y514218D01*
X971994Y514262D01*
X972012Y514331D01*
X972039Y514398D01*
X972047Y514469D01*
X972055Y514500D01*
X972053Y514524D01*
X972057Y514564D01*
X972057Y541678D01*
X972043Y541768D01*
X972035Y541859D01*
X972023Y541889D01*
X972018Y541921D01*
X971975Y542001D01*
X971939Y542085D01*
X971913Y542117D01*
X971902Y542138D01*
X971879Y542160D01*
X971834Y542216D01*
X969896Y544154D01*
X968349Y547889D01*
X968349Y567171D01*
X969896Y570906D01*
X970166Y571176D01*
X970208Y571234D01*
X970258Y571286D01*
X970279Y571333D01*
X970310Y571375D01*
X970331Y571444D01*
X970361Y571509D01*
X970367Y571561D01*
X970382Y571611D01*
X970380Y571682D01*
X970388Y571753D01*
X970377Y571804D01*
X970376Y571856D01*
X970351Y571924D01*
X970336Y571994D01*
X970309Y572039D01*
X970291Y572087D01*
X970247Y572143D01*
X970210Y572205D01*
X970170Y572239D01*
X970138Y572279D01*
X970077Y572318D01*
X970023Y572365D01*
X969975Y572384D01*
X969931Y572412D01*
X969861Y572430D01*
X969795Y572457D01*
X969723Y572465D01*
X969692Y572473D01*
X969669Y572471D01*
X969628Y572475D01*
X966514Y572475D01*
X960073Y575143D01*
X955143Y580073D01*
X952475Y586514D01*
X952475Y593486D01*
X955143Y599927D01*
X960073Y604857D01*
X966514Y607525D01*
X973486Y607525D01*
X979927Y604857D01*
X984857Y599927D01*
X987525Y593486D01*
X987525Y586514D01*
X984857Y580073D01*
X981028Y576244D01*
X981001Y576207D01*
X980967Y576176D01*
X980930Y576108D01*
X980884Y576044D01*
X980871Y576001D01*
X980849Y575960D01*
X980835Y575884D01*
X980812Y575809D01*
X980813Y575764D01*
X980805Y575718D01*
X980816Y575641D01*
X980818Y575564D01*
X980834Y575520D01*
X980841Y575475D01*
X980876Y575406D01*
X980903Y575332D01*
X980932Y575297D01*
X980952Y575256D01*
X981008Y575201D01*
X981057Y575140D01*
X981095Y575116D01*
X981128Y575083D01*
X981248Y575018D01*
X981263Y575007D01*
X981268Y575006D01*
X981275Y575003D01*
X984266Y573764D01*
X987124Y570906D01*
X988671Y567171D01*
X988671Y547889D01*
X987124Y544154D01*
X986506Y543536D01*
X986453Y543462D01*
X986393Y543393D01*
X986381Y543363D01*
X986362Y543337D01*
X986335Y543250D01*
X986301Y543165D01*
X986297Y543124D01*
X986290Y543101D01*
X986291Y543069D01*
X986283Y542998D01*
X986283Y513946D01*
X986293Y513881D01*
X986294Y513816D01*
X986317Y513736D01*
X986322Y513703D01*
X986332Y513686D01*
X986341Y513655D01*
X987045Y511955D01*
X987045Y470263D01*
X985962Y467649D01*
X974962Y456649D01*
X974909Y456575D01*
X974849Y456505D01*
X974837Y456475D01*
X974818Y456449D01*
X974791Y456362D01*
X974757Y456277D01*
X974753Y456236D01*
X974746Y456214D01*
X974747Y456182D01*
X974739Y456110D01*
X974739Y451925D01*
X972921Y447537D01*
X969563Y444179D01*
X965175Y442361D01*
X960990Y442361D01*
X960899Y442347D01*
X960809Y442339D01*
X960779Y442327D01*
X960747Y442322D01*
X960666Y442279D01*
X960582Y442243D01*
X960550Y442217D01*
X960529Y442206D01*
X960507Y442183D01*
X960451Y442138D01*
X844774Y326461D01*
X844721Y326387D01*
X844661Y326317D01*
X844649Y326287D01*
X844630Y326261D01*
X844603Y326174D01*
X844569Y326089D01*
X844565Y326048D01*
X844558Y326026D01*
X844559Y325994D01*
X844551Y325922D01*
X844551Y271932D01*
X844554Y271912D01*
X844552Y271893D01*
X844574Y271791D01*
X844590Y271689D01*
X844600Y271672D01*
X844604Y271652D01*
X844657Y271563D01*
X844706Y271472D01*
X844720Y271458D01*
X844730Y271441D01*
X844809Y271374D01*
X844884Y271302D01*
X844902Y271294D01*
X844917Y271281D01*
X845013Y271242D01*
X845107Y271199D01*
X845127Y271197D01*
X845145Y271189D01*
X845312Y271171D01*
X850742Y271171D01*
X852231Y269682D01*
X852231Y242578D01*
X850742Y241089D01*
X823638Y241089D01*
G37*
%LPD*%
G36*
X602673Y492521D02*
X602673Y492521D01*
X602764Y492529D01*
X602793Y492541D01*
X602825Y492546D01*
X602906Y492589D01*
X602990Y492625D01*
X603022Y492651D01*
X603043Y492662D01*
X603065Y492685D01*
X603068Y492687D01*
X603070Y492689D01*
X603121Y492730D01*
X659001Y548610D01*
X659043Y548668D01*
X659092Y548720D01*
X659114Y548767D01*
X659145Y548809D01*
X659166Y548878D01*
X659196Y548943D01*
X659202Y548995D01*
X659217Y549045D01*
X659215Y549116D01*
X659223Y549187D01*
X659212Y549238D01*
X659211Y549290D01*
X659186Y549358D01*
X659171Y549428D01*
X659144Y549473D01*
X659126Y549521D01*
X659081Y549577D01*
X659044Y549639D01*
X659005Y549673D01*
X658972Y549713D01*
X658912Y549752D01*
X658858Y549799D01*
X658809Y549818D01*
X658765Y549846D01*
X658696Y549864D01*
X658629Y549891D01*
X658558Y549899D01*
X658527Y549907D01*
X658504Y549905D01*
X658463Y549909D01*
X340011Y549909D01*
X339921Y549895D01*
X339830Y549887D01*
X339801Y549875D01*
X339769Y549870D01*
X339688Y549827D01*
X339604Y549791D01*
X339572Y549765D01*
X339551Y549754D01*
X339529Y549731D01*
X339473Y549686D01*
X304929Y515142D01*
X304887Y515084D01*
X304838Y515032D01*
X304816Y514985D01*
X304785Y514943D01*
X304764Y514874D01*
X304734Y514809D01*
X304728Y514757D01*
X304713Y514707D01*
X304715Y514636D01*
X304707Y514565D01*
X304718Y514514D01*
X304719Y514462D01*
X304744Y514394D01*
X304759Y514324D01*
X304786Y514279D01*
X304804Y514231D01*
X304849Y514175D01*
X304886Y514113D01*
X304925Y514079D01*
X304958Y514039D01*
X305018Y514000D01*
X305072Y513953D01*
X305121Y513934D01*
X305165Y513906D01*
X305234Y513888D01*
X305301Y513861D01*
X305372Y513853D01*
X305403Y513845D01*
X305426Y513847D01*
X305467Y513843D01*
X555638Y513843D01*
X555658Y513846D01*
X555677Y513844D01*
X555779Y513866D01*
X555881Y513882D01*
X555898Y513892D01*
X555918Y513896D01*
X556007Y513949D01*
X556098Y513998D01*
X556112Y514012D01*
X556129Y514022D01*
X556196Y514101D01*
X556268Y514176D01*
X556276Y514194D01*
X556289Y514209D01*
X556328Y514305D01*
X556371Y514399D01*
X556373Y514419D01*
X556381Y514437D01*
X556399Y514604D01*
X556399Y517641D01*
X557946Y521376D01*
X560804Y524234D01*
X564539Y525781D01*
X568581Y525781D01*
X572316Y524234D01*
X575174Y521376D01*
X576721Y517641D01*
X576721Y516128D01*
X576724Y516109D01*
X576722Y516091D01*
X576722Y516090D01*
X576722Y516089D01*
X576744Y515987D01*
X576760Y515885D01*
X576770Y515868D01*
X576774Y515848D01*
X576827Y515759D01*
X576876Y515668D01*
X576890Y515654D01*
X576900Y515637D01*
X576979Y515570D01*
X577054Y515498D01*
X577072Y515490D01*
X577087Y515477D01*
X577183Y515438D01*
X577277Y515395D01*
X577297Y515393D01*
X577315Y515385D01*
X577482Y515367D01*
X581038Y515367D01*
X581058Y515370D01*
X581077Y515368D01*
X581179Y515390D01*
X581281Y515406D01*
X581298Y515416D01*
X581318Y515420D01*
X581407Y515473D01*
X581498Y515522D01*
X581512Y515536D01*
X581529Y515546D01*
X581596Y515625D01*
X581668Y515700D01*
X581676Y515718D01*
X581689Y515733D01*
X581728Y515829D01*
X581771Y515923D01*
X581773Y515943D01*
X581781Y515961D01*
X581799Y516128D01*
X581799Y517641D01*
X583346Y521376D01*
X586204Y524234D01*
X589939Y525781D01*
X593981Y525781D01*
X597716Y524234D01*
X600574Y521376D01*
X602121Y517641D01*
X602121Y498359D01*
X600574Y494624D01*
X599756Y493806D01*
X599714Y493748D01*
X599664Y493696D01*
X599643Y493649D01*
X599612Y493607D01*
X599591Y493538D01*
X599561Y493473D01*
X599555Y493421D01*
X599540Y493371D01*
X599542Y493300D01*
X599534Y493229D01*
X599545Y493178D01*
X599546Y493126D01*
X599571Y493058D01*
X599586Y492988D01*
X599613Y492943D01*
X599631Y492895D01*
X599675Y492839D01*
X599712Y492777D01*
X599752Y492743D01*
X599784Y492703D01*
X599845Y492664D01*
X599899Y492617D01*
X599947Y492598D01*
X599991Y492570D01*
X600061Y492552D01*
X600127Y492525D01*
X600199Y492517D01*
X600230Y492509D01*
X600253Y492511D01*
X600294Y492507D01*
X602583Y492507D01*
X602673Y492521D01*
G37*
G36*
X3158Y314835D02*
X3158Y314835D01*
X3229Y314841D01*
X3277Y314861D01*
X3328Y314872D01*
X3389Y314909D01*
X3455Y314937D01*
X3511Y314982D01*
X3539Y314998D01*
X3554Y315016D01*
X3586Y315042D01*
X4856Y316312D01*
X4909Y316386D01*
X4969Y316455D01*
X4981Y316485D01*
X5000Y316512D01*
X5027Y316599D01*
X5061Y316684D01*
X5065Y316724D01*
X5072Y316747D01*
X5071Y316779D01*
X5079Y316850D01*
X5079Y528672D01*
X58665Y582258D01*
X58677Y582274D01*
X58692Y582287D01*
X58749Y582374D01*
X58809Y582458D01*
X58815Y582477D01*
X58825Y582494D01*
X58851Y582594D01*
X58881Y582693D01*
X58881Y582713D01*
X58885Y582732D01*
X58877Y582835D01*
X58875Y582939D01*
X58868Y582957D01*
X58866Y582977D01*
X58826Y583072D01*
X58790Y583170D01*
X58778Y583185D01*
X58770Y583204D01*
X58665Y583335D01*
X58569Y583430D01*
X58569Y591782D01*
X60816Y594029D01*
X60862Y594093D01*
X60880Y594111D01*
X60883Y594119D01*
X60929Y594172D01*
X60941Y594202D01*
X60960Y594228D01*
X60987Y594315D01*
X61021Y594400D01*
X61025Y594441D01*
X61032Y594463D01*
X61031Y594496D01*
X61039Y594567D01*
X61039Y616454D01*
X61053Y616472D01*
X61102Y616524D01*
X61124Y616571D01*
X61154Y616613D01*
X61175Y616682D01*
X61205Y616747D01*
X61211Y616799D01*
X61227Y616848D01*
X61225Y616920D01*
X61233Y616991D01*
X61221Y617042D01*
X61220Y617094D01*
X61196Y617162D01*
X61180Y617232D01*
X61154Y617277D01*
X61136Y617325D01*
X61091Y617381D01*
X61054Y617443D01*
X61015Y617477D01*
X60982Y617517D01*
X60922Y617556D01*
X60867Y617603D01*
X60819Y617622D01*
X60775Y617650D01*
X60706Y617668D01*
X60639Y617695D01*
X60568Y617703D01*
X60537Y617711D01*
X60513Y617709D01*
X60472Y617713D01*
X30000Y617713D01*
X29978Y617710D01*
X29940Y617711D01*
X25724Y617379D01*
X25719Y617378D01*
X25713Y617378D01*
X25549Y617344D01*
X17529Y614738D01*
X17497Y614722D01*
X17462Y614713D01*
X17317Y614630D01*
X10495Y609674D01*
X10469Y609648D01*
X10439Y609629D01*
X10326Y609505D01*
X5370Y602683D01*
X5354Y602651D01*
X5331Y602624D01*
X5262Y602471D01*
X2656Y594451D01*
X2655Y594446D01*
X2652Y594441D01*
X2621Y594276D01*
X2289Y590060D01*
X2291Y590038D01*
X2287Y590000D01*
X2287Y315580D01*
X2298Y315510D01*
X2300Y315438D01*
X2318Y315389D01*
X2326Y315337D01*
X2360Y315274D01*
X2385Y315207D01*
X2417Y315166D01*
X2442Y315120D01*
X2494Y315071D01*
X2538Y315015D01*
X2582Y314987D01*
X2620Y314951D01*
X2685Y314921D01*
X2745Y314882D01*
X2796Y314869D01*
X2843Y314847D01*
X2914Y314839D01*
X2984Y314822D01*
X3036Y314826D01*
X3087Y314820D01*
X3158Y314835D01*
G37*
G36*
X12993Y315592D02*
X12993Y315592D01*
X13096Y315594D01*
X13115Y315601D01*
X13135Y315603D01*
X13230Y315643D01*
X13327Y315679D01*
X13343Y315691D01*
X13361Y315699D01*
X13492Y315804D01*
X14000Y316312D01*
X14054Y316386D01*
X14113Y316455D01*
X14125Y316485D01*
X14144Y316512D01*
X14171Y316599D01*
X14205Y316684D01*
X14209Y316725D01*
X14216Y316747D01*
X14215Y316779D01*
X14223Y316850D01*
X14223Y497430D01*
X86216Y569423D01*
X86269Y569497D01*
X86329Y569566D01*
X86341Y569597D01*
X86360Y569623D01*
X86387Y569710D01*
X86421Y569795D01*
X86425Y569836D01*
X86432Y569858D01*
X86431Y569890D01*
X86439Y569961D01*
X86439Y580645D01*
X86425Y580735D01*
X86417Y580826D01*
X86405Y580856D01*
X86400Y580888D01*
X86357Y580969D01*
X86321Y581052D01*
X86295Y581085D01*
X86284Y581105D01*
X86261Y581127D01*
X86216Y581183D01*
X83969Y583430D01*
X83969Y591782D01*
X89874Y597687D01*
X98226Y597687D01*
X104131Y591782D01*
X104131Y583430D01*
X101744Y581043D01*
X101691Y580969D01*
X101631Y580900D01*
X101619Y580870D01*
X101600Y580844D01*
X101573Y580757D01*
X101539Y580672D01*
X101535Y580631D01*
X101528Y580609D01*
X101529Y580576D01*
X101521Y580505D01*
X101521Y565229D01*
X101532Y565159D01*
X101534Y565087D01*
X101552Y565038D01*
X101560Y564987D01*
X101594Y564923D01*
X101619Y564856D01*
X101651Y564815D01*
X101676Y564769D01*
X101727Y564720D01*
X101772Y564664D01*
X101816Y564636D01*
X101854Y564600D01*
X101919Y564570D01*
X101979Y564531D01*
X102030Y564518D01*
X102077Y564496D01*
X102148Y564488D01*
X102218Y564471D01*
X102270Y564475D01*
X102321Y564469D01*
X102392Y564484D01*
X102463Y564490D01*
X102511Y564510D01*
X102562Y564521D01*
X102623Y564558D01*
X102689Y564586D01*
X102745Y564631D01*
X102773Y564648D01*
X102788Y564665D01*
X102820Y564691D01*
X114926Y576797D01*
X114938Y576813D01*
X114953Y576826D01*
X115010Y576913D01*
X115070Y576997D01*
X115076Y577016D01*
X115086Y577032D01*
X115112Y577133D01*
X115142Y577232D01*
X115142Y577252D01*
X115146Y577271D01*
X115138Y577374D01*
X115136Y577478D01*
X115129Y577496D01*
X115127Y577516D01*
X115087Y577611D01*
X115051Y577709D01*
X115039Y577724D01*
X115031Y577743D01*
X114926Y577874D01*
X109369Y583430D01*
X109369Y591782D01*
X111616Y594029D01*
X111662Y594093D01*
X111680Y594111D01*
X111683Y594119D01*
X111729Y594172D01*
X111741Y594202D01*
X111760Y594228D01*
X111787Y594315D01*
X111821Y594400D01*
X111825Y594441D01*
X111832Y594463D01*
X111831Y594496D01*
X111839Y594567D01*
X111839Y616454D01*
X111853Y616472D01*
X111902Y616524D01*
X111924Y616571D01*
X111954Y616613D01*
X111975Y616682D01*
X112005Y616747D01*
X112011Y616799D01*
X112027Y616848D01*
X112025Y616920D01*
X112033Y616991D01*
X112021Y617042D01*
X112020Y617094D01*
X111996Y617162D01*
X111980Y617232D01*
X111954Y617277D01*
X111936Y617325D01*
X111891Y617381D01*
X111854Y617443D01*
X111815Y617477D01*
X111782Y617517D01*
X111722Y617556D01*
X111667Y617603D01*
X111619Y617622D01*
X111575Y617650D01*
X111506Y617668D01*
X111439Y617695D01*
X111368Y617703D01*
X111337Y617711D01*
X111313Y617709D01*
X111272Y617713D01*
X76688Y617713D01*
X76617Y617702D01*
X76545Y617700D01*
X76496Y617682D01*
X76445Y617674D01*
X76382Y617640D01*
X76314Y617615D01*
X76273Y617583D01*
X76228Y617558D01*
X76178Y617507D01*
X76122Y617462D01*
X76094Y617418D01*
X76058Y617380D01*
X76028Y617315D01*
X75989Y617255D01*
X75976Y617204D01*
X75955Y617157D01*
X75947Y617086D01*
X75929Y617016D01*
X75933Y616964D01*
X75927Y616913D01*
X75943Y616842D01*
X75948Y616771D01*
X75969Y616723D01*
X75980Y616672D01*
X76017Y616611D01*
X76045Y616545D01*
X76089Y616489D01*
X76106Y616461D01*
X76121Y616448D01*
X76121Y594707D01*
X76135Y594617D01*
X76143Y594526D01*
X76155Y594496D01*
X76160Y594464D01*
X76203Y594383D01*
X76239Y594300D01*
X76265Y594267D01*
X76276Y594247D01*
X76299Y594225D01*
X76344Y594169D01*
X78731Y591782D01*
X78731Y583430D01*
X72826Y577525D01*
X64474Y577525D01*
X64413Y577587D01*
X64396Y577599D01*
X64384Y577614D01*
X64311Y577661D01*
X64288Y577681D01*
X64274Y577687D01*
X64213Y577731D01*
X64194Y577737D01*
X64177Y577747D01*
X64077Y577773D01*
X63978Y577803D01*
X63958Y577803D01*
X63938Y577807D01*
X63835Y577799D01*
X63732Y577797D01*
X63713Y577790D01*
X63693Y577788D01*
X63598Y577748D01*
X63501Y577712D01*
X63485Y577700D01*
X63467Y577692D01*
X63403Y577641D01*
X63396Y577637D01*
X63388Y577629D01*
X63336Y577587D01*
X11908Y526159D01*
X11855Y526085D01*
X11795Y526016D01*
X11783Y525985D01*
X11764Y525959D01*
X11737Y525872D01*
X11703Y525787D01*
X11699Y525746D01*
X11692Y525724D01*
X11693Y525692D01*
X11685Y525621D01*
X11685Y316850D01*
X11699Y316760D01*
X11707Y316669D01*
X11719Y316640D01*
X11724Y316608D01*
X11767Y316527D01*
X11803Y316443D01*
X11829Y316411D01*
X11840Y316390D01*
X11863Y316368D01*
X11908Y316312D01*
X12416Y315804D01*
X12432Y315792D01*
X12444Y315777D01*
X12531Y315721D01*
X12615Y315660D01*
X12634Y315655D01*
X12651Y315644D01*
X12752Y315619D01*
X12851Y315588D01*
X12871Y315589D01*
X12890Y315584D01*
X12993Y315592D01*
G37*
%LPC*%
G36*
X855388Y241089D02*
X855388Y241089D01*
X853899Y242578D01*
X853899Y269682D01*
X855388Y271171D01*
X861131Y271171D01*
X861245Y271190D01*
X861361Y271207D01*
X861367Y271209D01*
X861373Y271210D01*
X861476Y271265D01*
X861581Y271318D01*
X861585Y271323D01*
X861591Y271326D01*
X861671Y271410D01*
X861753Y271494D01*
X861757Y271500D01*
X861760Y271504D01*
X861768Y271521D01*
X861834Y271641D01*
X862910Y274239D01*
X865018Y276347D01*
X947079Y358408D01*
X947106Y358445D01*
X947140Y358476D01*
X947177Y358545D01*
X947222Y358608D01*
X947236Y358651D01*
X947258Y358692D01*
X947272Y358768D01*
X947295Y358843D01*
X947294Y358889D01*
X947302Y358934D01*
X947291Y359011D01*
X947288Y359089D01*
X947273Y359132D01*
X947266Y359177D01*
X947231Y359246D01*
X947204Y359320D01*
X947175Y359355D01*
X947155Y359396D01*
X947099Y359451D01*
X947050Y359512D01*
X947012Y359536D01*
X946979Y359569D01*
X946859Y359635D01*
X946843Y359645D01*
X946839Y359646D01*
X946832Y359649D01*
X944081Y360789D01*
X940723Y364147D01*
X938905Y368535D01*
X938905Y373285D01*
X940723Y377673D01*
X944081Y381031D01*
X948469Y382849D01*
X972015Y382849D01*
X976403Y381031D01*
X979761Y377673D01*
X981579Y373285D01*
X981579Y368535D01*
X979761Y364147D01*
X976403Y360789D01*
X972015Y358971D01*
X968075Y358971D01*
X967985Y358957D01*
X967894Y358949D01*
X967865Y358937D01*
X967833Y358932D01*
X967752Y358889D01*
X967668Y358853D01*
X967636Y358827D01*
X967615Y358816D01*
X967593Y358793D01*
X967537Y358748D01*
X881259Y272470D01*
X881217Y272412D01*
X881168Y272360D01*
X881146Y272313D01*
X881116Y272271D01*
X881095Y272202D01*
X881064Y272137D01*
X881059Y272085D01*
X881043Y272035D01*
X881045Y271964D01*
X881037Y271893D01*
X881048Y271842D01*
X881050Y271790D01*
X881074Y271722D01*
X881089Y271652D01*
X881116Y271608D01*
X881134Y271559D01*
X881179Y271503D01*
X881216Y271441D01*
X881255Y271407D01*
X881288Y271367D01*
X881348Y271328D01*
X881403Y271281D01*
X881451Y271262D01*
X881495Y271234D01*
X881564Y271216D01*
X881631Y271189D01*
X881702Y271181D01*
X881733Y271173D01*
X881757Y271175D01*
X881797Y271171D01*
X882492Y271171D01*
X883981Y269682D01*
X883981Y242578D01*
X882492Y241089D01*
X855388Y241089D01*
G37*
%LPD*%
%LPC*%
G36*
X931588Y241089D02*
X931588Y241089D01*
X930099Y242578D01*
X930099Y269682D01*
X931588Y271171D01*
X937266Y271171D01*
X937286Y271174D01*
X937305Y271172D01*
X937407Y271194D01*
X937509Y271210D01*
X937526Y271220D01*
X937546Y271224D01*
X937635Y271277D01*
X937726Y271326D01*
X937740Y271340D01*
X937757Y271350D01*
X937824Y271429D01*
X937896Y271504D01*
X937904Y271522D01*
X937917Y271537D01*
X937956Y271633D01*
X937999Y271727D01*
X938001Y271747D01*
X938009Y271765D01*
X938027Y271932D01*
X938027Y295755D01*
X939110Y298369D01*
X941218Y300477D01*
X947079Y306338D01*
X947106Y306375D01*
X947140Y306406D01*
X947177Y306474D01*
X947222Y306538D01*
X947236Y306581D01*
X947258Y306622D01*
X947272Y306698D01*
X947295Y306773D01*
X947294Y306819D01*
X947302Y306864D01*
X947291Y306941D01*
X947288Y307019D01*
X947273Y307062D01*
X947266Y307107D01*
X947231Y307176D01*
X947204Y307250D01*
X947175Y307285D01*
X947155Y307326D01*
X947099Y307381D01*
X947050Y307442D01*
X947012Y307466D01*
X946979Y307499D01*
X946859Y307565D01*
X946843Y307575D01*
X946839Y307576D01*
X946832Y307579D01*
X944081Y308719D01*
X940723Y312077D01*
X938905Y316465D01*
X938905Y321215D01*
X940723Y325603D01*
X944081Y328961D01*
X948469Y330779D01*
X972015Y330779D01*
X976403Y328961D01*
X979761Y325603D01*
X981579Y321215D01*
X981579Y316465D01*
X979761Y312077D01*
X976403Y308719D01*
X972015Y306901D01*
X968075Y306901D01*
X967985Y306887D01*
X967894Y306879D01*
X967865Y306867D01*
X967833Y306862D01*
X967752Y306819D01*
X967668Y306783D01*
X967636Y306757D01*
X967615Y306746D01*
X967593Y306723D01*
X967537Y306678D01*
X952476Y291617D01*
X952423Y291543D01*
X952363Y291473D01*
X952351Y291443D01*
X952332Y291417D01*
X952305Y291330D01*
X952271Y291245D01*
X952267Y291204D01*
X952260Y291182D01*
X952261Y291150D01*
X952253Y291078D01*
X952253Y271932D01*
X952256Y271912D01*
X952254Y271893D01*
X952276Y271791D01*
X952292Y271689D01*
X952302Y271672D01*
X952306Y271652D01*
X952359Y271563D01*
X952408Y271472D01*
X952422Y271458D01*
X952432Y271441D01*
X952511Y271374D01*
X952586Y271302D01*
X952604Y271294D01*
X952619Y271281D01*
X952715Y271242D01*
X952809Y271199D01*
X952829Y271197D01*
X952847Y271189D01*
X953014Y271171D01*
X958692Y271171D01*
X960181Y269682D01*
X960181Y242578D01*
X958692Y241089D01*
X931588Y241089D01*
G37*
%LPD*%
G36*
X725628Y555756D02*
X725628Y555756D01*
X725647Y555754D01*
X725749Y555776D01*
X725851Y555792D01*
X725868Y555802D01*
X725888Y555806D01*
X725977Y555859D01*
X726068Y555908D01*
X726082Y555922D01*
X726099Y555932D01*
X726166Y556011D01*
X726238Y556086D01*
X726246Y556104D01*
X726259Y556119D01*
X726298Y556215D01*
X726341Y556309D01*
X726343Y556329D01*
X726351Y556347D01*
X726369Y556514D01*
X726369Y572831D01*
X726355Y572922D01*
X726347Y573012D01*
X726335Y573042D01*
X726330Y573074D01*
X726287Y573155D01*
X726251Y573239D01*
X726225Y573271D01*
X726214Y573292D01*
X726191Y573314D01*
X726146Y573370D01*
X723399Y576117D01*
X721581Y580505D01*
X721581Y585255D01*
X723399Y589643D01*
X726146Y592390D01*
X726199Y592464D01*
X726259Y592534D01*
X726271Y592564D01*
X726290Y592590D01*
X726317Y592677D01*
X726351Y592762D01*
X726355Y592803D01*
X726362Y592825D01*
X726361Y592857D01*
X726369Y592929D01*
X726369Y608584D01*
X726366Y608604D01*
X726368Y608623D01*
X726346Y608725D01*
X726330Y608827D01*
X726320Y608844D01*
X726316Y608864D01*
X726263Y608953D01*
X726214Y609044D01*
X726200Y609058D01*
X726190Y609075D01*
X726111Y609142D01*
X726036Y609214D01*
X726018Y609222D01*
X726003Y609235D01*
X725907Y609274D01*
X725813Y609317D01*
X725793Y609319D01*
X725775Y609327D01*
X725608Y609345D01*
X724821Y609345D01*
X724731Y609331D01*
X724640Y609323D01*
X724611Y609311D01*
X724579Y609306D01*
X724498Y609263D01*
X724414Y609227D01*
X724382Y609201D01*
X724361Y609190D01*
X724339Y609167D01*
X724283Y609122D01*
X672213Y557052D01*
X672171Y556994D01*
X672122Y556942D01*
X672100Y556895D01*
X672069Y556853D01*
X672048Y556784D01*
X672018Y556719D01*
X672012Y556667D01*
X671997Y556617D01*
X671999Y556546D01*
X671991Y556475D01*
X672002Y556424D01*
X672003Y556372D01*
X672028Y556304D01*
X672043Y556234D01*
X672070Y556189D01*
X672088Y556141D01*
X672133Y556085D01*
X672170Y556023D01*
X672209Y555989D01*
X672242Y555949D01*
X672302Y555910D01*
X672356Y555863D01*
X672405Y555844D01*
X672449Y555816D01*
X672518Y555798D01*
X672585Y555771D01*
X672656Y555763D01*
X672687Y555755D01*
X672710Y555757D01*
X672751Y555753D01*
X725608Y555753D01*
X725628Y555756D01*
G37*
%LPC*%
G36*
X26514Y12475D02*
X26514Y12475D01*
X20073Y15143D01*
X15143Y20073D01*
X12475Y26514D01*
X12475Y33486D01*
X15143Y39927D01*
X20073Y44857D01*
X26514Y47525D01*
X33486Y47525D01*
X39927Y44857D01*
X44857Y39927D01*
X47525Y33486D01*
X47525Y26514D01*
X44857Y20073D01*
X39927Y15143D01*
X33486Y12475D01*
X26514Y12475D01*
G37*
%LPD*%
%LPC*%
G36*
X26514Y572475D02*
X26514Y572475D01*
X20073Y575143D01*
X15143Y580073D01*
X12475Y586514D01*
X12475Y593486D01*
X15143Y599927D01*
X20073Y604857D01*
X26514Y607525D01*
X33486Y607525D01*
X39927Y604857D01*
X44857Y599927D01*
X47525Y593486D01*
X47525Y586514D01*
X44857Y580073D01*
X39927Y575143D01*
X33486Y572475D01*
X26514Y572475D01*
G37*
%LPD*%
%LPC*%
G36*
X936514Y12475D02*
X936514Y12475D01*
X930073Y15143D01*
X925143Y20073D01*
X922475Y26514D01*
X922475Y33486D01*
X925143Y39927D01*
X930073Y44857D01*
X936514Y47525D01*
X943486Y47525D01*
X949927Y44857D01*
X954857Y39927D01*
X957525Y33486D01*
X957525Y26514D01*
X954857Y20073D01*
X949927Y15143D01*
X943486Y12475D01*
X936514Y12475D01*
G37*
%LPD*%
%LPC*%
G36*
X31049Y180593D02*
X31049Y180593D01*
X27408Y182101D01*
X26773Y182736D01*
X26700Y182789D01*
X26630Y182849D01*
X26600Y182861D01*
X26574Y182880D01*
X26487Y182907D01*
X26402Y182941D01*
X26361Y182945D01*
X26339Y182952D01*
X26306Y182951D01*
X26235Y182959D01*
X5468Y182959D01*
X3979Y184448D01*
X3979Y196552D01*
X5468Y198041D01*
X26235Y198041D01*
X26325Y198055D01*
X26416Y198063D01*
X26446Y198075D01*
X26478Y198080D01*
X26559Y198123D01*
X26642Y198159D01*
X26675Y198185D01*
X26695Y198196D01*
X26717Y198219D01*
X26773Y198264D01*
X27408Y198899D01*
X31049Y200407D01*
X34991Y200407D01*
X38632Y198899D01*
X39267Y198264D01*
X39340Y198211D01*
X39410Y198151D01*
X39440Y198139D01*
X39466Y198120D01*
X39553Y198093D01*
X39638Y198059D01*
X39679Y198055D01*
X39701Y198048D01*
X39734Y198049D01*
X39805Y198041D01*
X60572Y198041D01*
X62061Y196552D01*
X62061Y184448D01*
X60572Y182959D01*
X39805Y182959D01*
X39715Y182945D01*
X39624Y182937D01*
X39594Y182925D01*
X39562Y182920D01*
X39481Y182877D01*
X39398Y182841D01*
X39365Y182815D01*
X39345Y182804D01*
X39323Y182781D01*
X39267Y182736D01*
X38632Y182101D01*
X34991Y180593D01*
X31049Y180593D01*
G37*
%LPD*%
%LPC*%
G36*
X31049Y205993D02*
X31049Y205993D01*
X27408Y207501D01*
X26773Y208136D01*
X26700Y208189D01*
X26630Y208249D01*
X26600Y208261D01*
X26574Y208280D01*
X26487Y208307D01*
X26402Y208341D01*
X26361Y208345D01*
X26339Y208352D01*
X26306Y208351D01*
X26235Y208359D01*
X5468Y208359D01*
X3979Y209848D01*
X3979Y221952D01*
X5468Y223441D01*
X26235Y223441D01*
X26325Y223455D01*
X26416Y223463D01*
X26446Y223475D01*
X26478Y223480D01*
X26559Y223523D01*
X26642Y223559D01*
X26675Y223585D01*
X26695Y223596D01*
X26717Y223619D01*
X26773Y223664D01*
X27408Y224299D01*
X31049Y225807D01*
X34991Y225807D01*
X38632Y224299D01*
X39267Y223664D01*
X39340Y223611D01*
X39410Y223551D01*
X39440Y223539D01*
X39466Y223520D01*
X39553Y223493D01*
X39638Y223459D01*
X39679Y223455D01*
X39701Y223448D01*
X39734Y223449D01*
X39805Y223441D01*
X60572Y223441D01*
X62061Y221952D01*
X62061Y209848D01*
X60572Y208359D01*
X39805Y208359D01*
X39715Y208345D01*
X39624Y208337D01*
X39594Y208325D01*
X39562Y208320D01*
X39481Y208277D01*
X39398Y208241D01*
X39365Y208215D01*
X39345Y208204D01*
X39323Y208181D01*
X39267Y208136D01*
X38632Y207501D01*
X34991Y205993D01*
X31049Y205993D01*
G37*
%LPD*%
%LPC*%
G36*
X31049Y231393D02*
X31049Y231393D01*
X27408Y232901D01*
X26773Y233536D01*
X26700Y233589D01*
X26630Y233649D01*
X26600Y233661D01*
X26574Y233680D01*
X26487Y233707D01*
X26402Y233741D01*
X26361Y233745D01*
X26339Y233752D01*
X26306Y233751D01*
X26235Y233759D01*
X5468Y233759D01*
X3979Y235248D01*
X3979Y247352D01*
X5468Y248841D01*
X26235Y248841D01*
X26325Y248855D01*
X26416Y248863D01*
X26446Y248875D01*
X26478Y248880D01*
X26559Y248923D01*
X26642Y248959D01*
X26675Y248985D01*
X26695Y248996D01*
X26717Y249019D01*
X26773Y249064D01*
X27408Y249699D01*
X31049Y251207D01*
X34991Y251207D01*
X38632Y249699D01*
X39267Y249064D01*
X39340Y249011D01*
X39410Y248951D01*
X39440Y248939D01*
X39466Y248920D01*
X39553Y248893D01*
X39638Y248859D01*
X39679Y248855D01*
X39701Y248848D01*
X39734Y248849D01*
X39805Y248841D01*
X60572Y248841D01*
X62061Y247352D01*
X62061Y235248D01*
X60572Y233759D01*
X39805Y233759D01*
X39715Y233745D01*
X39624Y233737D01*
X39594Y233725D01*
X39562Y233720D01*
X39481Y233677D01*
X39398Y233641D01*
X39365Y233615D01*
X39345Y233604D01*
X39323Y233581D01*
X39267Y233536D01*
X38632Y232901D01*
X34991Y231393D01*
X31049Y231393D01*
G37*
%LPD*%
%LPC*%
G36*
X31049Y104393D02*
X31049Y104393D01*
X27408Y105901D01*
X26773Y106536D01*
X26700Y106589D01*
X26630Y106649D01*
X26600Y106661D01*
X26574Y106680D01*
X26487Y106707D01*
X26402Y106741D01*
X26361Y106745D01*
X26339Y106752D01*
X26306Y106751D01*
X26235Y106759D01*
X5468Y106759D01*
X3979Y108248D01*
X3979Y120352D01*
X5468Y121841D01*
X26235Y121841D01*
X26325Y121855D01*
X26416Y121863D01*
X26446Y121875D01*
X26478Y121880D01*
X26559Y121923D01*
X26642Y121959D01*
X26675Y121985D01*
X26695Y121996D01*
X26717Y122019D01*
X26773Y122064D01*
X27408Y122699D01*
X31049Y124207D01*
X34991Y124207D01*
X38632Y122699D01*
X39267Y122064D01*
X39341Y122011D01*
X39410Y121951D01*
X39440Y121939D01*
X39466Y121920D01*
X39553Y121893D01*
X39638Y121859D01*
X39679Y121855D01*
X39701Y121848D01*
X39734Y121849D01*
X39805Y121841D01*
X60572Y121841D01*
X62061Y120352D01*
X62061Y108248D01*
X60572Y106759D01*
X39805Y106759D01*
X39715Y106745D01*
X39624Y106737D01*
X39594Y106725D01*
X39562Y106720D01*
X39481Y106677D01*
X39397Y106641D01*
X39365Y106615D01*
X39345Y106604D01*
X39323Y106581D01*
X39267Y106536D01*
X38632Y105901D01*
X34991Y104393D01*
X31049Y104393D01*
G37*
%LPD*%
%LPC*%
G36*
X823638Y12489D02*
X823638Y12489D01*
X822149Y13978D01*
X822149Y41082D01*
X823638Y42571D01*
X850742Y42571D01*
X852231Y41082D01*
X852231Y13978D01*
X850742Y12489D01*
X823638Y12489D01*
G37*
%LPD*%
%LPC*%
G36*
X34543Y159766D02*
X34543Y159766D01*
X34540Y159786D01*
X34542Y159805D01*
X34520Y159907D01*
X34503Y160009D01*
X34494Y160026D01*
X34490Y160046D01*
X34437Y160135D01*
X34388Y160226D01*
X34374Y160240D01*
X34364Y160257D01*
X34285Y160324D01*
X34210Y160396D01*
X34192Y160404D01*
X34177Y160417D01*
X34081Y160456D01*
X33987Y160499D01*
X33967Y160501D01*
X33949Y160509D01*
X33782Y160527D01*
X32258Y160527D01*
X32238Y160524D01*
X32219Y160526D01*
X32117Y160504D01*
X32015Y160488D01*
X31998Y160478D01*
X31978Y160474D01*
X31889Y160421D01*
X31798Y160372D01*
X31784Y160358D01*
X31767Y160348D01*
X31700Y160269D01*
X31629Y160194D01*
X31620Y160176D01*
X31607Y160161D01*
X31568Y160065D01*
X31525Y159971D01*
X31523Y159951D01*
X31515Y159933D01*
X31497Y159766D01*
X31497Y155311D01*
X30700Y155437D01*
X29217Y155919D01*
X27828Y156627D01*
X26745Y157414D01*
X26716Y157428D01*
X26692Y157449D01*
X26607Y157483D01*
X26525Y157524D01*
X26493Y157529D01*
X26464Y157541D01*
X26297Y157559D01*
X18043Y157559D01*
X18043Y160595D01*
X18028Y160685D01*
X18021Y160776D01*
X18009Y160805D01*
X18003Y160837D01*
X17961Y160918D01*
X17925Y161002D01*
X17899Y161034D01*
X17888Y161055D01*
X17865Y161077D01*
X17820Y161133D01*
X16296Y162657D01*
X16238Y162699D01*
X16186Y162748D01*
X16139Y162770D01*
X16097Y162800D01*
X16028Y162821D01*
X15963Y162852D01*
X15911Y162857D01*
X15862Y162873D01*
X15790Y162871D01*
X15719Y162879D01*
X15668Y162868D01*
X15616Y162866D01*
X15548Y162842D01*
X15478Y162827D01*
X15434Y162800D01*
X15385Y162782D01*
X15329Y162737D01*
X15267Y162700D01*
X15233Y162661D01*
X15193Y162628D01*
X15154Y162568D01*
X15107Y162513D01*
X15088Y162465D01*
X15060Y162421D01*
X15042Y162352D01*
X15015Y162285D01*
X15007Y162214D01*
X15000Y162183D01*
X15001Y162160D01*
X14997Y162119D01*
X14997Y157559D01*
X6186Y157559D01*
X5539Y157732D01*
X4960Y158067D01*
X4487Y158540D01*
X4152Y159119D01*
X3979Y159766D01*
X3979Y163577D01*
X14986Y163577D01*
X15006Y163580D01*
X15025Y163578D01*
X15127Y163600D01*
X15229Y163617D01*
X15246Y163626D01*
X15266Y163630D01*
X15355Y163683D01*
X15446Y163732D01*
X15460Y163746D01*
X15477Y163756D01*
X15544Y163835D01*
X15616Y163910D01*
X15624Y163928D01*
X15637Y163943D01*
X15676Y164039D01*
X15719Y164133D01*
X15721Y164153D01*
X15729Y164171D01*
X15747Y164338D01*
X15747Y165862D01*
X15744Y165882D01*
X15746Y165901D01*
X15724Y166003D01*
X15708Y166105D01*
X15698Y166122D01*
X15694Y166142D01*
X15641Y166231D01*
X15592Y166322D01*
X15578Y166336D01*
X15568Y166353D01*
X15489Y166420D01*
X15414Y166491D01*
X15396Y166500D01*
X15381Y166513D01*
X15285Y166552D01*
X15191Y166595D01*
X15171Y166597D01*
X15153Y166605D01*
X14986Y166623D01*
X3979Y166623D01*
X3979Y170434D01*
X4152Y171081D01*
X4487Y171660D01*
X4960Y172133D01*
X5539Y172468D01*
X6186Y172641D01*
X14997Y172641D01*
X14997Y168081D01*
X15008Y168011D01*
X15010Y167939D01*
X15028Y167890D01*
X15037Y167839D01*
X15070Y167775D01*
X15095Y167708D01*
X15127Y167667D01*
X15152Y167621D01*
X15204Y167572D01*
X15248Y167516D01*
X15292Y167488D01*
X15330Y167452D01*
X15395Y167422D01*
X15455Y167383D01*
X15506Y167370D01*
X15553Y167348D01*
X15624Y167340D01*
X15694Y167323D01*
X15746Y167327D01*
X15798Y167321D01*
X15868Y167336D01*
X15939Y167342D01*
X15987Y167362D01*
X16038Y167373D01*
X16100Y167410D01*
X16165Y167438D01*
X16221Y167483D01*
X16249Y167500D01*
X16264Y167517D01*
X16296Y167543D01*
X17820Y169067D01*
X17873Y169141D01*
X17933Y169210D01*
X17945Y169241D01*
X17964Y169267D01*
X17991Y169354D01*
X18025Y169439D01*
X18029Y169480D01*
X18036Y169502D01*
X18035Y169534D01*
X18043Y169605D01*
X18043Y172641D01*
X26297Y172641D01*
X26329Y172646D01*
X26360Y172643D01*
X26449Y172666D01*
X26540Y172680D01*
X26568Y172695D01*
X26599Y172703D01*
X26745Y172786D01*
X27828Y173573D01*
X29217Y174281D01*
X30700Y174763D01*
X31497Y174889D01*
X31497Y170434D01*
X31500Y170414D01*
X31498Y170395D01*
X31520Y170293D01*
X31537Y170191D01*
X31546Y170174D01*
X31550Y170154D01*
X31603Y170065D01*
X31652Y169974D01*
X31666Y169960D01*
X31676Y169943D01*
X31755Y169876D01*
X31830Y169804D01*
X31848Y169796D01*
X31863Y169783D01*
X31959Y169744D01*
X32053Y169701D01*
X32073Y169699D01*
X32091Y169691D01*
X32258Y169673D01*
X33782Y169673D01*
X33802Y169676D01*
X33821Y169674D01*
X33923Y169696D01*
X34025Y169712D01*
X34042Y169722D01*
X34062Y169726D01*
X34151Y169779D01*
X34242Y169828D01*
X34256Y169842D01*
X34273Y169852D01*
X34340Y169931D01*
X34411Y170006D01*
X34420Y170024D01*
X34433Y170039D01*
X34472Y170135D01*
X34515Y170229D01*
X34517Y170249D01*
X34525Y170267D01*
X34543Y170434D01*
X34543Y174889D01*
X35340Y174763D01*
X36823Y174281D01*
X38212Y173573D01*
X39295Y172786D01*
X39324Y172772D01*
X39348Y172751D01*
X39433Y172717D01*
X39515Y172676D01*
X39547Y172671D01*
X39576Y172659D01*
X39743Y172641D01*
X60572Y172641D01*
X62061Y171152D01*
X62061Y159048D01*
X60572Y157559D01*
X39743Y157559D01*
X39711Y157554D01*
X39680Y157557D01*
X39591Y157534D01*
X39500Y157520D01*
X39472Y157505D01*
X39441Y157497D01*
X39295Y157414D01*
X38212Y156627D01*
X36823Y155919D01*
X35340Y155437D01*
X34543Y155311D01*
X34543Y159766D01*
G37*
%LPD*%
%LPC*%
G36*
X191474Y424109D02*
X191474Y424109D01*
X185569Y430014D01*
X185569Y438366D01*
X187816Y440613D01*
X187869Y440687D01*
X187929Y440756D01*
X187941Y440786D01*
X187960Y440812D01*
X187987Y440899D01*
X188021Y440984D01*
X188025Y441025D01*
X188032Y441047D01*
X188031Y441080D01*
X188039Y441151D01*
X188039Y463026D01*
X189528Y464515D01*
X201632Y464515D01*
X203121Y463026D01*
X203121Y441291D01*
X203135Y441201D01*
X203143Y441110D01*
X203155Y441080D01*
X203160Y441048D01*
X203203Y440967D01*
X203239Y440884D01*
X203265Y440851D01*
X203276Y440831D01*
X203299Y440809D01*
X203344Y440753D01*
X205731Y438366D01*
X205731Y430014D01*
X199826Y424109D01*
X191474Y424109D01*
G37*
%LPD*%
%LPC*%
G36*
X113328Y404033D02*
X113328Y404033D01*
X111839Y405522D01*
X111839Y427229D01*
X111825Y427319D01*
X111817Y427410D01*
X111805Y427440D01*
X111800Y427472D01*
X111757Y427553D01*
X111721Y427636D01*
X111695Y427669D01*
X111684Y427689D01*
X111661Y427711D01*
X111616Y427767D01*
X109369Y430014D01*
X109369Y438366D01*
X115274Y444271D01*
X123626Y444271D01*
X129531Y438366D01*
X129531Y430014D01*
X127144Y427627D01*
X127091Y427553D01*
X127031Y427484D01*
X127019Y427454D01*
X127000Y427428D01*
X126973Y427341D01*
X126939Y427256D01*
X126935Y427215D01*
X126928Y427193D01*
X126929Y427160D01*
X126921Y427089D01*
X126921Y405522D01*
X125432Y404033D01*
X113328Y404033D01*
G37*
%LPD*%
%LPC*%
G36*
X367328Y404033D02*
X367328Y404033D01*
X365839Y405522D01*
X365839Y427229D01*
X365825Y427319D01*
X365817Y427410D01*
X365805Y427440D01*
X365800Y427472D01*
X365757Y427553D01*
X365721Y427636D01*
X365695Y427669D01*
X365684Y427689D01*
X365661Y427711D01*
X365616Y427767D01*
X363369Y430014D01*
X363369Y438366D01*
X369274Y444271D01*
X377626Y444271D01*
X383531Y438366D01*
X383531Y430014D01*
X381144Y427627D01*
X381091Y427553D01*
X381031Y427484D01*
X381019Y427454D01*
X381000Y427428D01*
X380973Y427341D01*
X380939Y427256D01*
X380935Y427215D01*
X380928Y427193D01*
X380929Y427160D01*
X380921Y427089D01*
X380921Y405522D01*
X379432Y404033D01*
X367328Y404033D01*
G37*
%LPD*%
%LPC*%
G36*
X418128Y404033D02*
X418128Y404033D01*
X416639Y405522D01*
X416639Y427229D01*
X416625Y427319D01*
X416617Y427410D01*
X416605Y427440D01*
X416600Y427472D01*
X416557Y427553D01*
X416521Y427636D01*
X416495Y427669D01*
X416484Y427689D01*
X416461Y427711D01*
X416416Y427767D01*
X414169Y430014D01*
X414169Y438366D01*
X420074Y444271D01*
X428426Y444271D01*
X434331Y438366D01*
X434331Y430014D01*
X431944Y427627D01*
X431891Y427553D01*
X431831Y427484D01*
X431819Y427454D01*
X431800Y427428D01*
X431773Y427341D01*
X431739Y427256D01*
X431735Y427215D01*
X431728Y427193D01*
X431729Y427160D01*
X431721Y427089D01*
X431721Y405522D01*
X430232Y404033D01*
X418128Y404033D01*
G37*
%LPD*%
%LPC*%
G36*
X214928Y404033D02*
X214928Y404033D01*
X213439Y405522D01*
X213439Y427229D01*
X213425Y427319D01*
X213417Y427410D01*
X213405Y427440D01*
X213400Y427472D01*
X213357Y427553D01*
X213321Y427636D01*
X213295Y427669D01*
X213284Y427689D01*
X213261Y427711D01*
X213216Y427767D01*
X210969Y430014D01*
X210969Y438366D01*
X216874Y444271D01*
X225226Y444271D01*
X231131Y438366D01*
X231131Y430014D01*
X228744Y427627D01*
X228691Y427553D01*
X228631Y427484D01*
X228619Y427454D01*
X228600Y427428D01*
X228573Y427341D01*
X228539Y427256D01*
X228535Y427215D01*
X228528Y427193D01*
X228529Y427160D01*
X228521Y427089D01*
X228521Y405522D01*
X227032Y404033D01*
X214928Y404033D01*
G37*
%LPD*%
%LPC*%
G36*
X164128Y404033D02*
X164128Y404033D01*
X162639Y405522D01*
X162639Y427229D01*
X162625Y427319D01*
X162617Y427410D01*
X162605Y427440D01*
X162600Y427472D01*
X162557Y427553D01*
X162521Y427636D01*
X162495Y427669D01*
X162484Y427689D01*
X162461Y427711D01*
X162416Y427767D01*
X160169Y430014D01*
X160169Y438366D01*
X166074Y444271D01*
X174426Y444271D01*
X180331Y438366D01*
X180331Y430014D01*
X177944Y427627D01*
X177891Y427553D01*
X177831Y427484D01*
X177819Y427454D01*
X177800Y427428D01*
X177773Y427341D01*
X177739Y427256D01*
X177735Y427215D01*
X177728Y427193D01*
X177729Y427160D01*
X177721Y427089D01*
X177721Y405522D01*
X176232Y404033D01*
X164128Y404033D01*
G37*
%LPD*%
%LPC*%
G36*
X316528Y404033D02*
X316528Y404033D01*
X315039Y405522D01*
X315039Y427229D01*
X315025Y427319D01*
X315017Y427410D01*
X315005Y427440D01*
X315000Y427472D01*
X314957Y427553D01*
X314921Y427636D01*
X314895Y427669D01*
X314884Y427689D01*
X314861Y427711D01*
X314816Y427767D01*
X312569Y430014D01*
X312569Y438366D01*
X318474Y444271D01*
X326826Y444271D01*
X332731Y438366D01*
X332731Y430014D01*
X330344Y427627D01*
X330291Y427553D01*
X330231Y427484D01*
X330219Y427454D01*
X330200Y427428D01*
X330173Y427341D01*
X330139Y427256D01*
X330135Y427215D01*
X330128Y427193D01*
X330129Y427160D01*
X330121Y427089D01*
X330121Y405522D01*
X328632Y404033D01*
X316528Y404033D01*
G37*
%LPD*%
G36*
X751028Y555756D02*
X751028Y555756D01*
X751047Y555754D01*
X751149Y555776D01*
X751251Y555792D01*
X751268Y555802D01*
X751288Y555806D01*
X751377Y555859D01*
X751468Y555908D01*
X751482Y555922D01*
X751499Y555932D01*
X751566Y556011D01*
X751638Y556086D01*
X751646Y556104D01*
X751659Y556119D01*
X751698Y556215D01*
X751741Y556309D01*
X751743Y556329D01*
X751751Y556347D01*
X751769Y556514D01*
X751769Y572930D01*
X751765Y572958D01*
X751767Y572986D01*
X751745Y573079D01*
X751730Y573173D01*
X751717Y573198D01*
X751710Y573225D01*
X751659Y573306D01*
X751614Y573390D01*
X751594Y573410D01*
X751579Y573433D01*
X751455Y573546D01*
X751142Y573774D01*
X749814Y575102D01*
X748709Y576623D01*
X747856Y578297D01*
X747275Y580084D01*
X747074Y581357D01*
X753976Y581357D01*
X753996Y581360D01*
X754015Y581358D01*
X754117Y581380D01*
X754219Y581397D01*
X754236Y581406D01*
X754256Y581410D01*
X754345Y581463D01*
X754436Y581512D01*
X754450Y581526D01*
X754467Y581536D01*
X754534Y581615D01*
X754606Y581690D01*
X754614Y581708D01*
X754627Y581723D01*
X754666Y581819D01*
X754709Y581913D01*
X754711Y581933D01*
X754719Y581951D01*
X754737Y582118D01*
X754737Y583642D01*
X754734Y583662D01*
X754736Y583681D01*
X754714Y583783D01*
X754698Y583885D01*
X754688Y583902D01*
X754684Y583922D01*
X754631Y584011D01*
X754582Y584102D01*
X754568Y584116D01*
X754558Y584133D01*
X754479Y584200D01*
X754404Y584271D01*
X754386Y584280D01*
X754371Y584293D01*
X754275Y584332D01*
X754181Y584375D01*
X754161Y584377D01*
X754143Y584385D01*
X753976Y584403D01*
X747074Y584403D01*
X747275Y585676D01*
X747856Y587463D01*
X748709Y589137D01*
X749814Y590658D01*
X751142Y591986D01*
X751455Y592214D01*
X751475Y592234D01*
X751499Y592248D01*
X751561Y592321D01*
X751628Y592389D01*
X751641Y592414D01*
X751659Y592435D01*
X751695Y592524D01*
X751737Y592609D01*
X751740Y592637D01*
X751751Y592663D01*
X751769Y592830D01*
X751769Y597717D01*
X754805Y597717D01*
X754895Y597732D01*
X754986Y597739D01*
X755015Y597751D01*
X755047Y597757D01*
X755128Y597799D01*
X755212Y597835D01*
X755244Y597861D01*
X755265Y597872D01*
X755287Y597895D01*
X755343Y597940D01*
X756867Y599464D01*
X756909Y599522D01*
X756958Y599574D01*
X756980Y599621D01*
X757010Y599663D01*
X757031Y599732D01*
X757062Y599797D01*
X757067Y599849D01*
X757083Y599898D01*
X757081Y599970D01*
X757089Y600041D01*
X757078Y600092D01*
X757076Y600144D01*
X757052Y600212D01*
X757037Y600282D01*
X757010Y600326D01*
X756992Y600375D01*
X756947Y600431D01*
X756910Y600493D01*
X756871Y600527D01*
X756838Y600567D01*
X756778Y600606D01*
X756723Y600653D01*
X756675Y600672D01*
X756631Y600700D01*
X756562Y600718D01*
X756495Y600745D01*
X756424Y600753D01*
X756393Y600760D01*
X756369Y600759D01*
X756329Y600763D01*
X751769Y600763D01*
X751769Y608584D01*
X751766Y608604D01*
X751768Y608623D01*
X751746Y608725D01*
X751730Y608827D01*
X751720Y608844D01*
X751716Y608864D01*
X751663Y608953D01*
X751614Y609044D01*
X751600Y609058D01*
X751590Y609075D01*
X751511Y609142D01*
X751436Y609214D01*
X751418Y609222D01*
X751403Y609235D01*
X751307Y609274D01*
X751213Y609317D01*
X751193Y609319D01*
X751175Y609327D01*
X751008Y609345D01*
X742212Y609345D01*
X742192Y609342D01*
X742173Y609344D01*
X742071Y609322D01*
X741969Y609306D01*
X741952Y609296D01*
X741932Y609292D01*
X741843Y609239D01*
X741752Y609190D01*
X741738Y609176D01*
X741721Y609166D01*
X741654Y609087D01*
X741582Y609012D01*
X741574Y608994D01*
X741561Y608979D01*
X741522Y608883D01*
X741479Y608789D01*
X741477Y608769D01*
X741469Y608751D01*
X741451Y608584D01*
X741451Y592149D01*
X741465Y592058D01*
X741473Y591968D01*
X741485Y591938D01*
X741490Y591906D01*
X741533Y591825D01*
X741569Y591741D01*
X741595Y591709D01*
X741606Y591688D01*
X741629Y591666D01*
X741674Y591610D01*
X743641Y589643D01*
X745459Y585255D01*
X745459Y580505D01*
X743641Y576117D01*
X741674Y574150D01*
X741621Y574076D01*
X741561Y574006D01*
X741549Y573976D01*
X741530Y573950D01*
X741503Y573863D01*
X741469Y573778D01*
X741465Y573737D01*
X741458Y573715D01*
X741459Y573683D01*
X741451Y573611D01*
X741451Y556514D01*
X741454Y556494D01*
X741452Y556475D01*
X741474Y556373D01*
X741490Y556271D01*
X741500Y556254D01*
X741504Y556234D01*
X741557Y556145D01*
X741606Y556054D01*
X741620Y556040D01*
X741630Y556023D01*
X741709Y555956D01*
X741784Y555884D01*
X741802Y555876D01*
X741817Y555863D01*
X741913Y555824D01*
X742007Y555781D01*
X742027Y555779D01*
X742045Y555771D01*
X742212Y555753D01*
X751008Y555753D01*
X751028Y555756D01*
G37*
G36*
X769327Y555767D02*
X769327Y555767D01*
X769418Y555775D01*
X769447Y555787D01*
X769479Y555792D01*
X769560Y555835D01*
X769644Y555871D01*
X769676Y555897D01*
X769697Y555908D01*
X769719Y555931D01*
X769775Y555976D01*
X776946Y563147D01*
X776999Y563221D01*
X777059Y563290D01*
X777071Y563321D01*
X777090Y563347D01*
X777117Y563434D01*
X777151Y563519D01*
X777155Y563560D01*
X777162Y563582D01*
X777161Y563614D01*
X777169Y563685D01*
X777169Y572831D01*
X777155Y572922D01*
X777147Y573012D01*
X777135Y573042D01*
X777130Y573074D01*
X777087Y573155D01*
X777051Y573239D01*
X777025Y573271D01*
X777014Y573292D01*
X776991Y573314D01*
X776946Y573370D01*
X774199Y576117D01*
X772381Y580505D01*
X772381Y585255D01*
X774199Y589643D01*
X776946Y592390D01*
X776999Y592464D01*
X777059Y592534D01*
X777071Y592564D01*
X777090Y592590D01*
X777117Y592677D01*
X777151Y592762D01*
X777155Y592803D01*
X777162Y592825D01*
X777161Y592857D01*
X777169Y592929D01*
X777169Y608584D01*
X777166Y608604D01*
X777168Y608623D01*
X777146Y608725D01*
X777130Y608827D01*
X777120Y608844D01*
X777116Y608864D01*
X777063Y608953D01*
X777014Y609044D01*
X777000Y609058D01*
X776990Y609075D01*
X776911Y609142D01*
X776836Y609214D01*
X776818Y609222D01*
X776803Y609235D01*
X776707Y609274D01*
X776613Y609317D01*
X776593Y609319D01*
X776575Y609327D01*
X776408Y609345D01*
X767612Y609345D01*
X767592Y609342D01*
X767573Y609344D01*
X767471Y609322D01*
X767369Y609306D01*
X767352Y609296D01*
X767332Y609292D01*
X767243Y609239D01*
X767152Y609190D01*
X767138Y609176D01*
X767121Y609166D01*
X767054Y609087D01*
X766982Y609012D01*
X766974Y608994D01*
X766961Y608979D01*
X766922Y608883D01*
X766879Y608789D01*
X766877Y608769D01*
X766869Y608751D01*
X766851Y608584D01*
X766851Y600763D01*
X762291Y600763D01*
X762221Y600752D01*
X762149Y600750D01*
X762100Y600732D01*
X762049Y600723D01*
X761985Y600690D01*
X761918Y600665D01*
X761877Y600633D01*
X761831Y600608D01*
X761782Y600556D01*
X761726Y600512D01*
X761698Y600468D01*
X761662Y600430D01*
X761632Y600365D01*
X761593Y600305D01*
X761580Y600254D01*
X761558Y600207D01*
X761550Y600136D01*
X761533Y600066D01*
X761537Y600014D01*
X761531Y599962D01*
X761546Y599892D01*
X761552Y599821D01*
X761572Y599773D01*
X761583Y599722D01*
X761620Y599660D01*
X761648Y599595D01*
X761693Y599539D01*
X761710Y599511D01*
X761727Y599496D01*
X761753Y599464D01*
X763277Y597940D01*
X763351Y597887D01*
X763420Y597827D01*
X763451Y597815D01*
X763477Y597796D01*
X763564Y597769D01*
X763649Y597735D01*
X763690Y597731D01*
X763712Y597724D01*
X763744Y597725D01*
X763815Y597717D01*
X766851Y597717D01*
X766851Y592149D01*
X766865Y592058D01*
X766873Y591968D01*
X766885Y591938D01*
X766890Y591906D01*
X766933Y591825D01*
X766969Y591741D01*
X766995Y591709D01*
X767006Y591688D01*
X767029Y591666D01*
X767074Y591610D01*
X768026Y590658D01*
X769131Y589137D01*
X769984Y587463D01*
X770565Y585676D01*
X770766Y584403D01*
X764644Y584403D01*
X764624Y584400D01*
X764605Y584402D01*
X764503Y584380D01*
X764401Y584363D01*
X764384Y584354D01*
X764364Y584350D01*
X764275Y584297D01*
X764184Y584248D01*
X764170Y584234D01*
X764153Y584224D01*
X764086Y584145D01*
X764014Y584070D01*
X764006Y584052D01*
X763993Y584037D01*
X763954Y583941D01*
X763911Y583847D01*
X763909Y583827D01*
X763901Y583809D01*
X763883Y583642D01*
X763883Y582118D01*
X763886Y582098D01*
X763884Y582079D01*
X763906Y581977D01*
X763922Y581875D01*
X763932Y581858D01*
X763936Y581838D01*
X763989Y581749D01*
X764038Y581658D01*
X764052Y581644D01*
X764062Y581627D01*
X764141Y581560D01*
X764216Y581489D01*
X764234Y581480D01*
X764249Y581467D01*
X764345Y581428D01*
X764439Y581385D01*
X764459Y581383D01*
X764477Y581375D01*
X764644Y581357D01*
X770766Y581357D01*
X770565Y580084D01*
X769984Y578297D01*
X769131Y576623D01*
X768026Y575102D01*
X767074Y574150D01*
X767021Y574076D01*
X766961Y574006D01*
X766949Y573976D01*
X766930Y573950D01*
X766903Y573863D01*
X766869Y573778D01*
X766865Y573737D01*
X766858Y573715D01*
X766859Y573683D01*
X766851Y573611D01*
X766851Y556514D01*
X766854Y556494D01*
X766852Y556475D01*
X766874Y556373D01*
X766890Y556271D01*
X766900Y556254D01*
X766904Y556234D01*
X766957Y556145D01*
X767006Y556054D01*
X767020Y556040D01*
X767030Y556023D01*
X767109Y555956D01*
X767184Y555884D01*
X767202Y555876D01*
X767217Y555863D01*
X767313Y555824D01*
X767407Y555781D01*
X767427Y555779D01*
X767445Y555771D01*
X767612Y555753D01*
X769237Y555753D01*
X769327Y555767D01*
G37*
%LPC*%
G36*
X978413Y257653D02*
X978413Y257653D01*
X978413Y271171D01*
X989724Y271171D01*
X990371Y270998D01*
X990950Y270663D01*
X991423Y270190D01*
X991758Y269611D01*
X991931Y268964D01*
X991931Y257653D01*
X978413Y257653D01*
G37*
%LPD*%
%LPC*%
G36*
X978413Y29053D02*
X978413Y29053D01*
X978413Y42571D01*
X989724Y42571D01*
X990371Y42398D01*
X990950Y42063D01*
X991423Y41590D01*
X991758Y41011D01*
X991931Y40364D01*
X991931Y29053D01*
X978413Y29053D01*
G37*
%LPD*%
%LPC*%
G36*
X961849Y29053D02*
X961849Y29053D01*
X961849Y40364D01*
X962022Y41011D01*
X962357Y41590D01*
X962830Y42063D01*
X963409Y42398D01*
X964056Y42571D01*
X975367Y42571D01*
X975367Y29053D01*
X961849Y29053D01*
G37*
%LPD*%
%LPC*%
G36*
X961849Y257653D02*
X961849Y257653D01*
X961849Y268964D01*
X962022Y269611D01*
X962357Y270190D01*
X962830Y270663D01*
X963409Y270998D01*
X964056Y271171D01*
X975367Y271171D01*
X975367Y257653D01*
X961849Y257653D01*
G37*
%LPD*%
%LPC*%
G36*
X978413Y241089D02*
X978413Y241089D01*
X978413Y254607D01*
X991931Y254607D01*
X991931Y243296D01*
X991758Y242649D01*
X991423Y242070D01*
X990950Y241597D01*
X990371Y241262D01*
X989724Y241089D01*
X978413Y241089D01*
G37*
%LPD*%
%LPC*%
G36*
X978413Y12489D02*
X978413Y12489D01*
X978413Y26007D01*
X991931Y26007D01*
X991931Y14696D01*
X991758Y14049D01*
X991423Y13470D01*
X990950Y12997D01*
X990371Y12662D01*
X989724Y12489D01*
X978413Y12489D01*
G37*
%LPD*%
%LPC*%
G36*
X964056Y241089D02*
X964056Y241089D01*
X963409Y241262D01*
X962830Y241597D01*
X962357Y242070D01*
X962022Y242649D01*
X961849Y243296D01*
X961849Y254607D01*
X975367Y254607D01*
X975367Y241089D01*
X964056Y241089D01*
G37*
%LPD*%
%LPC*%
G36*
X964056Y12489D02*
X964056Y12489D01*
X963409Y12662D01*
X962830Y12997D01*
X962357Y13470D01*
X962022Y14049D01*
X961849Y14696D01*
X961849Y26007D01*
X975367Y26007D01*
X975367Y12489D01*
X964056Y12489D01*
G37*
%LPD*%
%LPC*%
G36*
X568083Y428243D02*
X568083Y428243D01*
X568083Y444386D01*
X568939Y444251D01*
X570460Y443756D01*
X571885Y443030D01*
X573179Y442090D01*
X574310Y440959D01*
X575250Y439665D01*
X575976Y438240D01*
X576471Y436719D01*
X576721Y435140D01*
X576721Y428243D01*
X568083Y428243D01*
G37*
%LPD*%
%LPC*%
G36*
X593483Y428243D02*
X593483Y428243D01*
X593483Y444386D01*
X594339Y444251D01*
X595860Y443756D01*
X597285Y443030D01*
X598579Y442090D01*
X599710Y440959D01*
X600650Y439665D01*
X601376Y438240D01*
X601871Y436719D01*
X602121Y435140D01*
X602121Y428243D01*
X593483Y428243D01*
G37*
%LPD*%
%LPC*%
G36*
X593483Y425197D02*
X593483Y425197D01*
X602121Y425197D01*
X602121Y418300D01*
X601871Y416721D01*
X601376Y415200D01*
X600650Y413775D01*
X599710Y412481D01*
X598579Y411350D01*
X597285Y410410D01*
X595860Y409684D01*
X594339Y409189D01*
X593483Y409054D01*
X593483Y425197D01*
G37*
%LPD*%
%LPC*%
G36*
X568083Y425197D02*
X568083Y425197D01*
X576721Y425197D01*
X576721Y418300D01*
X576471Y416721D01*
X575976Y415200D01*
X575250Y413775D01*
X574310Y412481D01*
X573179Y411350D01*
X571885Y410410D01*
X570460Y409684D01*
X568939Y409189D01*
X568083Y409054D01*
X568083Y425197D01*
G37*
%LPD*%
%LPC*%
G36*
X556399Y428243D02*
X556399Y428243D01*
X556399Y435140D01*
X556649Y436719D01*
X557144Y438240D01*
X557870Y439665D01*
X558810Y440959D01*
X559941Y442090D01*
X561235Y443030D01*
X562660Y443756D01*
X564181Y444251D01*
X565037Y444386D01*
X565037Y428243D01*
X556399Y428243D01*
G37*
%LPD*%
%LPC*%
G36*
X581799Y428243D02*
X581799Y428243D01*
X581799Y435140D01*
X582049Y436719D01*
X582544Y438240D01*
X583270Y439665D01*
X584210Y440959D01*
X585341Y442090D01*
X586635Y443030D01*
X588060Y443756D01*
X589581Y444251D01*
X590437Y444386D01*
X590437Y428243D01*
X581799Y428243D01*
G37*
%LPD*%
%LPC*%
G36*
X589581Y409189D02*
X589581Y409189D01*
X588060Y409684D01*
X586635Y410410D01*
X585341Y411350D01*
X584210Y412481D01*
X583270Y413775D01*
X582544Y415200D01*
X582049Y416721D01*
X581799Y418300D01*
X581799Y425197D01*
X590437Y425197D01*
X590437Y409054D01*
X589581Y409189D01*
G37*
%LPD*%
%LPC*%
G36*
X564181Y409189D02*
X564181Y409189D01*
X562660Y409684D01*
X561235Y410410D01*
X559941Y411350D01*
X558810Y412481D01*
X557870Y413775D01*
X557144Y415200D01*
X556649Y416721D01*
X556399Y418300D01*
X556399Y425197D01*
X565037Y425197D01*
X565037Y409054D01*
X564181Y409189D01*
G37*
%LPD*%
%LPC*%
G36*
X349503Y574013D02*
X349503Y574013D01*
X349503Y586844D01*
X349500Y586864D01*
X349502Y586883D01*
X349480Y586985D01*
X349463Y587087D01*
X349454Y587104D01*
X349450Y587124D01*
X349397Y587213D01*
X349348Y587304D01*
X349334Y587318D01*
X349324Y587335D01*
X349245Y587402D01*
X349170Y587473D01*
X349152Y587482D01*
X349137Y587495D01*
X349047Y587531D01*
X353314Y587531D01*
X353961Y587358D01*
X354540Y587023D01*
X355013Y586550D01*
X355063Y586463D01*
X355106Y586411D01*
X355141Y586353D01*
X355183Y586317D01*
X355219Y586273D01*
X355276Y586237D01*
X355327Y586193D01*
X355380Y586172D01*
X355427Y586142D01*
X355493Y586127D01*
X355556Y586101D01*
X355634Y586093D01*
X355666Y586085D01*
X355687Y586087D01*
X355722Y586083D01*
X358131Y586083D01*
X358131Y583430D01*
X355744Y581043D01*
X355691Y580969D01*
X355631Y580900D01*
X355619Y580870D01*
X355600Y580844D01*
X355573Y580757D01*
X355539Y580672D01*
X355535Y580631D01*
X355528Y580609D01*
X355529Y580576D01*
X355521Y580505D01*
X355521Y574013D01*
X349503Y574013D01*
G37*
%LPD*%
%LPC*%
G36*
X400087Y434433D02*
X400087Y434433D01*
X400100Y434449D01*
X400171Y434524D01*
X400180Y434542D01*
X400193Y434557D01*
X400232Y434653D01*
X400275Y434747D01*
X400277Y434767D01*
X400285Y434785D01*
X400303Y434952D01*
X400303Y447951D01*
X406321Y447951D01*
X406321Y441291D01*
X406335Y441201D01*
X406343Y441110D01*
X406355Y441080D01*
X406360Y441048D01*
X406403Y440967D01*
X406439Y440884D01*
X406465Y440851D01*
X406476Y440831D01*
X406499Y440809D01*
X406544Y440753D01*
X408931Y438366D01*
X408931Y435713D01*
X406425Y435713D01*
X406358Y435702D01*
X406290Y435701D01*
X406249Y435687D01*
X406241Y435686D01*
X406230Y435681D01*
X406183Y435673D01*
X406122Y435642D01*
X406058Y435619D01*
X406028Y435595D01*
X406015Y435590D01*
X405997Y435575D01*
X405965Y435558D01*
X405931Y435523D01*
X405884Y435485D01*
X405871Y435471D01*
X405864Y435467D01*
X405861Y435462D01*
X405340Y434941D01*
X404761Y434606D01*
X404114Y434433D01*
X400087Y434433D01*
G37*
%LPD*%
%LPC*%
G36*
X393446Y434433D02*
X393446Y434433D01*
X392799Y434606D01*
X392220Y434941D01*
X391676Y435485D01*
X391660Y435496D01*
X391639Y435522D01*
X391581Y435558D01*
X391530Y435603D01*
X391489Y435619D01*
X391476Y435628D01*
X391465Y435632D01*
X391431Y435653D01*
X391365Y435669D01*
X391301Y435695D01*
X391224Y435703D01*
X391192Y435711D01*
X391171Y435709D01*
X391135Y435713D01*
X388769Y435713D01*
X388769Y438366D01*
X391016Y440613D01*
X391069Y440687D01*
X391129Y440756D01*
X391141Y440786D01*
X391160Y440812D01*
X391187Y440899D01*
X391221Y440984D01*
X391225Y441025D01*
X391232Y441047D01*
X391231Y441080D01*
X391239Y441151D01*
X391239Y447951D01*
X397257Y447951D01*
X397257Y445032D01*
X397260Y445012D01*
X397258Y444993D01*
X397280Y444891D01*
X397297Y444789D01*
X397306Y444772D01*
X397310Y444752D01*
X397327Y444724D01*
X397327Y435247D01*
X397285Y435157D01*
X397283Y435137D01*
X397275Y435119D01*
X397257Y434952D01*
X397257Y434433D01*
X393446Y434433D01*
G37*
%LPD*%
%LPC*%
G36*
X340439Y574013D02*
X340439Y574013D01*
X340439Y580645D01*
X340425Y580735D01*
X340417Y580826D01*
X340405Y580856D01*
X340400Y580888D01*
X340357Y580969D01*
X340321Y581052D01*
X340295Y581085D01*
X340284Y581105D01*
X340261Y581127D01*
X340216Y581183D01*
X337969Y583430D01*
X337969Y586083D01*
X340238Y586083D01*
X340304Y586094D01*
X340372Y586095D01*
X340425Y586113D01*
X340480Y586123D01*
X340540Y586154D01*
X340604Y586177D01*
X340648Y586211D01*
X340698Y586238D01*
X340744Y586287D01*
X340798Y586328D01*
X340845Y586392D01*
X340867Y586416D01*
X340876Y586435D01*
X340897Y586463D01*
X340947Y586550D01*
X341420Y587023D01*
X341999Y587358D01*
X342646Y587531D01*
X346457Y587531D01*
X346457Y586844D01*
X346460Y586824D01*
X346458Y586805D01*
X346480Y586703D01*
X346497Y586601D01*
X346506Y586584D01*
X346510Y586564D01*
X346527Y586536D01*
X346527Y577059D01*
X346485Y576969D01*
X346483Y576949D01*
X346475Y576931D01*
X346457Y576764D01*
X346457Y574013D01*
X340439Y574013D01*
G37*
%LPD*%
%LPC*%
G36*
X664603Y458979D02*
X664603Y458979D01*
X664603Y466497D01*
X673121Y466497D01*
X673121Y461186D01*
X672948Y460539D01*
X672613Y459960D01*
X672140Y459487D01*
X671561Y459152D01*
X670914Y458979D01*
X664603Y458979D01*
G37*
%LPD*%
%LPC*%
G36*
X655246Y458979D02*
X655246Y458979D01*
X654599Y459152D01*
X654020Y459487D01*
X653547Y459960D01*
X653212Y460539D01*
X653039Y461186D01*
X653039Y466497D01*
X661557Y466497D01*
X661557Y458979D01*
X655246Y458979D01*
G37*
%LPD*%
%LPC*%
G36*
X349573Y589129D02*
X349573Y589129D01*
X349573Y597687D01*
X352226Y597687D01*
X358131Y591782D01*
X358131Y589129D01*
X349573Y589129D01*
G37*
%LPD*%
%LPC*%
G36*
X400373Y432667D02*
X400373Y432667D01*
X408931Y432667D01*
X408931Y430014D01*
X403026Y424109D01*
X400373Y424109D01*
X400373Y432667D01*
G37*
%LPD*%
%LPC*%
G36*
X337969Y589129D02*
X337969Y589129D01*
X337969Y591782D01*
X343874Y597687D01*
X346527Y597687D01*
X346527Y589129D01*
X337969Y589129D01*
G37*
%LPD*%
%LPC*%
G36*
X394674Y424109D02*
X394674Y424109D01*
X388769Y430014D01*
X388769Y432667D01*
X397327Y432667D01*
X397327Y424109D01*
X394674Y424109D01*
G37*
%LPD*%
%LPC*%
G36*
X715454Y506174D02*
X715454Y506174D01*
X715454Y510091D01*
X720914Y510091D01*
X721561Y509918D01*
X722140Y509583D01*
X722613Y509110D01*
X722948Y508531D01*
X723121Y507884D01*
X723121Y506174D01*
X715454Y506174D01*
G37*
%LPD*%
%LPC*%
G36*
X705039Y506174D02*
X705039Y506174D01*
X705039Y507884D01*
X705212Y508531D01*
X705547Y509110D01*
X706020Y509583D01*
X706599Y509918D01*
X707246Y510091D01*
X712706Y510091D01*
X712706Y506174D01*
X705039Y506174D01*
G37*
%LPD*%
%LPC*%
G36*
X715454Y499509D02*
X715454Y499509D01*
X715454Y503426D01*
X723121Y503426D01*
X723121Y501716D01*
X722948Y501069D01*
X722613Y500490D01*
X722140Y500017D01*
X721561Y499682D01*
X720914Y499509D01*
X715454Y499509D01*
G37*
%LPD*%
%LPC*%
G36*
X707246Y499509D02*
X707246Y499509D01*
X706599Y499682D01*
X706020Y500017D01*
X705547Y500490D01*
X705212Y501069D01*
X705039Y501716D01*
X705039Y503426D01*
X712706Y503426D01*
X712706Y499509D01*
X707246Y499509D01*
G37*
%LPD*%
%LPC*%
G36*
X348049Y587605D02*
X348049Y587605D01*
X348049Y587607D01*
X348502Y587607D01*
X348507Y587605D01*
X348049Y587605D01*
G37*
%LPD*%
%LPC*%
G36*
X398849Y434189D02*
X398849Y434189D01*
X398849Y434191D01*
X399067Y434191D01*
X399066Y434189D01*
X398849Y434189D01*
G37*
%LPD*%
%LPC*%
G36*
X591959Y426719D02*
X591959Y426719D01*
X591959Y426721D01*
X591961Y426721D01*
X591961Y426719D01*
X591959Y426719D01*
G37*
%LPD*%
%LPC*%
G36*
X566559Y426719D02*
X566559Y426719D01*
X566559Y426721D01*
X566561Y426721D01*
X566561Y426719D01*
X566559Y426719D01*
G37*
%LPD*%
%LPC*%
G36*
X976889Y256129D02*
X976889Y256129D01*
X976889Y256131D01*
X976891Y256131D01*
X976891Y256129D01*
X976889Y256129D01*
G37*
%LPD*%
%LPC*%
G36*
X976889Y27529D02*
X976889Y27529D01*
X976889Y27531D01*
X976891Y27531D01*
X976891Y27529D01*
X976889Y27529D01*
G37*
%LPD*%
D10*
X591960Y515620D02*
X591960Y500380D01*
X566560Y500380D02*
X566560Y515620D01*
X978510Y549910D02*
X978510Y565150D01*
X953110Y565150D02*
X953110Y549910D01*
X591960Y434340D02*
X591960Y419100D01*
X566560Y419100D02*
X566560Y434340D01*
X591960Y459740D02*
X591960Y474980D01*
X566560Y474980D02*
X566560Y459740D01*
D11*
X33020Y114300D03*
X33020Y139700D03*
X33020Y165100D03*
X33020Y190500D03*
X33020Y215900D03*
X33020Y241300D03*
X33020Y266700D03*
X33020Y292100D03*
D12*
X837190Y27530D03*
X976890Y27530D03*
X868940Y256130D03*
X945140Y256130D03*
X837190Y256130D03*
X976890Y256130D03*
D13*
X962800Y454300D03*
X962800Y479700D03*
X962800Y505100D03*
D14*
X424250Y587606D03*
X398850Y587606D03*
X373450Y587606D03*
X348050Y587606D03*
X322650Y587606D03*
X297250Y587606D03*
X271850Y587606D03*
X246450Y587606D03*
X221050Y587606D03*
X195650Y587606D03*
X170250Y587606D03*
X144850Y587606D03*
X424250Y434190D03*
X398850Y434190D03*
X373450Y434190D03*
X221050Y434190D03*
X195650Y434190D03*
X170250Y434190D03*
X144850Y434190D03*
X68650Y434190D03*
X68650Y587606D03*
X94050Y587606D03*
X119450Y587606D03*
D15*
X94050Y434190D03*
X119450Y434190D03*
D14*
X348050Y434190D03*
D15*
X246450Y434190D03*
X271850Y434190D03*
X297250Y434190D03*
X322650Y434190D03*
D13*
X809720Y582880D03*
X784320Y582880D03*
X758920Y582880D03*
X733520Y582880D03*
D16*
X739080Y504800D03*
X739080Y495300D03*
X739080Y485800D03*
X714080Y504800D03*
X714080Y485800D03*
D17*
X663080Y487020D03*
X663080Y468020D03*
D18*
X68580Y602890D03*
X93980Y572490D03*
X119380Y602890D03*
X144780Y572490D03*
X170180Y602890D03*
X195580Y572490D03*
X220980Y602890D03*
X246380Y572490D03*
X271780Y602890D03*
X297180Y572490D03*
X322580Y602890D03*
X347980Y572490D03*
X373380Y602890D03*
X398780Y572490D03*
X424180Y602890D03*
X424180Y419074D03*
X398780Y449474D03*
X373380Y419074D03*
X347980Y449474D03*
X322580Y419074D03*
X297180Y449474D03*
X271780Y419074D03*
X246380Y449474D03*
X220980Y419074D03*
X195580Y449474D03*
X170180Y419074D03*
X144780Y449474D03*
X119380Y419074D03*
X93980Y449474D03*
X68580Y419074D03*
D19*
X45720Y292100D02*
X20320Y292100D01*
X20320Y266700D02*
X45720Y266700D01*
X45720Y241300D02*
X20320Y241300D01*
X20320Y215900D02*
X45720Y215900D01*
X45720Y190500D02*
X20320Y190500D01*
X20320Y165100D02*
X45720Y165100D01*
X45720Y139700D02*
X20320Y139700D01*
X20320Y114300D02*
X45720Y114300D01*
D20*
X49520Y266700D03*
X49520Y215900D03*
X49520Y165100D03*
X16520Y292100D03*
X16520Y241300D03*
X16520Y190500D03*
X16520Y139700D03*
X16520Y114300D03*
X49520Y139700D03*
X16520Y165100D03*
X49520Y190500D03*
X16520Y215900D03*
X49520Y241300D03*
X16520Y266700D03*
X49520Y292100D03*
X49520Y114300D03*
D19*
X733910Y570040D02*
X733910Y595440D01*
X759310Y595440D02*
X759310Y570040D01*
X784710Y570040D02*
X784710Y595440D01*
X810110Y595440D02*
X810110Y570040D01*
D21*
X759310Y599240D03*
X810110Y599240D03*
X733910Y566240D03*
X784710Y566240D03*
X810110Y566240D03*
X784710Y599240D03*
X759310Y566240D03*
X733910Y599240D03*
D22*
X950844Y370910D02*
X969640Y370910D01*
X969640Y318840D02*
X950844Y318840D01*
D23*
X552622Y567180D03*
D24*
X396240Y533400D03*
X55880Y553720D03*
X25400Y563880D03*
X86360Y121920D03*
X985520Y50800D03*
X970280Y50800D03*
X985520Y233680D03*
X982980Y281940D03*
X721360Y452120D03*
X640080Y421640D03*
X731520Y530860D03*
X690880Y568960D03*
X208280Y508000D03*
D25*
X664300Y485800D02*
X714080Y485800D01*
X664300Y485800D02*
X663080Y487020D01*
X634340Y487020D01*
X614680Y467360D02*
X591960Y467360D01*
X614680Y467360D02*
X634340Y487020D01*
X591960Y467360D02*
X566560Y467360D01*
X408452Y467360D01*
X406726Y469086D01*
X367592Y469086D01*
X347980Y449474D01*
X348050Y449404D02*
X348050Y434190D01*
X348050Y449404D02*
X347980Y449474D01*
X566928Y508254D02*
X591312Y508254D01*
X566928Y508254D02*
X566560Y508000D01*
X591312Y508254D02*
X591960Y508000D01*
X93726Y448818D02*
X93726Y434340D01*
X93726Y448818D02*
X93980Y449474D01*
X93726Y434340D02*
X94050Y434190D01*
X78740Y318770D02*
X78740Y158750D01*
X68580Y148590D01*
X78740Y318770D02*
X92964Y332994D01*
X92964Y429768D01*
X94050Y434190D01*
X303276Y506730D02*
X562356Y506730D01*
X303276Y506730D02*
X259080Y462534D01*
X562356Y506730D02*
X566560Y508000D01*
D26*
X68580Y148590D03*
X259080Y462534D03*
D25*
X33020Y114300D02*
X16520Y114300D01*
X733520Y566630D02*
X733520Y582880D01*
X733520Y566630D02*
X733910Y566240D01*
D27*
X93726Y573024D02*
X93726Y587502D01*
X93726Y573024D02*
X93980Y572490D01*
X93726Y587502D02*
X94050Y587606D01*
X17526Y496062D02*
X17526Y310896D01*
X17526Y496062D02*
X93726Y572262D01*
X93980Y572490D01*
D26*
X17526Y310896D03*
D25*
X33020Y241300D02*
X49520Y241300D01*
D27*
X68580Y588264D02*
X68580Y602890D01*
X68580Y588264D02*
X68650Y587606D01*
X8382Y527304D02*
X8382Y310896D01*
X8382Y527304D02*
X68580Y587502D01*
X68650Y587606D01*
D26*
X8382Y310896D03*
D25*
X16520Y215900D02*
X33020Y215900D01*
D27*
X68580Y419074D02*
X68580Y433578D01*
X68650Y434190D01*
X68580Y292927D02*
X58101Y282448D01*
X68580Y292927D02*
X68580Y419074D01*
D28*
X33020Y266700D02*
X16520Y266700D01*
X33020Y266700D02*
X48768Y282448D01*
X58101Y282448D01*
D27*
X119634Y588264D02*
X119634Y602742D01*
X119380Y602890D01*
X119634Y588264D02*
X119450Y587606D01*
X50292Y507492D02*
X50292Y310896D01*
X50292Y507492D02*
X118872Y576072D01*
X118872Y587502D01*
X119450Y587606D01*
D26*
X50292Y310896D03*
D28*
X49520Y292100D02*
X33020Y292100D01*
D27*
X246126Y434340D02*
X246126Y448818D01*
X246380Y449474D01*
X246126Y434340D02*
X246450Y434190D01*
X246888Y449580D02*
X246888Y461772D01*
X338328Y553212D01*
X663702Y553212D01*
X723138Y612648D01*
X246888Y449580D02*
X246380Y449474D01*
X723138Y612648D02*
X796702Y612648D01*
X809592Y599758D01*
X810110Y599758D01*
X810110Y583270D02*
X809720Y582880D01*
X810110Y583270D02*
X810110Y599240D01*
X272034Y433578D02*
X272034Y419100D01*
X271780Y419074D01*
X272034Y433578D02*
X271850Y434190D01*
X272034Y434340D02*
X272034Y445770D01*
X315468Y489204D01*
X604266Y489204D01*
X667512Y552450D01*
X272034Y434340D02*
X271850Y434190D01*
X770920Y552450D02*
X784192Y565722D01*
X784710Y565722D01*
X770920Y552450D02*
X667512Y552450D01*
D28*
X784320Y566112D02*
X784320Y582880D01*
X784320Y566112D02*
X784710Y565722D01*
X784320Y566630D02*
X784320Y582880D01*
X784320Y566630D02*
X784710Y566240D01*
D25*
X749046Y485394D02*
X739140Y485394D01*
X749046Y485394D02*
X752856Y489204D01*
X752856Y501396D01*
X749046Y505206D01*
X739140Y505206D01*
X739080Y485800D02*
X739140Y485394D01*
X739080Y504800D02*
X739140Y505206D01*
X756666Y486918D02*
X955548Y486918D01*
X962406Y480060D01*
X756666Y486918D02*
X752856Y489204D01*
X962406Y480060D02*
X962800Y479700D01*
X979170Y511302D02*
X979170Y557022D01*
X979170Y511302D02*
X979932Y510540D01*
X979932Y471678D01*
X963168Y454914D01*
X979170Y557022D02*
X978510Y557530D01*
X963168Y454914D02*
X962800Y454300D01*
X837438Y329184D02*
X837438Y256794D01*
X837438Y329184D02*
X959358Y451104D01*
X837438Y256794D02*
X837190Y256130D01*
X959358Y451104D02*
X962800Y454300D01*
X953262Y514350D02*
X953262Y557022D01*
X953262Y514350D02*
X962406Y505206D01*
X953262Y557022D02*
X953110Y557530D01*
X962406Y505206D02*
X962800Y505100D01*
D27*
X144780Y572490D02*
X144780Y587502D01*
X144850Y587606D01*
X134874Y562356D02*
X134874Y203454D01*
X134874Y562356D02*
X144780Y572262D01*
X144780Y572490D01*
X71120Y139700D02*
X50800Y139700D01*
X71120Y139700D02*
X134874Y203454D01*
D28*
X50800Y139700D02*
X33020Y139700D01*
X49520Y139700D01*
D29*
X495860Y567180D03*
D27*
X495300Y566928D02*
X414528Y566928D01*
X403860Y556260D01*
X190500Y556260D01*
X170688Y576072D01*
X170688Y587502D01*
X495300Y566928D02*
X495860Y567180D01*
X170688Y587502D02*
X170250Y587606D01*
X169926Y588264D02*
X169926Y602742D01*
X170180Y602890D01*
X169926Y588264D02*
X170250Y587606D01*
D25*
X49520Y190500D02*
X33020Y190500D01*
X868940Y270210D02*
X969640Y370910D01*
X868940Y270210D02*
X868940Y256130D01*
X945140Y294340D02*
X969640Y318840D01*
X945140Y294340D02*
X945140Y256130D01*
M02*
