G04 EAGLE Gerber RS-274X export*
G75*
%MOMM*%
%FSLAX34Y34*%
%LPD*%
%INSilkscreen Bottom*%
%IPPOS*%
%AMOC8*
5,1,8,0,0,1.08239X$1,22.5*%
G01*
%ADD10C,0.130000*%
%ADD11C,0.127000*%


D10*
X1000000Y620000D02*
X1000000Y325740D01*
X0Y325740D02*
X0Y620000D01*
X650Y345240D02*
X999350Y345240D01*
X974000Y348432D01*
X974000Y342048D01*
X999350Y345240D01*
X974000Y346540D01*
X974000Y343940D02*
X999350Y345240D01*
X974000Y347840D01*
X974000Y342640D02*
X999350Y345240D01*
X26000Y348432D02*
X650Y345240D01*
X26000Y348432D02*
X26000Y342048D01*
X650Y345240D01*
X26000Y346540D01*
X26000Y343940D02*
X650Y345240D01*
X26000Y347840D01*
X26000Y342640D02*
X650Y345240D01*
D11*
X530816Y366225D02*
X534979Y362895D01*
X530816Y366225D02*
X530816Y351239D01*
X526654Y351239D02*
X534979Y351239D01*
X520502Y358732D02*
X520498Y359027D01*
X520488Y359321D01*
X520470Y359616D01*
X520446Y359910D01*
X520414Y360203D01*
X520376Y360495D01*
X520330Y360786D01*
X520277Y361076D01*
X520218Y361365D01*
X520152Y361652D01*
X520079Y361938D01*
X519999Y362222D01*
X519912Y362504D01*
X519819Y362783D01*
X519719Y363061D01*
X519612Y363335D01*
X519499Y363608D01*
X519379Y363877D01*
X519253Y364144D01*
X519215Y364247D01*
X519174Y364348D01*
X519130Y364447D01*
X519082Y364546D01*
X519031Y364642D01*
X518976Y364736D01*
X518918Y364829D01*
X518857Y364919D01*
X518792Y365007D01*
X518725Y365093D01*
X518654Y365176D01*
X518581Y365257D01*
X518505Y365335D01*
X518426Y365411D01*
X518344Y365483D01*
X518260Y365553D01*
X518173Y365619D01*
X518085Y365683D01*
X517994Y365743D01*
X517900Y365800D01*
X517805Y365854D01*
X517708Y365904D01*
X517610Y365951D01*
X517510Y365994D01*
X517408Y366034D01*
X517305Y366070D01*
X517201Y366102D01*
X517095Y366131D01*
X516989Y366156D01*
X516882Y366177D01*
X516774Y366194D01*
X516666Y366208D01*
X516557Y366217D01*
X516448Y366223D01*
X516339Y366225D01*
X516230Y366223D01*
X516121Y366217D01*
X516012Y366208D01*
X515904Y366194D01*
X515796Y366177D01*
X515689Y366156D01*
X515582Y366131D01*
X515477Y366102D01*
X515373Y366070D01*
X515270Y366034D01*
X515168Y365994D01*
X515068Y365951D01*
X514969Y365904D01*
X514872Y365853D01*
X514777Y365800D01*
X514684Y365743D01*
X514593Y365682D01*
X514504Y365619D01*
X514418Y365552D01*
X514333Y365483D01*
X514252Y365410D01*
X514173Y365335D01*
X514097Y365257D01*
X514023Y365176D01*
X513953Y365093D01*
X513885Y365007D01*
X513820Y364919D01*
X513759Y364828D01*
X513701Y364736D01*
X513646Y364641D01*
X513595Y364545D01*
X513547Y364447D01*
X513503Y364347D01*
X513462Y364246D01*
X513425Y364143D01*
X513425Y364144D02*
X513299Y363877D01*
X513179Y363608D01*
X513066Y363335D01*
X512959Y363061D01*
X512859Y362783D01*
X512766Y362504D01*
X512679Y362222D01*
X512599Y361938D01*
X512526Y361652D01*
X512460Y361365D01*
X512401Y361076D01*
X512348Y360786D01*
X512302Y360495D01*
X512264Y360203D01*
X512232Y359910D01*
X512208Y359616D01*
X512190Y359321D01*
X512180Y359027D01*
X512176Y358732D01*
X520502Y358732D02*
X520498Y358437D01*
X520488Y358143D01*
X520470Y357848D01*
X520446Y357554D01*
X520414Y357261D01*
X520376Y356969D01*
X520330Y356678D01*
X520277Y356388D01*
X520218Y356099D01*
X520152Y355812D01*
X520079Y355526D01*
X519999Y355242D01*
X519912Y354960D01*
X519819Y354681D01*
X519719Y354403D01*
X519612Y354129D01*
X519499Y353856D01*
X519379Y353587D01*
X519253Y353320D01*
X519215Y353217D01*
X519174Y353116D01*
X519130Y353017D01*
X519082Y352918D01*
X519031Y352822D01*
X518976Y352728D01*
X518918Y352635D01*
X518857Y352545D01*
X518792Y352457D01*
X518725Y352371D01*
X518654Y352288D01*
X518581Y352207D01*
X518505Y352129D01*
X518426Y352053D01*
X518344Y351981D01*
X518260Y351911D01*
X518173Y351845D01*
X518085Y351781D01*
X517994Y351721D01*
X517900Y351664D01*
X517805Y351610D01*
X517708Y351560D01*
X517610Y351513D01*
X517510Y351470D01*
X517408Y351430D01*
X517305Y351394D01*
X517201Y351362D01*
X517095Y351333D01*
X516989Y351308D01*
X516882Y351287D01*
X516774Y351270D01*
X516666Y351256D01*
X516557Y351247D01*
X516448Y351241D01*
X516339Y351239D01*
X513425Y353320D02*
X513299Y353587D01*
X513179Y353856D01*
X513066Y354129D01*
X512959Y354403D01*
X512859Y354681D01*
X512766Y354960D01*
X512679Y355242D01*
X512599Y355526D01*
X512526Y355812D01*
X512460Y356099D01*
X512401Y356388D01*
X512348Y356678D01*
X512302Y356969D01*
X512264Y357261D01*
X512232Y357554D01*
X512208Y357848D01*
X512190Y358143D01*
X512180Y358437D01*
X512176Y358732D01*
X513425Y353321D02*
X513462Y353218D01*
X513503Y353117D01*
X513547Y353017D01*
X513595Y352919D01*
X513646Y352823D01*
X513701Y352728D01*
X513759Y352636D01*
X513820Y352545D01*
X513885Y352457D01*
X513953Y352371D01*
X514023Y352288D01*
X514097Y352207D01*
X514173Y352129D01*
X514252Y352054D01*
X514333Y351981D01*
X514418Y351912D01*
X514504Y351845D01*
X514593Y351782D01*
X514684Y351721D01*
X514777Y351664D01*
X514872Y351611D01*
X514969Y351560D01*
X515068Y351513D01*
X515168Y351470D01*
X515270Y351430D01*
X515373Y351394D01*
X515477Y351362D01*
X515582Y351333D01*
X515689Y351308D01*
X515796Y351287D01*
X515904Y351270D01*
X516012Y351256D01*
X516121Y351247D01*
X516230Y351241D01*
X516339Y351239D01*
X519669Y354569D02*
X513009Y362895D01*
X506025Y358732D02*
X506021Y359027D01*
X506011Y359321D01*
X505993Y359616D01*
X505969Y359910D01*
X505937Y360203D01*
X505899Y360495D01*
X505853Y360786D01*
X505800Y361076D01*
X505741Y361365D01*
X505675Y361652D01*
X505602Y361938D01*
X505522Y362222D01*
X505435Y362504D01*
X505342Y362783D01*
X505242Y363061D01*
X505135Y363335D01*
X505022Y363608D01*
X504902Y363877D01*
X504776Y364144D01*
X504738Y364247D01*
X504697Y364348D01*
X504653Y364447D01*
X504605Y364546D01*
X504554Y364642D01*
X504499Y364736D01*
X504441Y364829D01*
X504380Y364919D01*
X504315Y365007D01*
X504248Y365093D01*
X504177Y365176D01*
X504104Y365257D01*
X504028Y365335D01*
X503949Y365411D01*
X503867Y365483D01*
X503783Y365553D01*
X503696Y365619D01*
X503608Y365683D01*
X503517Y365743D01*
X503423Y365800D01*
X503328Y365854D01*
X503231Y365904D01*
X503133Y365951D01*
X503033Y365994D01*
X502931Y366034D01*
X502828Y366070D01*
X502724Y366102D01*
X502618Y366131D01*
X502512Y366156D01*
X502405Y366177D01*
X502297Y366194D01*
X502189Y366208D01*
X502080Y366217D01*
X501971Y366223D01*
X501862Y366225D01*
X501753Y366223D01*
X501644Y366217D01*
X501535Y366208D01*
X501427Y366194D01*
X501319Y366177D01*
X501212Y366156D01*
X501105Y366131D01*
X501000Y366102D01*
X500896Y366070D01*
X500793Y366034D01*
X500691Y365994D01*
X500591Y365951D01*
X500492Y365904D01*
X500395Y365853D01*
X500300Y365800D01*
X500207Y365743D01*
X500116Y365682D01*
X500027Y365619D01*
X499941Y365552D01*
X499856Y365483D01*
X499775Y365410D01*
X499696Y365335D01*
X499620Y365257D01*
X499546Y365176D01*
X499476Y365093D01*
X499408Y365007D01*
X499343Y364919D01*
X499282Y364828D01*
X499224Y364736D01*
X499169Y364641D01*
X499118Y364545D01*
X499070Y364447D01*
X499026Y364347D01*
X498985Y364246D01*
X498948Y364143D01*
X498948Y364144D02*
X498822Y363877D01*
X498702Y363608D01*
X498589Y363335D01*
X498482Y363061D01*
X498382Y362783D01*
X498289Y362504D01*
X498202Y362222D01*
X498122Y361938D01*
X498049Y361652D01*
X497983Y361365D01*
X497924Y361076D01*
X497871Y360786D01*
X497825Y360495D01*
X497787Y360203D01*
X497755Y359910D01*
X497731Y359616D01*
X497713Y359321D01*
X497703Y359027D01*
X497699Y358732D01*
X506025Y358732D02*
X506021Y358437D01*
X506011Y358143D01*
X505993Y357848D01*
X505969Y357554D01*
X505937Y357261D01*
X505899Y356969D01*
X505853Y356678D01*
X505800Y356388D01*
X505741Y356099D01*
X505675Y355812D01*
X505602Y355526D01*
X505522Y355242D01*
X505435Y354960D01*
X505342Y354681D01*
X505242Y354403D01*
X505135Y354129D01*
X505022Y353856D01*
X504902Y353587D01*
X504776Y353320D01*
X504738Y353217D01*
X504697Y353116D01*
X504653Y353017D01*
X504605Y352918D01*
X504554Y352822D01*
X504499Y352728D01*
X504441Y352635D01*
X504380Y352545D01*
X504315Y352457D01*
X504248Y352371D01*
X504177Y352288D01*
X504104Y352207D01*
X504028Y352129D01*
X503949Y352053D01*
X503867Y351981D01*
X503783Y351911D01*
X503696Y351845D01*
X503608Y351781D01*
X503517Y351721D01*
X503423Y351664D01*
X503328Y351610D01*
X503231Y351560D01*
X503133Y351513D01*
X503033Y351470D01*
X502931Y351430D01*
X502828Y351394D01*
X502724Y351362D01*
X502618Y351333D01*
X502512Y351308D01*
X502405Y351287D01*
X502297Y351270D01*
X502189Y351256D01*
X502080Y351247D01*
X501971Y351241D01*
X501862Y351239D01*
X498948Y353320D02*
X498822Y353587D01*
X498702Y353856D01*
X498589Y354129D01*
X498482Y354403D01*
X498382Y354681D01*
X498289Y354960D01*
X498202Y355242D01*
X498122Y355526D01*
X498049Y355812D01*
X497983Y356099D01*
X497924Y356388D01*
X497871Y356678D01*
X497825Y356969D01*
X497787Y357261D01*
X497755Y357554D01*
X497731Y357848D01*
X497713Y358143D01*
X497703Y358437D01*
X497699Y358732D01*
X498948Y353321D02*
X498985Y353218D01*
X499026Y353117D01*
X499070Y353017D01*
X499118Y352919D01*
X499169Y352823D01*
X499224Y352728D01*
X499282Y352636D01*
X499343Y352545D01*
X499408Y352457D01*
X499476Y352371D01*
X499546Y352288D01*
X499620Y352207D01*
X499696Y352129D01*
X499775Y352054D01*
X499856Y351981D01*
X499941Y351912D01*
X500027Y351845D01*
X500116Y351782D01*
X500207Y351721D01*
X500300Y351664D01*
X500395Y351611D01*
X500492Y351560D01*
X500591Y351513D01*
X500691Y351470D01*
X500793Y351430D01*
X500896Y351394D01*
X501000Y351362D01*
X501105Y351333D01*
X501212Y351308D01*
X501319Y351287D01*
X501427Y351270D01*
X501535Y351256D01*
X501644Y351247D01*
X501753Y351241D01*
X501862Y351239D01*
X505192Y354569D02*
X498532Y362895D01*
X492144Y352072D02*
X492144Y351239D01*
X492144Y352072D02*
X491312Y352072D01*
X491312Y351239D01*
X492144Y351239D01*
X485757Y358732D02*
X485753Y359027D01*
X485743Y359321D01*
X485725Y359616D01*
X485701Y359910D01*
X485669Y360203D01*
X485631Y360495D01*
X485585Y360786D01*
X485532Y361076D01*
X485473Y361365D01*
X485407Y361652D01*
X485334Y361938D01*
X485254Y362222D01*
X485167Y362504D01*
X485074Y362783D01*
X484974Y363061D01*
X484867Y363335D01*
X484754Y363608D01*
X484634Y363877D01*
X484508Y364144D01*
X484470Y364247D01*
X484429Y364348D01*
X484385Y364447D01*
X484337Y364546D01*
X484286Y364642D01*
X484231Y364736D01*
X484173Y364829D01*
X484112Y364919D01*
X484047Y365007D01*
X483980Y365093D01*
X483909Y365176D01*
X483836Y365257D01*
X483760Y365335D01*
X483681Y365411D01*
X483599Y365483D01*
X483515Y365553D01*
X483428Y365619D01*
X483340Y365683D01*
X483249Y365743D01*
X483155Y365800D01*
X483060Y365854D01*
X482963Y365904D01*
X482865Y365951D01*
X482765Y365994D01*
X482663Y366034D01*
X482560Y366070D01*
X482456Y366102D01*
X482350Y366131D01*
X482244Y366156D01*
X482137Y366177D01*
X482029Y366194D01*
X481921Y366208D01*
X481812Y366217D01*
X481703Y366223D01*
X481594Y366225D01*
X481485Y366223D01*
X481376Y366217D01*
X481267Y366208D01*
X481159Y366194D01*
X481051Y366177D01*
X480944Y366156D01*
X480837Y366131D01*
X480732Y366102D01*
X480628Y366070D01*
X480525Y366034D01*
X480423Y365994D01*
X480323Y365951D01*
X480224Y365904D01*
X480127Y365853D01*
X480032Y365800D01*
X479939Y365743D01*
X479848Y365682D01*
X479759Y365619D01*
X479673Y365552D01*
X479588Y365483D01*
X479507Y365410D01*
X479428Y365335D01*
X479352Y365257D01*
X479278Y365176D01*
X479208Y365093D01*
X479140Y365007D01*
X479075Y364919D01*
X479014Y364828D01*
X478956Y364736D01*
X478901Y364641D01*
X478850Y364545D01*
X478802Y364447D01*
X478758Y364347D01*
X478717Y364246D01*
X478680Y364143D01*
X478680Y364144D02*
X478554Y363877D01*
X478434Y363608D01*
X478321Y363335D01*
X478214Y363061D01*
X478114Y362783D01*
X478021Y362504D01*
X477934Y362222D01*
X477854Y361938D01*
X477781Y361652D01*
X477715Y361365D01*
X477656Y361076D01*
X477603Y360786D01*
X477557Y360495D01*
X477519Y360203D01*
X477487Y359910D01*
X477463Y359616D01*
X477445Y359321D01*
X477435Y359027D01*
X477431Y358732D01*
X485757Y358732D02*
X485753Y358437D01*
X485743Y358143D01*
X485725Y357848D01*
X485701Y357554D01*
X485669Y357261D01*
X485631Y356969D01*
X485585Y356678D01*
X485532Y356388D01*
X485473Y356099D01*
X485407Y355812D01*
X485334Y355526D01*
X485254Y355242D01*
X485167Y354960D01*
X485074Y354681D01*
X484974Y354403D01*
X484867Y354129D01*
X484754Y353856D01*
X484634Y353587D01*
X484508Y353320D01*
X484470Y353217D01*
X484429Y353116D01*
X484385Y353017D01*
X484337Y352918D01*
X484286Y352822D01*
X484231Y352728D01*
X484173Y352635D01*
X484112Y352545D01*
X484047Y352457D01*
X483980Y352371D01*
X483909Y352288D01*
X483836Y352207D01*
X483760Y352129D01*
X483681Y352053D01*
X483599Y351981D01*
X483515Y351911D01*
X483428Y351845D01*
X483340Y351781D01*
X483249Y351721D01*
X483155Y351664D01*
X483060Y351610D01*
X482963Y351560D01*
X482865Y351513D01*
X482765Y351470D01*
X482663Y351430D01*
X482560Y351394D01*
X482456Y351362D01*
X482350Y351333D01*
X482244Y351308D01*
X482137Y351287D01*
X482029Y351270D01*
X481921Y351256D01*
X481812Y351247D01*
X481703Y351241D01*
X481594Y351239D01*
X478680Y353320D02*
X478554Y353587D01*
X478434Y353856D01*
X478321Y354129D01*
X478214Y354403D01*
X478114Y354681D01*
X478021Y354960D01*
X477934Y355242D01*
X477854Y355526D01*
X477781Y355812D01*
X477715Y356099D01*
X477656Y356388D01*
X477603Y356678D01*
X477557Y356969D01*
X477519Y357261D01*
X477487Y357554D01*
X477463Y357848D01*
X477445Y358143D01*
X477435Y358437D01*
X477431Y358732D01*
X478680Y353321D02*
X478717Y353218D01*
X478758Y353117D01*
X478802Y353017D01*
X478850Y352919D01*
X478901Y352823D01*
X478956Y352728D01*
X479014Y352636D01*
X479075Y352545D01*
X479140Y352457D01*
X479208Y352371D01*
X479278Y352288D01*
X479352Y352207D01*
X479428Y352129D01*
X479507Y352054D01*
X479588Y351981D01*
X479673Y351912D01*
X479759Y351845D01*
X479848Y351782D01*
X479939Y351721D01*
X480032Y351664D01*
X480127Y351611D01*
X480224Y351560D01*
X480323Y351513D01*
X480423Y351470D01*
X480525Y351430D01*
X480628Y351394D01*
X480732Y351362D01*
X480837Y351333D01*
X480944Y351308D01*
X481051Y351287D01*
X481159Y351270D01*
X481267Y351256D01*
X481376Y351247D01*
X481485Y351241D01*
X481594Y351239D01*
X484924Y354569D02*
X478264Y362895D01*
X471280Y358732D02*
X471276Y359027D01*
X471266Y359321D01*
X471248Y359616D01*
X471224Y359910D01*
X471192Y360203D01*
X471154Y360495D01*
X471108Y360786D01*
X471055Y361076D01*
X470996Y361365D01*
X470930Y361652D01*
X470857Y361938D01*
X470777Y362222D01*
X470690Y362504D01*
X470597Y362783D01*
X470497Y363061D01*
X470390Y363335D01*
X470277Y363608D01*
X470157Y363877D01*
X470031Y364144D01*
X469993Y364247D01*
X469952Y364348D01*
X469908Y364447D01*
X469860Y364546D01*
X469809Y364642D01*
X469754Y364736D01*
X469696Y364829D01*
X469635Y364919D01*
X469570Y365007D01*
X469503Y365093D01*
X469432Y365176D01*
X469359Y365257D01*
X469283Y365335D01*
X469204Y365411D01*
X469122Y365483D01*
X469038Y365553D01*
X468951Y365619D01*
X468863Y365683D01*
X468772Y365743D01*
X468678Y365800D01*
X468583Y365854D01*
X468486Y365904D01*
X468388Y365951D01*
X468288Y365994D01*
X468186Y366034D01*
X468083Y366070D01*
X467979Y366102D01*
X467873Y366131D01*
X467767Y366156D01*
X467660Y366177D01*
X467552Y366194D01*
X467444Y366208D01*
X467335Y366217D01*
X467226Y366223D01*
X467117Y366225D01*
X467008Y366223D01*
X466899Y366217D01*
X466790Y366208D01*
X466682Y366194D01*
X466574Y366177D01*
X466467Y366156D01*
X466360Y366131D01*
X466255Y366102D01*
X466151Y366070D01*
X466048Y366034D01*
X465946Y365994D01*
X465846Y365951D01*
X465747Y365904D01*
X465650Y365853D01*
X465555Y365800D01*
X465462Y365743D01*
X465371Y365682D01*
X465282Y365619D01*
X465196Y365552D01*
X465111Y365483D01*
X465030Y365410D01*
X464951Y365335D01*
X464875Y365257D01*
X464801Y365176D01*
X464731Y365093D01*
X464663Y365007D01*
X464598Y364919D01*
X464537Y364828D01*
X464479Y364736D01*
X464424Y364641D01*
X464373Y364545D01*
X464325Y364447D01*
X464281Y364347D01*
X464240Y364246D01*
X464203Y364143D01*
X464203Y364144D02*
X464077Y363877D01*
X463957Y363608D01*
X463844Y363335D01*
X463737Y363061D01*
X463637Y362783D01*
X463544Y362504D01*
X463457Y362222D01*
X463377Y361938D01*
X463304Y361652D01*
X463238Y361365D01*
X463179Y361076D01*
X463126Y360786D01*
X463080Y360495D01*
X463042Y360203D01*
X463010Y359910D01*
X462986Y359616D01*
X462968Y359321D01*
X462958Y359027D01*
X462954Y358732D01*
X471280Y358732D02*
X471276Y358437D01*
X471266Y358143D01*
X471248Y357848D01*
X471224Y357554D01*
X471192Y357261D01*
X471154Y356969D01*
X471108Y356678D01*
X471055Y356388D01*
X470996Y356099D01*
X470930Y355812D01*
X470857Y355526D01*
X470777Y355242D01*
X470690Y354960D01*
X470597Y354681D01*
X470497Y354403D01*
X470390Y354129D01*
X470277Y353856D01*
X470157Y353587D01*
X470031Y353320D01*
X469993Y353217D01*
X469952Y353116D01*
X469908Y353017D01*
X469860Y352918D01*
X469809Y352822D01*
X469754Y352728D01*
X469696Y352635D01*
X469635Y352545D01*
X469570Y352457D01*
X469503Y352371D01*
X469432Y352288D01*
X469359Y352207D01*
X469283Y352129D01*
X469204Y352053D01*
X469122Y351981D01*
X469038Y351911D01*
X468951Y351845D01*
X468863Y351781D01*
X468772Y351721D01*
X468678Y351664D01*
X468583Y351610D01*
X468486Y351560D01*
X468388Y351513D01*
X468288Y351470D01*
X468186Y351430D01*
X468083Y351394D01*
X467979Y351362D01*
X467873Y351333D01*
X467767Y351308D01*
X467660Y351287D01*
X467552Y351270D01*
X467444Y351256D01*
X467335Y351247D01*
X467226Y351241D01*
X467117Y351239D01*
X464203Y353320D02*
X464077Y353587D01*
X463957Y353856D01*
X463844Y354129D01*
X463737Y354403D01*
X463637Y354681D01*
X463544Y354960D01*
X463457Y355242D01*
X463377Y355526D01*
X463304Y355812D01*
X463238Y356099D01*
X463179Y356388D01*
X463126Y356678D01*
X463080Y356969D01*
X463042Y357261D01*
X463010Y357554D01*
X462986Y357848D01*
X462968Y358143D01*
X462958Y358437D01*
X462954Y358732D01*
X464203Y353321D02*
X464240Y353218D01*
X464281Y353117D01*
X464325Y353017D01*
X464373Y352919D01*
X464424Y352823D01*
X464479Y352728D01*
X464537Y352636D01*
X464598Y352545D01*
X464663Y352457D01*
X464731Y352371D01*
X464801Y352288D01*
X464875Y352207D01*
X464951Y352129D01*
X465030Y352054D01*
X465111Y351981D01*
X465196Y351912D01*
X465282Y351845D01*
X465371Y351782D01*
X465462Y351721D01*
X465555Y351664D01*
X465650Y351611D01*
X465747Y351560D01*
X465846Y351513D01*
X465946Y351470D01*
X466048Y351430D01*
X466151Y351394D01*
X466255Y351362D01*
X466360Y351333D01*
X466467Y351308D01*
X466574Y351287D01*
X466682Y351270D01*
X466790Y351256D01*
X466899Y351247D01*
X467008Y351241D01*
X467117Y351239D01*
X470447Y354569D02*
X463787Y362895D01*
D10*
X428820Y0D02*
X992000Y0D01*
X992000Y620000D02*
X428820Y620000D01*
X448320Y619350D02*
X448320Y650D01*
X445128Y26000D01*
X451512Y26000D01*
X448320Y650D01*
X447020Y26000D01*
X449620Y26000D02*
X448320Y650D01*
X445720Y26000D01*
X450920Y26000D02*
X448320Y650D01*
X445128Y594000D02*
X448320Y619350D01*
X445128Y594000D02*
X451512Y594000D01*
X448320Y619350D01*
X447020Y594000D01*
X449620Y594000D02*
X448320Y619350D01*
X445720Y594000D01*
X450920Y594000D02*
X448320Y619350D01*
D11*
X435661Y285955D02*
X435661Y280960D01*
X435660Y285955D02*
X435658Y286069D01*
X435652Y286182D01*
X435643Y286296D01*
X435629Y286408D01*
X435612Y286521D01*
X435590Y286633D01*
X435565Y286743D01*
X435537Y286853D01*
X435504Y286962D01*
X435468Y287070D01*
X435428Y287177D01*
X435384Y287282D01*
X435337Y287385D01*
X435287Y287487D01*
X435233Y287587D01*
X435175Y287685D01*
X435114Y287781D01*
X435051Y287875D01*
X434983Y287967D01*
X434913Y288057D01*
X434840Y288143D01*
X434764Y288228D01*
X434685Y288310D01*
X434603Y288389D01*
X434518Y288465D01*
X434432Y288538D01*
X434342Y288608D01*
X434250Y288676D01*
X434156Y288739D01*
X434060Y288800D01*
X433962Y288858D01*
X433862Y288912D01*
X433760Y288962D01*
X433657Y289009D01*
X433552Y289053D01*
X433445Y289093D01*
X433337Y289129D01*
X433228Y289162D01*
X433118Y289190D01*
X433008Y289215D01*
X432896Y289237D01*
X432783Y289254D01*
X432671Y289268D01*
X432557Y289277D01*
X432444Y289283D01*
X432330Y289285D01*
X431498Y289285D01*
X431498Y289286D02*
X431370Y289284D01*
X431242Y289278D01*
X431114Y289268D01*
X430986Y289254D01*
X430859Y289237D01*
X430733Y289215D01*
X430607Y289190D01*
X430483Y289160D01*
X430359Y289127D01*
X430236Y289090D01*
X430114Y289049D01*
X429994Y289005D01*
X429875Y288957D01*
X429758Y288905D01*
X429642Y288850D01*
X429529Y288791D01*
X429417Y288728D01*
X429306Y288662D01*
X429199Y288593D01*
X429093Y288521D01*
X428989Y288445D01*
X428888Y288366D01*
X428789Y288284D01*
X428693Y288199D01*
X428600Y288112D01*
X428509Y288021D01*
X428422Y287928D01*
X428337Y287832D01*
X428255Y287733D01*
X428176Y287632D01*
X428100Y287528D01*
X428028Y287422D01*
X427959Y287315D01*
X427893Y287205D01*
X427830Y287092D01*
X427771Y286979D01*
X427716Y286863D01*
X427664Y286746D01*
X427616Y286627D01*
X427572Y286507D01*
X427531Y286385D01*
X427494Y286262D01*
X427461Y286138D01*
X427431Y286014D01*
X427406Y285888D01*
X427384Y285762D01*
X427367Y285635D01*
X427353Y285507D01*
X427343Y285379D01*
X427337Y285251D01*
X427335Y285123D01*
X427337Y284995D01*
X427343Y284867D01*
X427353Y284739D01*
X427367Y284611D01*
X427384Y284484D01*
X427406Y284358D01*
X427431Y284232D01*
X427461Y284108D01*
X427494Y283984D01*
X427531Y283861D01*
X427572Y283739D01*
X427616Y283619D01*
X427664Y283500D01*
X427716Y283383D01*
X427771Y283267D01*
X427830Y283154D01*
X427893Y283042D01*
X427959Y282931D01*
X428028Y282824D01*
X428100Y282718D01*
X428176Y282614D01*
X428255Y282513D01*
X428337Y282414D01*
X428422Y282318D01*
X428509Y282225D01*
X428600Y282134D01*
X428693Y282047D01*
X428789Y281962D01*
X428888Y281880D01*
X428989Y281801D01*
X429093Y281725D01*
X429199Y281653D01*
X429306Y281584D01*
X429417Y281518D01*
X429529Y281455D01*
X429642Y281396D01*
X429758Y281341D01*
X429875Y281289D01*
X429994Y281241D01*
X430114Y281197D01*
X430236Y281156D01*
X430359Y281119D01*
X430483Y281086D01*
X430607Y281056D01*
X430733Y281031D01*
X430859Y281009D01*
X430986Y280992D01*
X431114Y280978D01*
X431242Y280968D01*
X431370Y280962D01*
X431498Y280960D01*
X435661Y280960D01*
X435824Y280962D01*
X435988Y280968D01*
X436151Y280978D01*
X436314Y280992D01*
X436476Y281010D01*
X436638Y281032D01*
X436800Y281058D01*
X436960Y281088D01*
X437120Y281122D01*
X437279Y281160D01*
X437437Y281201D01*
X437594Y281247D01*
X437750Y281296D01*
X437905Y281349D01*
X438058Y281406D01*
X438210Y281467D01*
X438360Y281531D01*
X438509Y281599D01*
X438655Y281671D01*
X438800Y281746D01*
X438944Y281825D01*
X439085Y281908D01*
X439224Y281993D01*
X439361Y282082D01*
X439496Y282175D01*
X439628Y282271D01*
X439758Y282370D01*
X439886Y282472D01*
X440011Y282577D01*
X440134Y282685D01*
X440253Y282797D01*
X440370Y282911D01*
X440484Y283028D01*
X440596Y283147D01*
X440704Y283270D01*
X440809Y283395D01*
X440911Y283523D01*
X441010Y283653D01*
X441106Y283785D01*
X441199Y283920D01*
X441288Y284057D01*
X441373Y284196D01*
X441456Y284337D01*
X441535Y284480D01*
X441610Y284626D01*
X441682Y284772D01*
X441750Y284921D01*
X441814Y285071D01*
X441875Y285223D01*
X441932Y285376D01*
X441985Y285531D01*
X442034Y285687D01*
X442080Y285844D01*
X442121Y286002D01*
X442159Y286161D01*
X442193Y286321D01*
X442223Y286481D01*
X442249Y286643D01*
X442271Y286805D01*
X442289Y286967D01*
X442303Y287130D01*
X442313Y287293D01*
X442319Y287457D01*
X442321Y287620D01*
X442322Y300016D02*
X442320Y300136D01*
X442314Y300256D01*
X442305Y300376D01*
X442291Y300495D01*
X442274Y300614D01*
X442253Y300732D01*
X442228Y300850D01*
X442199Y300966D01*
X442167Y301082D01*
X442131Y301197D01*
X442091Y301310D01*
X442048Y301422D01*
X442001Y301533D01*
X441951Y301642D01*
X441897Y301749D01*
X441840Y301855D01*
X441779Y301958D01*
X441715Y302060D01*
X441648Y302160D01*
X441578Y302257D01*
X441505Y302352D01*
X441428Y302445D01*
X441349Y302535D01*
X441267Y302623D01*
X441182Y302708D01*
X441094Y302790D01*
X441004Y302869D01*
X440911Y302946D01*
X440816Y303019D01*
X440719Y303089D01*
X440619Y303156D01*
X440517Y303220D01*
X440414Y303281D01*
X440308Y303338D01*
X440201Y303392D01*
X440092Y303442D01*
X439981Y303489D01*
X439869Y303532D01*
X439756Y303572D01*
X439641Y303608D01*
X439525Y303640D01*
X439409Y303669D01*
X439291Y303694D01*
X439173Y303715D01*
X439054Y303732D01*
X438935Y303746D01*
X438815Y303755D01*
X438695Y303761D01*
X438575Y303763D01*
X442321Y300016D02*
X442319Y299878D01*
X442313Y299741D01*
X442303Y299604D01*
X442290Y299467D01*
X442272Y299331D01*
X442250Y299195D01*
X442225Y299059D01*
X442196Y298925D01*
X442163Y298792D01*
X442126Y298659D01*
X442085Y298528D01*
X442041Y298397D01*
X441993Y298269D01*
X441941Y298141D01*
X441885Y298015D01*
X441826Y297891D01*
X441764Y297768D01*
X441698Y297648D01*
X441629Y297529D01*
X441556Y297412D01*
X441480Y297298D01*
X441400Y297185D01*
X441318Y297075D01*
X441232Y296967D01*
X441144Y296862D01*
X441052Y296760D01*
X440958Y296660D01*
X440860Y296562D01*
X440760Y296468D01*
X440657Y296377D01*
X440552Y296288D01*
X440444Y296203D01*
X440334Y296120D01*
X440222Y296041D01*
X440107Y295965D01*
X439990Y295892D01*
X439871Y295823D01*
X439751Y295757D01*
X439628Y295695D01*
X439504Y295636D01*
X439378Y295581D01*
X439250Y295529D01*
X439121Y295481D01*
X438991Y295437D01*
X435661Y302514D02*
X435749Y302604D01*
X435840Y302690D01*
X435933Y302774D01*
X436029Y302855D01*
X436127Y302933D01*
X436227Y303007D01*
X436330Y303079D01*
X436435Y303147D01*
X436543Y303212D01*
X436652Y303274D01*
X436763Y303332D01*
X436876Y303387D01*
X436990Y303438D01*
X437106Y303485D01*
X437223Y303529D01*
X437342Y303569D01*
X437462Y303606D01*
X437583Y303639D01*
X437705Y303668D01*
X437827Y303693D01*
X437951Y303714D01*
X438075Y303732D01*
X438200Y303745D01*
X438325Y303755D01*
X438450Y303761D01*
X438575Y303763D01*
X435661Y302514D02*
X427335Y295437D01*
X427335Y303763D01*
X427335Y309318D02*
X428168Y309318D01*
X428168Y310150D01*
X427335Y310150D01*
X427335Y309318D01*
X434828Y315705D02*
X435123Y315709D01*
X435417Y315719D01*
X435712Y315737D01*
X436006Y315761D01*
X436299Y315793D01*
X436591Y315831D01*
X436882Y315877D01*
X437172Y315930D01*
X437461Y315989D01*
X437748Y316055D01*
X438034Y316128D01*
X438318Y316208D01*
X438600Y316295D01*
X438879Y316388D01*
X439157Y316488D01*
X439431Y316595D01*
X439704Y316708D01*
X439973Y316828D01*
X440240Y316954D01*
X440343Y316992D01*
X440444Y317033D01*
X440543Y317077D01*
X440642Y317125D01*
X440738Y317176D01*
X440832Y317231D01*
X440925Y317289D01*
X441015Y317350D01*
X441103Y317415D01*
X441189Y317482D01*
X441272Y317553D01*
X441353Y317626D01*
X441431Y317702D01*
X441507Y317781D01*
X441579Y317863D01*
X441649Y317947D01*
X441715Y318034D01*
X441779Y318122D01*
X441839Y318213D01*
X441896Y318307D01*
X441950Y318402D01*
X442000Y318499D01*
X442047Y318597D01*
X442090Y318697D01*
X442130Y318799D01*
X442166Y318902D01*
X442198Y319006D01*
X442227Y319112D01*
X442252Y319218D01*
X442273Y319325D01*
X442290Y319433D01*
X442304Y319541D01*
X442313Y319650D01*
X442319Y319759D01*
X442321Y319868D01*
X442319Y319977D01*
X442313Y320086D01*
X442304Y320195D01*
X442290Y320303D01*
X442273Y320411D01*
X442252Y320518D01*
X442227Y320624D01*
X442198Y320730D01*
X442166Y320834D01*
X442130Y320937D01*
X442090Y321039D01*
X442047Y321139D01*
X442000Y321237D01*
X441950Y321334D01*
X441896Y321429D01*
X441839Y321523D01*
X441779Y321614D01*
X441715Y321702D01*
X441649Y321789D01*
X441579Y321873D01*
X441507Y321955D01*
X441431Y322034D01*
X441353Y322110D01*
X441272Y322183D01*
X441189Y322254D01*
X441103Y322321D01*
X441015Y322386D01*
X440925Y322447D01*
X440832Y322505D01*
X440738Y322560D01*
X440642Y322611D01*
X440543Y322659D01*
X440444Y322703D01*
X440343Y322744D01*
X440240Y322782D01*
X439973Y322908D01*
X439704Y323028D01*
X439431Y323141D01*
X439157Y323248D01*
X438879Y323348D01*
X438600Y323441D01*
X438318Y323528D01*
X438034Y323608D01*
X437748Y323681D01*
X437461Y323747D01*
X437172Y323806D01*
X436882Y323859D01*
X436591Y323905D01*
X436299Y323943D01*
X436006Y323975D01*
X435712Y323999D01*
X435417Y324017D01*
X435123Y324027D01*
X434828Y324031D01*
X434828Y315705D02*
X434533Y315709D01*
X434239Y315719D01*
X433944Y315737D01*
X433650Y315761D01*
X433357Y315793D01*
X433065Y315831D01*
X432774Y315877D01*
X432484Y315930D01*
X432195Y315989D01*
X431908Y316055D01*
X431622Y316128D01*
X431338Y316208D01*
X431056Y316295D01*
X430777Y316388D01*
X430499Y316488D01*
X430225Y316595D01*
X429952Y316708D01*
X429683Y316828D01*
X429416Y316954D01*
X429313Y316992D01*
X429212Y317033D01*
X429113Y317077D01*
X429014Y317125D01*
X428918Y317176D01*
X428824Y317231D01*
X428731Y317289D01*
X428641Y317350D01*
X428553Y317415D01*
X428467Y317482D01*
X428384Y317553D01*
X428303Y317626D01*
X428225Y317702D01*
X428149Y317781D01*
X428077Y317863D01*
X428007Y317947D01*
X427941Y318034D01*
X427877Y318122D01*
X427817Y318213D01*
X427760Y318307D01*
X427706Y318402D01*
X427656Y318499D01*
X427609Y318597D01*
X427566Y318697D01*
X427526Y318799D01*
X427490Y318902D01*
X427458Y319006D01*
X427429Y319112D01*
X427404Y319218D01*
X427383Y319325D01*
X427366Y319433D01*
X427352Y319541D01*
X427343Y319650D01*
X427337Y319759D01*
X427335Y319868D01*
X429416Y322782D02*
X429683Y322908D01*
X429952Y323028D01*
X430225Y323141D01*
X430499Y323248D01*
X430777Y323348D01*
X431056Y323441D01*
X431338Y323528D01*
X431622Y323608D01*
X431908Y323681D01*
X432195Y323747D01*
X432484Y323806D01*
X432774Y323859D01*
X433065Y323905D01*
X433357Y323943D01*
X433650Y323975D01*
X433944Y323999D01*
X434239Y324017D01*
X434533Y324027D01*
X434828Y324031D01*
X429416Y322782D02*
X429313Y322744D01*
X429212Y322703D01*
X429113Y322659D01*
X429014Y322611D01*
X428918Y322560D01*
X428824Y322505D01*
X428731Y322447D01*
X428641Y322386D01*
X428553Y322321D01*
X428467Y322254D01*
X428384Y322183D01*
X428303Y322110D01*
X428225Y322034D01*
X428149Y321955D01*
X428077Y321873D01*
X428007Y321789D01*
X427941Y321702D01*
X427877Y321614D01*
X427817Y321522D01*
X427760Y321429D01*
X427706Y321334D01*
X427656Y321237D01*
X427609Y321139D01*
X427566Y321039D01*
X427526Y320937D01*
X427490Y320834D01*
X427458Y320730D01*
X427429Y320624D01*
X427404Y320518D01*
X427383Y320411D01*
X427366Y320303D01*
X427352Y320195D01*
X427343Y320086D01*
X427337Y319977D01*
X427335Y319868D01*
X430665Y316538D02*
X438991Y323198D01*
X434828Y330182D02*
X435123Y330186D01*
X435417Y330196D01*
X435712Y330214D01*
X436006Y330238D01*
X436299Y330270D01*
X436591Y330308D01*
X436882Y330354D01*
X437172Y330407D01*
X437461Y330466D01*
X437748Y330532D01*
X438034Y330605D01*
X438318Y330685D01*
X438600Y330772D01*
X438879Y330865D01*
X439157Y330965D01*
X439431Y331072D01*
X439704Y331185D01*
X439973Y331305D01*
X440240Y331431D01*
X440343Y331469D01*
X440444Y331510D01*
X440543Y331554D01*
X440642Y331602D01*
X440738Y331653D01*
X440832Y331708D01*
X440925Y331766D01*
X441015Y331827D01*
X441103Y331892D01*
X441189Y331959D01*
X441272Y332030D01*
X441353Y332103D01*
X441431Y332179D01*
X441507Y332258D01*
X441579Y332340D01*
X441649Y332424D01*
X441715Y332511D01*
X441779Y332599D01*
X441839Y332690D01*
X441896Y332784D01*
X441950Y332879D01*
X442000Y332976D01*
X442047Y333074D01*
X442090Y333174D01*
X442130Y333276D01*
X442166Y333379D01*
X442198Y333483D01*
X442227Y333589D01*
X442252Y333695D01*
X442273Y333802D01*
X442290Y333910D01*
X442304Y334018D01*
X442313Y334127D01*
X442319Y334236D01*
X442321Y334345D01*
X442319Y334454D01*
X442313Y334563D01*
X442304Y334672D01*
X442290Y334780D01*
X442273Y334888D01*
X442252Y334995D01*
X442227Y335101D01*
X442198Y335207D01*
X442166Y335311D01*
X442130Y335414D01*
X442090Y335516D01*
X442047Y335616D01*
X442000Y335714D01*
X441950Y335811D01*
X441896Y335906D01*
X441839Y336000D01*
X441779Y336091D01*
X441715Y336179D01*
X441649Y336266D01*
X441579Y336350D01*
X441507Y336432D01*
X441431Y336511D01*
X441353Y336587D01*
X441272Y336660D01*
X441189Y336731D01*
X441103Y336798D01*
X441015Y336863D01*
X440925Y336924D01*
X440832Y336982D01*
X440738Y337037D01*
X440642Y337088D01*
X440543Y337136D01*
X440444Y337180D01*
X440343Y337221D01*
X440240Y337259D01*
X439973Y337385D01*
X439704Y337505D01*
X439431Y337618D01*
X439157Y337725D01*
X438879Y337825D01*
X438600Y337918D01*
X438318Y338005D01*
X438034Y338085D01*
X437748Y338158D01*
X437461Y338224D01*
X437172Y338283D01*
X436882Y338336D01*
X436591Y338382D01*
X436299Y338420D01*
X436006Y338452D01*
X435712Y338476D01*
X435417Y338494D01*
X435123Y338504D01*
X434828Y338508D01*
X434828Y330182D02*
X434533Y330186D01*
X434239Y330196D01*
X433944Y330214D01*
X433650Y330238D01*
X433357Y330270D01*
X433065Y330308D01*
X432774Y330354D01*
X432484Y330407D01*
X432195Y330466D01*
X431908Y330532D01*
X431622Y330605D01*
X431338Y330685D01*
X431056Y330772D01*
X430777Y330865D01*
X430499Y330965D01*
X430225Y331072D01*
X429952Y331185D01*
X429683Y331305D01*
X429416Y331431D01*
X429313Y331469D01*
X429212Y331510D01*
X429113Y331554D01*
X429014Y331602D01*
X428918Y331653D01*
X428824Y331708D01*
X428731Y331766D01*
X428641Y331827D01*
X428553Y331892D01*
X428467Y331959D01*
X428384Y332030D01*
X428303Y332103D01*
X428225Y332179D01*
X428149Y332258D01*
X428077Y332340D01*
X428007Y332424D01*
X427941Y332511D01*
X427877Y332599D01*
X427817Y332690D01*
X427760Y332784D01*
X427706Y332879D01*
X427656Y332976D01*
X427609Y333074D01*
X427566Y333174D01*
X427526Y333276D01*
X427490Y333379D01*
X427458Y333483D01*
X427429Y333589D01*
X427404Y333695D01*
X427383Y333802D01*
X427366Y333910D01*
X427352Y334018D01*
X427343Y334127D01*
X427337Y334236D01*
X427335Y334345D01*
X429416Y337259D02*
X429683Y337385D01*
X429952Y337505D01*
X430225Y337618D01*
X430499Y337725D01*
X430777Y337825D01*
X431056Y337918D01*
X431338Y338005D01*
X431622Y338085D01*
X431908Y338158D01*
X432195Y338224D01*
X432484Y338283D01*
X432774Y338336D01*
X433065Y338382D01*
X433357Y338420D01*
X433650Y338452D01*
X433944Y338476D01*
X434239Y338494D01*
X434533Y338504D01*
X434828Y338508D01*
X429416Y337259D02*
X429313Y337221D01*
X429212Y337180D01*
X429113Y337136D01*
X429014Y337088D01*
X428918Y337037D01*
X428824Y336982D01*
X428731Y336924D01*
X428641Y336863D01*
X428553Y336798D01*
X428467Y336731D01*
X428384Y336660D01*
X428303Y336587D01*
X428225Y336511D01*
X428149Y336432D01*
X428077Y336350D01*
X428007Y336266D01*
X427941Y336179D01*
X427877Y336091D01*
X427817Y335999D01*
X427760Y335906D01*
X427706Y335811D01*
X427656Y335714D01*
X427609Y335616D01*
X427566Y335516D01*
X427526Y335414D01*
X427490Y335311D01*
X427458Y335207D01*
X427429Y335101D01*
X427404Y334995D01*
X427383Y334888D01*
X427366Y334780D01*
X427352Y334672D01*
X427343Y334563D01*
X427337Y334454D01*
X427335Y334345D01*
X430665Y331015D02*
X438991Y337675D01*
M02*
