G04 EAGLE Gerber RS-274X export*
G75*
%MOMM*%
%FSLAX34Y34*%
%LPD*%
%INSoldermask Bottom*%
%IPPOS*%
%AMOC8*
5,1,8,0,0,1.08239X$1,22.5*%
G01*
%ADD10C,3.403200*%
%ADD11C,1.727200*%
%ADD12C,1.676400*%
%ADD13R,2.703200X2.703200*%
%ADD14C,2.082800*%
%ADD15P,1.852186X8X112.500000*%
%ADD16P,1.852186X8X292.500000*%
%ADD17C,2.082800*%
%ADD18R,1.536700X1.536700*%
%ADD19P,1.038661X8X22.500000*%
%ADD20C,0.959600*%
%ADD21C,1.536700*%


D10*
X30000Y590000D03*
X30000Y30000D03*
X940000Y30000D03*
X970000Y590000D03*
D11*
X591960Y515620D02*
X591960Y500380D01*
X566560Y500380D02*
X566560Y515620D01*
X978510Y549910D02*
X978510Y565150D01*
X953110Y565150D02*
X953110Y549910D01*
X591960Y434340D02*
X591960Y419100D01*
X566560Y419100D02*
X566560Y434340D01*
X591960Y459740D02*
X591960Y474980D01*
X566560Y474980D02*
X566560Y459740D01*
D12*
X33020Y114300D03*
X33020Y139700D03*
X33020Y165100D03*
X33020Y190500D03*
X33020Y215900D03*
X33020Y241300D03*
X33020Y266700D03*
X33020Y292100D03*
D13*
X837190Y27530D03*
X976890Y27530D03*
X868940Y256130D03*
X945140Y256130D03*
X837190Y256130D03*
X976890Y256130D03*
D14*
X962800Y454300D03*
X962800Y479700D03*
X962800Y505100D03*
D15*
X424250Y587606D03*
X398850Y587606D03*
X373450Y587606D03*
X348050Y587606D03*
X322650Y587606D03*
X297250Y587606D03*
X271850Y587606D03*
X246450Y587606D03*
X221050Y587606D03*
X195650Y587606D03*
X170250Y587606D03*
X144850Y587606D03*
X424250Y434190D03*
X398850Y434190D03*
X373450Y434190D03*
X221050Y434190D03*
X195650Y434190D03*
X170250Y434190D03*
X144850Y434190D03*
X68650Y434190D03*
X68650Y587606D03*
X94050Y587606D03*
X119450Y587606D03*
D16*
X94050Y434190D03*
X119450Y434190D03*
D15*
X348050Y434190D03*
D16*
X246450Y434190D03*
X271850Y434190D03*
X297250Y434190D03*
X322650Y434190D03*
D14*
X809720Y582880D03*
X784320Y582880D03*
X758920Y582880D03*
X733520Y582880D03*
D17*
X950844Y370910D02*
X969640Y370910D01*
X969640Y318840D02*
X950844Y318840D01*
D18*
X552622Y567180D03*
D19*
X396240Y533400D03*
X55880Y553720D03*
X25400Y563880D03*
X86360Y121920D03*
X985520Y50800D03*
X970280Y50800D03*
X985520Y233680D03*
X982980Y281940D03*
X721360Y452120D03*
X640080Y421640D03*
X731520Y530860D03*
X690880Y568960D03*
X208280Y508000D03*
D20*
X68580Y148590D03*
X259080Y462534D03*
X17526Y310896D03*
X8382Y310896D03*
X50292Y310896D03*
D21*
X495860Y567180D03*
M02*
