M48
;GenerationSoftware,Autodesk,EAGLE,9.3.1*%
;CreationDate,2019-02-18T08:41:20Z*%
FMAT,2
ICI,OFF
METRIC,TZ,000.000
T8C0.350
T7C0.889
T6C0.965
T5C1.000
T4C1.016
T3C1.118
T2C1.200
T1C3.200
%
G90
M71
T1
X3000Y59000
X3000Y3000
X94000Y3000
X97000Y59000
T2
X86894Y25613
X97689Y25613
X83719Y25613
X94514Y25613
X83719Y2753
X97689Y2753
T3
X96964Y31884
X96964Y37091
T4
X95311Y55753
X59196Y42672
X56656Y42672
X59196Y46736
X56656Y46736
X96280Y50510
X96280Y47970
X96280Y45430
X73352Y58288
X75892Y58288
X78432Y58288
X80972Y58288
X59196Y50800
X56656Y50800
X97851Y55753
T5
X19565Y43419
X17025Y43419
X14485Y43419
X6865Y43419
X6865Y58761
X9405Y58761
X11945Y58761
X9405Y43419
X11945Y43419
X34805Y58761
X24645Y43419
X27185Y43419
X29725Y43419
X32265Y43419
X34805Y43419
X22105Y43419
X42425Y58761
X39885Y58761
X37345Y58761
X32265Y58761
X29725Y58761
X27185Y58761
X24645Y58761
X22105Y58761
X19565Y58761
X17025Y58761
X14485Y58761
X42425Y43419
X39885Y43419
X37345Y43419
T6
X3302Y29210
X3302Y13970
X3302Y26670
X3302Y24130
X3302Y11430
X3302Y21590
X3302Y19050
X3302Y16510
T7
X55262Y56718
X49586Y56718
T8
X39624Y53340
X5588Y55372
X2540Y56388
X8636Y12192
X98552Y5080
X97028Y5080
X98552Y23368
X98298Y28194
X72136Y45212
X73152Y53086
X69088Y56896
X20828Y50800
X6858Y14859
X25908Y46253
X64008Y42164
X5029Y31090
X838Y31090
X1753Y31090
M30